<?xml version="1.0" encoding="UTF-8"?>
<svg width="24px" height="36px" viewBox="0 0 24 36" version="1.1" xmlns="http://www.w3.org/2000/svg" xmlns:xlink="http://www.w3.org/1999/xlink">
    <!-- Generator: sketchtool 47.1 (45422) - http://www.bohemiancoding.com/sketch -->
    <title>3AF2A0F3-F8E4-46B2-9E70-D9A8A4A495E4</title>
    <desc>Created with sketchtool.</desc>
    <defs></defs>
    <g id="Welcome" stroke="none" stroke-width="1" fill="none" fill-rule="evenodd" fill-opacity="0.628113678">
        <g id="Landing-page" transform="translate(-1296.000000, -4398.000000)" fill-rule="nonzero" fill="#7E95A3">
            <g id="Footer" transform="translate(138.000000, 4330.000000)">
                <g id="Address" transform="translate(890.000000, 68.000000)">
                    <g id="Loation" transform="translate(268.000000, 0.000000)">
                        <path d="M18.3649222,8.71556351 C18.3649222,8.71556351 18.3649222,8.68932618 18.3649222,8.71556351 C14.8514851,5.09481216 9.14851485,5.09481216 5.63507779,8.71556351 C5.63507779,8.71556351 5.63507779,8.71556351 5.63507779,8.71556351 C2.12164074,12.3363148 2.12164074,18.2397138 5.63507779,21.8604651 L11.2871287,27.6851521 C11.4908062,27.8950507 11.7454031,28 12,28 C12.2545969,28 12.5091938,27.8950507 12.7128713,27.6851521 L18.3649222,21.8342278 C21.8783593,18.2134764 21.8783593,12.3363148 18.3649222,8.71556351 Z M12,19.3558497 C9.64338097,19.3558497 7.72862801,17.3826126 7.72862801,14.9540131 C7.72862801,12.5254136 9.64338097,10.5521765 12,10.5521765 C14.356619,10.5521765 16.271372,12.5254136 16.271372,14.9540131 C16.271372,17.3826126 14.356619,19.3558497 12,19.3558497 Z" id="Shape"></path>
                    </g>
                </g>
            </g>
        </g>
    </g>
</svg>