<?xml version="1.0" encoding="UTF-8"?>
<svg width="24px" height="24px" viewBox="0 0 24 24" version="1.1" xmlns="http://www.w3.org/2000/svg" xmlns:xlink="http://www.w3.org/1999/xlink">
    <!-- Generator: sketchtool 47.1 (45422) - http://www.bohemiancoding.com/sketch -->
    <title>10548101-91A2-4ED8-B1DD-26A189A69498</title>
    <desc>Created with sketchtool.</desc>
    <defs></defs>
    <g id="Welcome" stroke="none" stroke-width="1" fill="none" fill-rule="evenodd" fill-opacity="0.628113678">
        <g id="Landing-page" transform="translate(-1296.000000, -4364.000000)" fill-rule="nonzero" fill="#7E95A3">
            <g id="Footer" transform="translate(138.000000, 4330.000000)">
                <g id="Email" transform="translate(983.000000, 34.000000)">
                    <g id="@-ICON" transform="translate(175.000000, 0.000000)">
                        <path d="M19.2381148,4.52141983 C17.3982301,2.84047328 15.1096934,2 12.3766207,2 C9.50360156,2 7.05453797,2.95471236 5.033546,4.86821705 C3.01255402,6.78172175 2,9.16034272 2,12.0081599 C2,14.7376581 2.96316114,17.0836393 4.88536736,19.0501836 C6.81580572,21.0167279 9.40893188,22 12.672978,22 C14.640461,22 16.5708994,21.6001632 18.4642931,20.7964096 C19.0817041,20.5352917 19.3821774,19.8335373 19.1310969,19.2174623 L19.1310969,19.2174623 C18.8717843,18.5809874 18.1391233,18.2872297 17.5011319,18.5565075 C15.8547026,19.2582619 14.2412019,19.6091391 12.6688619,19.6091391 C10.1662894,19.6091391 8.22761885,18.8543452 6.85285038,17.3406773 C5.48219798,15.8310894 4.79481375,14.0563035 4.79481375,12.0203998 C4.79481375,9.80905753 5.53159086,7.96491228 7.00102902,6.48388413 C8.4663511,5.00693594 10.2733073,4.26438188 12.4136654,4.26438188 C14.3852645,4.26438188 16.0522741,4.87229702 17.4105783,6.08812729 C18.7688825,7.30395757 19.4480346,8.83394533 19.4480346,10.6780906 C19.4480346,11.9388005 19.135213,12.9914321 18.5136859,13.8278254 C17.8921589,14.6682987 17.2459354,15.0844553 16.5750154,15.0844553 C16.212801,15.0844553 16.0316938,14.8926969 16.0316938,14.5051 C16.0316938,14.1909425 16.0563902,13.8237454 16.101667,13.3994288 L16.8672566,7.19379845 L14.2329697,7.19379845 L14.0642107,7.80171359 C13.3932908,7.25907793 12.6565137,6.98572011 11.8579955,6.98572011 C10.5902449,6.98572011 9.50360156,7.4875561 8.60218152,8.4871481 C7.6966454,9.48674011 7.24799341,10.7760098 7.24799341,12.3508772 C7.24799341,13.8890249 7.64725252,15.1334149 8.44988681,16.0758874 C9.25252109,17.0224398 10.2156822,17.4916361 11.3434863,17.4916361 C12.3519243,17.4916361 13.2121836,17.0713994 13.9283803,16.2350061 C14.4675859,17.0387597 15.2619881,17.4385965 16.3115867,17.4385965 C17.8551142,17.4385965 19.188722,16.7735618 20.31241,15.4394125 C21.436098,14.1093431 22,12.501836 22,10.620971 C22,8.23827009 21.0821157,6.20236638 19.2381148,4.52141983 Z M13.1710228,13.9094247 C12.7059066,14.5295798 12.1502367,14.8437373 11.5040132,14.8437373 C11.0635933,14.8437373 10.709611,14.6152591 10.4420663,14.1583027 C10.1704054,13.7013464 10.034575,13.1342309 10.034575,12.4528764 C10.034575,11.6124031 10.2239144,10.9351285 10.6025931,10.4210526 C10.9812719,9.90697674 11.4505042,9.64585883 12.0102902,9.64585883 C12.4959868,9.64585883 12.9281745,9.8376173 13.3068533,10.2252142 C13.685532,10.6128111 13.8748714,11.126887 13.8748714,11.7715218 C13.8707553,12.5752754 13.6361391,13.2851897 13.1710228,13.9094247 Z" id="Shape"></path>
                    </g>
                </g>
            </g>
        </g>
    </g>
</svg>