<?xml version="1.0" encoding="UTF-8"?>
<svg width="24px" height="24px" viewBox="0 0 24 24" version="1.1" xmlns="http://www.w3.org/2000/svg" xmlns:xlink="http://www.w3.org/1999/xlink">
    <!-- Generator: sketchtool 47.1 (45422) - http://www.bohemiancoding.com/sketch -->
    <title>8BBB230A-AFD8-4761-8534-B186A526176C</title>
    <desc>Created with sketchtool.</desc>
    <defs></defs>
    <g id="Welcome" stroke="none" stroke-width="1" fill="none" fill-rule="evenodd" fill-opacity="0.628113678">
        <g id="Landing-page" transform="translate(-1296.000000, -4330.000000)" fill-rule="nonzero" fill="#7E95A3">
            <g id="Footer" transform="translate(138.000000, 4330.000000)">
                <g id="Phone" transform="translate(1003.000000, 0.000000)">
                    <g transform="translate(155.000000, 0.000000)" id="Shape">
                        <path d="M20.4305164,17.2135901 L15.8411238,14.5711687 C15.3958252,14.3147895 14.8338883,14.3891198 14.4705538,14.7524542 L13.5666172,15.6563908 C13.218189,16.004819 12.6634039,16.0364395 12.2795382,15.727547 C11.5707889,15.1572529 10.8624013,14.522633 10.1698841,13.8301159 C9.47736697,13.1375987 8.84274709,12.4292111 8.27245303,11.7204618 C7.96356049,11.3365961 7.995181,10.781811 8.34360921,10.4333828 L9.24754578,9.52944619 C9.61084005,9.16615192 9.68521051,8.60417482 9.42883131,8.15891635 L6.78640992,3.56948356 C6.41331208,2.92144404 5.52681299,2.80420309 4.99806354,3.33295255 L3.63593101,4.69508508 C1.86076319,6.4702529 3.92939499,11.4168728 8.25626108,15.7437389 C12.5831272,20.070605 17.5297873,22.1392368 19.3049149,20.364069 L20.6670474,19.0019365 C21.1957969,18.473187 21.0785961,17.5866879 20.4305164,17.2135901 Z"></path>
                    </g>
                </g>
            </g>
        </g>
    </g>
</svg>