<svg xmlns="http://www.w3.org/2000/svg" xmlns:xlink="http://www.w3.org/1999/xlink" width="96" height="88" viewBox="0 0 96 88">
    <defs>
        <circle id="a" cx="43.923" cy="43.923" r="43.923"/>
    </defs>
    <g fill="none" fill-rule="nonzero">
        <g>
            <use fill="#7A51CC" fill-opacity=".07" fill-rule="evenodd" xlink:href="#a"/>
            <circle cx="43.923" cy="43.923" r="42.423" stroke="#7A51CC" stroke-width="3"/>
        </g>
        <path fill="#341A61" d="M87.954 17.539L43.56 63.502l.078 4.941h2.04l48.08-38.747c-1.412-4.314-3.373-8.47-5.804-12.157z" opacity=".411"/>
        <path fill="#0ADBBC" d="M95.17 15.343l-8.863-8.785c-1.177-1.177-3.138-1.177-4.393 0L44.03 45.697 27.637 29.539c-1.176-1.176-3.137-1.176-4.392 0l-7.844 7.766c-1.176 1.176-1.176 3.137 0 4.314L41.6 67.58c.706.706 1.647.942 2.588.863.941.079 1.883-.157 2.588-.863L95.17 19.735c1.176-1.255 1.176-3.216 0-4.392z"/>
        <path fill="#1CBDA5" d="M46.775 67.58L95.17 19.735c1.176-1.177 1.176-3.137 0-4.314l-1.412-1.333-49.65 48.786-27.452-26.746-1.176 1.177c-1.177 1.176-1.177 3.137 0 4.314L41.677 67.58c.706.706 1.647.94 2.589.862.862.079 1.804-.157 2.51-.863z"/>
    </g>
</svg>
