<?xml version="1.0" encoding="UTF-8"?>
<svg width="33px" height="31px" viewBox="0 0 33 31" version="1.1" xmlns="http://www.w3.org/2000/svg" xmlns:xlink="http://www.w3.org/1999/xlink">
    <!-- Generator: sketchtool 47.1 (45422) - http://www.bohemiancoding.com/sketch -->
    <title>DCAFF5AF-57BB-4BD0-AD93-2EDCB304A26B</title>
    <desc>Created with sketchtool.</desc>
    <defs></defs>
    <g id="Welcome" stroke="none" stroke-width="1" fill="none" fill-rule="evenodd">
        <g id="Landing-page" transform="translate(-1230.000000, -4893.000000)" fill="#677897">
            <g id="Footer" transform="translate(0.000000, 4764.000000)">
                <g id="Socials" transform="translate(1175.000000, 129.000000)">
                    <g id="Facebook" transform="translate(55.000000, 0.000000)">
                        <path d="M0,15.5 C0,6.93958595 7.38730118,0 16.5,0 C25.6126988,0 33,6.93958595 33,15.5 C33,24.060414 25.6126988,31 16.5,31 C7.38730118,31 0,24.060414 0,15.5 Z M17.6698191,24.0969954 L17.6698191,15.664177 L20.1478282,15.664177 L20.4762179,12.7581811 L17.6698191,12.7581811 L17.6740292,11.3037022 C17.6740292,10.5457737 17.7506886,10.1396583 18.9095253,10.1396583 L20.4586757,10.1396583 L20.4586757,7.23333333 L17.9803158,7.23333333 C15.003407,7.23333333 13.9556123,8.64305399 13.9556123,11.0137608 L13.9556123,12.7585102 L12.1,12.7585102 L12.1,15.6645061 L13.9556123,15.6645061 L13.9556123,24.0969954 L17.6698191,24.0969954 Z" id="Combined-Shape"></path>
                    </g>
                </g>
            </g>
        </g>
    </g>
</svg>