<?xml version="1.0" encoding="UTF-8"?>
<svg width="33px" height="24px" viewBox="0 0 33 24" version="1.1" xmlns="http://www.w3.org/2000/svg" xmlns:xlink="http://www.w3.org/1999/xlink">
    <!-- Generator: sketchtool 47.1 (45422) - http://www.bohemiancoding.com/sketch -->
    <title>40B0696B-7300-4021-BB7F-1826E8F604FA</title>
    <desc>Created with sketchtool.</desc>
    <defs></defs>
    <g id="Welcome" stroke="none" stroke-width="1" fill="none" fill-rule="evenodd">
        <g id="Landing-page" transform="translate(-138.000000, -4332.000000)" fill-rule="nonzero">
            <g id="Footer" transform="translate(138.000000, 4330.000000)">
                <g id="Country" transform="translate(0.000000, 1.000000)">
                    <g id="india">
                        <g id="Group" transform="translate(16.500000, 12.951613) scale(-1, 1) rotate(-180.000000) translate(-16.500000, -12.951613) translate(0.000000, 0.951613)">
                            <path d="M0,3.69354839 C0,1.6666129 1.63858187,0.0233064516 3.65951023,0.0233064516 L29.2761623,0.0233064516 C31.2971711,0.0233064516 32.9356725,1.66669355 32.9356725,3.69354839 L32.9356725,7.36379032 L0,7.36379032 L0,3.69354839 Z" id="Shape" fill="#138808"></path>
                            <polygon id="Shape" fill="#EEEEEE" points="0 7.36379032 32.9356725 7.36379032 32.9356725 16.5394355 0 16.5394355"></polygon>
                            <path d="M32.9356725,16.5394355 L32.9356725,20.2096774 C32.9356725,22.2366129 31.2970906,23.8799194 29.2761623,23.8799194 L3.65951023,23.8799194 C1.63858187,23.8799194 0,22.2366129 0,20.2096774 L0,16.5394355 L32.9356725,16.5394355 Z" id="Shape" fill="#FF9933"></path>
                            <path d="M20.1273465,11.9516129 C20.1273465,13.9794355 18.4887646,15.6227419 16.4669518,15.6227419 C14.445943,15.6227419 12.8074415,13.9793548 12.8074415,11.9516129 C12.8074415,9.92467742 14.4460234,8.28137097 16.4669518,8.28137097 C18.488845,8.28137097 20.1273465,9.92467742 20.1273465,11.9516129" id="Shape" fill="#000080"></path>
                            <path d="M19.2124488,11.9516129 C19.2124488,13.4720161 17.9828289,14.7052419 16.4668713,14.7052419 C14.9509137,14.7052419 13.7222588,13.4720161 13.7222588,11.9516129 C13.7222588,10.4312097 14.9509137,9.19895161 16.4668713,9.19895161 C17.9828289,9.19895161 19.2124488,10.4312097 19.2124488,11.9516129" id="Shape" fill="#EEEEEE"></path>
                            <g transform="translate(13.669591, 9.193548)" id="Shape" fill="#000080">
                                <g opacity="0.6">
                                    <polygon points="2.79824561 5.51072581 2.93180556 3.4333871 3.84855263 5.30064516 3.17978801 3.33064516 4.73876462 4.70516129 3.36915205 3.14072581 5.33339181 3.81145161 3.47159357 2.89201613 5.54285819 2.75806452 3.47159357 2.6241129 5.33339181 1.70564516 3.36915205 2.37548387 4.73876462 0.811935484 3.17978801 2.18548387 3.84855263 0.215483871 2.93180556 2.08274194 2.79824561 0.00540322581 2.66468567 2.08274194 1.7479386 0.215483871 2.41670322 2.18548387 0.856842105 0.811854839 2.22733918 2.37540323 0.263099415 1.70556452 2.12489766 2.62403226 0.0536330409 2.75798387 2.12489766 2.89193548 0.263099415 3.81137097 2.22733918 3.14064516 0.856842105 4.70508065 2.41670322 3.33056452 1.7479386 5.30056452 2.66468567 3.43330645"></polygon>
                                </g>
                                <path d="M1.88334795,2.75806452 C1.88334795,3.26459677 2.29319444,3.67564516 2.79824561,3.67564516 C3.30329678,3.67564516 3.71314327,3.26459677 3.71314327,2.75806452 C3.71314327,2.25153226 3.30329678,1.84048387 2.79824561,1.84048387 C2.29319444,1.84048387 1.88334795,2.25153226 1.88334795,2.75806452"></path>
                            </g>
                        </g>
                    </g>
                </g>
            </g>
        </g>
    </g>
</svg>