<?xml version="1.0" encoding="UTF-8"?>
<svg version="1.1" viewBox="0 0 700 581" xmlns="http://www.w3.org/2000/svg" xmlns:xlink="http://www.w3.org/1999/xlink">
<title>ipad-illustration@2x</title>
<desc>Created with Sketch.</desc>
<defs>
<linearGradient id="j" x2="102%" y2="101%">
<stop stop-color="#3023AE" offset="0"/>
<stop stop-color="#C86DD7" offset="1"/>
</linearGradient>
<filter id="ab" x="-24.9%" y="-34.4%" width="149.7%" height="168.9%">
<feGaussianBlur in="SourceGraphic" stdDeviation="37.3006664"/>
</filter>
<filter id="y" x="-33.3%" y="-47%" width="166.7%" height="194.1%">
<feGaussianBlur in="SourceGraphic" stdDeviation="50"/>
</filter>
<rect id="c" x="83" y="-82" width="349.38" height="514.04" rx="44.826"/>
<filter id="w" x="-3.4%" y="-1.6%" width="104.6%" height="103.1%">
<feOffset dx="-4" dy="0" in="SourceAlpha" result="shadowOffsetOuter1"/>
<feGaussianBlur in="shadowOffsetOuter1" result="shadowBlurOuter1" stdDeviation="2"/>
<feComposite in="shadowBlurOuter1" in2="SourceAlpha" operator="out" result="shadowBlurOuter1"/>
<feColorMatrix in="shadowBlurOuter1" values="0 0 0 0 0   0 0 0 0 0   0 0 0 0 0  0 0 0 0.22 0"/>
</filter>
<filter id="v" x="-4.6%" y="-2.3%" width="106.9%" height="104.7%">
<feGaussianBlur in="SourceAlpha" result="shadowBlurInner1" stdDeviation="5"/>
<feOffset dx="6" dy="0" in="shadowBlurInner1" result="shadowOffsetInner1"/>
<feComposite in="shadowOffsetInner1" in2="SourceAlpha" k2="-1" k3="1" operator="arithmetic" result="shadowInnerInner1"/>
<feColorMatrix in="shadowInnerInner1" values="0 0 0 0 0.899739583   0 0 0 0 0.899739583   0 0 0 0 0.899739583  0 0 0 1 0"/>
</filter>
<rect id="f" x="46" y="10" width="419" height="329" rx="5.2297"/>
<rect id="e" width="323.48" height="129" rx="3"/>
<filter id="ad" x="-5.1%" y="-8.1%" width="110.2%" height="125.6%">
<feOffset dx="0" dy="1" in="SourceAlpha" result="shadowOffsetOuter1"/>
<feGaussianBlur in="shadowOffsetOuter1" result="shadowBlurOuter1" stdDeviation="2.5"/>
<feComposite in="shadowBlurOuter1" in2="SourceAlpha" operator="out" result="shadowBlurOuter1"/>
<feColorMatrix in="shadowBlurOuter1" result="shadowMatrixOuter1" values="0 0 0 0 0   0 0 0 0 0   0 0 0 0 0  0 0 0 0.1 0"/>
<feOffset dx="0" dy="3" in="SourceAlpha" result="shadowOffsetOuter2"/>
<feGaussianBlur in="shadowOffsetOuter2" result="shadowBlurOuter2" stdDeviation="2"/>
<feComposite in="shadowBlurOuter2" in2="SourceAlpha" operator="out" result="shadowBlurOuter2"/>
<feColorMatrix in="shadowBlurOuter2" result="shadowMatrixOuter2" values="0 0 0 0 0   0 0 0 0 0   0 0 0 0 0  0 0 0 0.06 0"/>
<feOffset dx="0" dy="2" in="SourceAlpha" result="shadowOffsetOuter3"/>
<feGaussianBlur in="shadowOffsetOuter3" result="shadowBlurOuter3" stdDeviation="2"/>
<feComposite in="shadowBlurOuter3" in2="SourceAlpha" operator="out" result="shadowBlurOuter3"/>
<feColorMatrix in="shadowBlurOuter3" result="shadowMatrixOuter3" values="0 0 0 0 0   0 0 0 0 0   0 0 0 0 0  0 0 0 0.07 0"/>
<feMerge>
<feMergeNode in="shadowMatrixOuter1"/>
<feMergeNode in="shadowMatrixOuter2"/>
<feMergeNode in="shadowMatrixOuter3"/>
</feMerge>
</filter>
<rect id="s" y="-1.4211e-13" width="296.52" height="42" rx="4.212"/>
<circle id="r" cx="5.0544" cy="5.0544" r="5.0544"/>
<rect id="q" width="296.52" height="53" rx="4.212"/>
<circle id="p" cx="5.0544" cy="5.0544" r="5.0544"/>
<rect id="d" width="323.48" height="86" rx="3"/>
<filter id="ac" x="-5.1%" y="-12.2%" width="110.2%" height="138.4%">
<feOffset dx="0" dy="1" in="SourceAlpha" result="shadowOffsetOuter1"/>
<feGaussianBlur in="shadowOffsetOuter1" result="shadowBlurOuter1" stdDeviation="2.5"/>
<feComposite in="shadowBlurOuter1" in2="SourceAlpha" operator="out" result="shadowBlurOuter1"/>
<feColorMatrix in="shadowBlurOuter1" result="shadowMatrixOuter1" values="0 0 0 0 0   0 0 0 0 0   0 0 0 0 0  0 0 0 0.1 0"/>
<feOffset dx="0" dy="3" in="SourceAlpha" result="shadowOffsetOuter2"/>
<feGaussianBlur in="shadowOffsetOuter2" result="shadowBlurOuter2" stdDeviation="2"/>
<feComposite in="shadowBlurOuter2" in2="SourceAlpha" operator="out" result="shadowBlurOuter2"/>
<feColorMatrix in="shadowBlurOuter2" result="shadowMatrixOuter2" values="0 0 0 0 0   0 0 0 0 0   0 0 0 0 0  0 0 0 0.06 0"/>
<feOffset dx="0" dy="2" in="SourceAlpha" result="shadowOffsetOuter3"/>
<feGaussianBlur in="shadowOffsetOuter3" result="shadowBlurOuter3" stdDeviation="2"/>
<feComposite in="shadowBlurOuter3" in2="SourceAlpha" operator="out" result="shadowBlurOuter3"/>
<feColorMatrix in="shadowBlurOuter3" result="shadowMatrixOuter3" values="0 0 0 0 0   0 0 0 0 0   0 0 0 0 0  0 0 0 0.07 0"/>
<feMerge>
<feMergeNode in="shadowMatrixOuter1"/>
<feMergeNode in="shadowMatrixOuter2"/>
<feMergeNode in="shadowMatrixOuter3"/>
</feMerge>
</filter>
<circle id="o" cx="9.7448" cy="9.4896" r="9.2664"/>
<circle id="n" cx="9.7448" cy="10.077" r="9.2664"/>
<rect id="i" width="323.48" height="98" rx="3"/>
<filter id="aa" x="-5.1%" y="-10.7%" width="110.2%" height="133.7%">
<feOffset dx="0" dy="1" in="SourceAlpha" result="shadowOffsetOuter1"/>
<feGaussianBlur in="shadowOffsetOuter1" result="shadowBlurOuter1" stdDeviation="2.5"/>
<feComposite in="shadowBlurOuter1" in2="SourceAlpha" operator="out" result="shadowBlurOuter1"/>
<feColorMatrix in="shadowBlurOuter1" result="shadowMatrixOuter1" values="0 0 0 0 0   0 0 0 0 0   0 0 0 0 0  0 0 0 0.1 0"/>
<feOffset dx="0" dy="3" in="SourceAlpha" result="shadowOffsetOuter2"/>
<feGaussianBlur in="shadowOffsetOuter2" result="shadowBlurOuter2" stdDeviation="2"/>
<feComposite in="shadowBlurOuter2" in2="SourceAlpha" operator="out" result="shadowBlurOuter2"/>
<feColorMatrix in="shadowBlurOuter2" result="shadowMatrixOuter2" values="0 0 0 0 0   0 0 0 0 0   0 0 0 0 0  0 0 0 0.06 0"/>
<feOffset dx="0" dy="2" in="SourceAlpha" result="shadowOffsetOuter3"/>
<feGaussianBlur in="shadowOffsetOuter3" result="shadowBlurOuter3" stdDeviation="2"/>
<feComposite in="shadowBlurOuter3" in2="SourceAlpha" operator="out" result="shadowBlurOuter3"/>
<feColorMatrix in="shadowBlurOuter3" result="shadowMatrixOuter3" values="0 0 0 0 0   0 0 0 0 0   0 0 0 0 0  0 0 0 0.07 0"/>
<feMerge>
<feMergeNode in="shadowMatrixOuter1"/>
<feMergeNode in="shadowMatrixOuter2"/>
<feMergeNode in="shadowMatrixOuter3"/>
</feMerge>
</filter>
<rect id="m" y="-1.4211e-14" width="43.131" height="67.392" rx="2"/>
<rect id="h" x="1.1369e-13" width="422.36" height="20.16"/>
<filter id="z" x="-2.1%" y="-29.8%" width="104.3%" height="189.3%">
<feOffset dx="0" dy="3" in="SourceAlpha" result="shadowOffsetOuter1"/>
<feGaussianBlur in="shadowOffsetOuter1" result="shadowBlurOuter1" stdDeviation="2.5"/>
<feComposite in="shadowBlurOuter1" in2="SourceAlpha" operator="out" result="shadowBlurOuter1"/>
<feColorMatrix in="shadowBlurOuter1" values="0 0 0 0 0   0 0 0 0 0   0 0 0 0 0  0 0 0 0.06 0"/>
</filter>
<circle id="l" cx="2.808" cy="2.808" r="2.808"/>
<rect id="k" width="41.472" height="11.664" rx="5.832"/>
<rect id="g" x=".096009" y=".11362" width="28.512" height="22"/>
<filter id="x" x="-5.3%" y="-6.8%" width="110.5%" height="113.6%">
<feOffset dx="0" dy="0" in="SourceAlpha" result="shadowOffsetOuter1"/>
<feGaussianBlur in="shadowOffsetOuter1" result="shadowBlurOuter1" stdDeviation="0.5"/>
<feColorMatrix in="shadowBlurOuter1" values="0 0 0 0 0   0 0 0 0 0   0 0 0 0 0  0 0 0 0.18 0"/>
</filter>
</defs>
<g fill="none" fill-rule="evenodd">
<g transform="translate(-660 -63)">
<g transform="translate(140 127)">
<g transform="translate(582)">
<polygon transform="translate(288.18 228.8) rotate(-5) translate(-288.18 -228.8)" points="63.186 118.23 97.905 391.26 513.17 338.39 481.16 66.332" fill="url(#j)" filter="url(#ab)" opacity=".14844"/>
<polygon transform="translate(288.29 226.56) rotate(-5) translate(-288.29 -226.56)" points="63.347 119.69 96.267 385.98 513.24 334.6 480.09 67.139" fill="url(#j)" filter="url(#y)" opacity=".74563"/>
<g transform="translate(288.5 225) rotate(-12) translate(-257.5 -175)">
<g transform="translate(257.69 175.02) rotate(-90) translate(-257.69 -175.02)">
<use fill="black" filter="url(#w)" xlink:href="#c"/>
<use fill="#FFFFFF" fill-rule="evenodd" xlink:href="#c"/>
<use fill="black" filter="url(#v)" xlink:href="#c"/>
<rect x="83.672" y="-81.328" width="348.04" height="512.69" rx="44.826" stroke="#F0F0F0" stroke-width="1.3448"/>
</g>
<mask id="b" fill="white">
<use xlink:href="#f"/>
</mask>
<g stroke-linecap="square">
<use fill="#FAFBFD" fill-rule="evenodd" xlink:href="#f"/>
<rect x="45" y="9" width="421" height="331" rx="5.2297" stroke="#EFF1F5" stroke-width="2"/>
</g>
<g mask="url(#b)">
<g transform="translate(110 234)">
<use fill="black" filter="url(#ad)" xlink:href="#e"/>
<use fill="#FFFFFF" fill-opacity=".99" fill-rule="evenodd" xlink:href="#e"/>
<g transform="translate(13.478 80.137)" fill-rule="evenodd">
<use fill="#F7B100" fill-opacity=".06" fill-rule="evenodd" xlink:href="#s"/>
<rect x=".2925" y=".2925" width="295.94" height="41.415" rx="4.212" stroke="#F7B100" stroke-opacity=".50419" stroke-width=".585"/>
<g transform="translate(276.31 6.7392)">
<use fill="#FFFFFF" fill-opacity=".99" fill-rule="evenodd" xlink:href="#r"/>
<circle cx="5.0544" cy="5.0544" r="5.3044" stroke="#43BF81" stroke-width=".5"/>
<g transform="translate(.8424 .8424)">
<rect width="8.424" height="8.424"/>
<polygon points="3.159 5.6862 1.6848 4.212 1.1934 4.7034 3.159 6.669 7.371 2.457 6.8796 1.9656" fill="#43BF81"/>
</g>
</g>
<g transform="translate(276.31 23.587)" fill="#7E95A3" fill-rule="nonzero">
<path d="m8.3081 2.8659c0.15458-0.15458 0.15458-0.41222 0-0.55887l-0.92749-0.92749c-0.14666-0.15458-0.40429-0.15458-0.55887 0l-0.77688 0.77688 1.4864 1.4864 0.77688-0.77688zm-1.1732 1.1732-1.4864-1.4864-3.9637 3.9637v1.4864h1.4864l3.9637-3.9637z"/>
</g>
<text font-family="ProximaNova-Regular, Proxima Nova" font-size="5.8968" line-spacing="7.5816">
<tspan x="6.7392" y="11.7392" fill="#0D1F2D">Trial:</tspan>
<tspan x="20.183904" y="11.7392" fill="#0072A3" font-family="ProximaNova-Semibold, Proxima Nova" font-weight="500">Ramneek Narula</tspan>
</text>
<text fill="#7E95A3" font-family="ProximaNova-Regular, Proxima Nova" font-size="5.4756">
<tspan x="7.1604" y="22.6904">Reminder set for</tspan>
</text>
<text fill="#0D1F2D" font-family="ProximaNova-Regular, Proxima Nova" font-size="5.4756">
<tspan x="50.1228" y="22.6904">10:30 AM, 12 Jun</tspan>
</text>
<text fill="#7E95A3" font-family="ProximaNova-Regular, Proxima Nova" font-size="5.4756">
<tspan x="7.1604" y="33.6472">Added by Priya Kumar on 10:30 AM, 12 Jun</tspan>
</text>
</g>
<g transform="translate(13.478 21.272)" fill-rule="evenodd">
<use fill="#D44449" fill-opacity=".08" fill-rule="evenodd" xlink:href="#q"/>
<rect x=".2925" y=".2925" width="295.94" height="52.415" rx="4.212" stroke="#DE474C" stroke-opacity=".48749" stroke-width=".585"/>
<g transform="translate(276.31 6.7392)">
<use fill="#FFFFFF" fill-opacity=".99" fill-rule="evenodd" xlink:href="#p"/>
<circle cx="5.0544" cy="5.0544" r="5.3044" stroke="#43BF81" stroke-width=".5"/>
<g transform="translate(.8424 .8424)">
<rect width="8.424" height="8.424"/>
<polygon points="3.159 5.6862 1.6848 4.212 1.1934 4.7034 3.159 6.669 7.371 2.457 6.8796 1.9656" fill="#43BF81"/>
</g>
</g>
<g transform="translate(276.31 23.587)" fill="#7E95A3" fill-rule="nonzero">
<path d="m8.3081 2.8659c0.15458-0.15458 0.15458-0.41222 0-0.55887l-0.92749-0.92749c-0.14666-0.15458-0.40429-0.15458-0.55887 0l-0.77688 0.77688 1.4864 1.4864 0.77688-0.77688zm-1.1732 1.1732-1.4864-1.4864-3.9637 3.9637v1.4864h1.4864l3.9637-3.9637z"/>
</g>
<text font-family="ProximaNova-Regular, Proxima Nova" font-size="5.8968" line-spacing="7.5816">
<tspan x="6.7392" y="11.7392" fill="#0D1F2D">Call:</tspan>
<tspan x="19.3642488" y="11.7392" fill="#0072A3" font-family="ProximaNova-Semibold, Proxima Nova" font-weight="500">Riya Bhatia</tspan>
</text>
<text fill="#7E95A3" font-family="ProximaNova-Regular, Proxima Nova" font-size="5.4756">
<tspan x="7.1604" y="22.6904">Reminder set for</tspan>
</text>
<text fill="#0D1F2D" font-family="ProximaNova-Regular, Proxima Nova" font-size="5.4756">
<tspan x="50.1228" y="22.6904">10:30 AM, 12 Jun</tspan>
</text>
<text fill="#7E95A3" font-family="ProximaNova-Regular, Proxima Nova" font-size="5.4756">
<tspan x="7.1604" y="32.7992">Comment</tspan>
</text>
<text fill="#0D1F2D" font-family="ProximaNova-Regular, Proxima Nova" font-size="5.4756">
<tspan x="50.1228" y="32.7992">Pitch her 20% discount for the 3 months membership and 40% on annual</tspan>
</text>
<text fill="#7E95A3" font-family="ProximaNova-Regular, Proxima Nova" font-size="5.4756">
<tspan x="7.1604" y="45.6472">Added by Priya Kumar on 10:30 AM, 12 Jun</tspan>
</text>
<text fill="#D9575B" font-family="ProximaNova-Semibold, Proxima Nova" font-size="5.4756" font-weight="500" letter-spacing=".12636">
<tspan x="262.886579" y="45.6472">Overdue</tspan>
</text>
</g>
<g transform="translate(.4212 6.7392)" fill-rule="evenodd" font-size="5.4756" letter-spacing=".12636">
<text fill="#7F6CA6" font-family="ProximaNova-Semibold, Proxima Nova" font-weight="500">
<tspan x="13.4784" y="5">Tasks</tspan>
</text>
<text fill="#546A7B" font-family="ProximaNova-Semibold, Proxima Nova" font-weight="500">
<tspan x="204.387089" y="5">Overdue</tspan>
</text>
<text fill="#7E95A3" font-family="ProximaNova-Regular, Proxima Nova">
<tspan x="243.759602" y="5">Today</tspan>
</text>
<text fill="#7E95A3" font-family="ProximaNova-Regular, Proxima Nova">
<tspan x="280.044321" y="5">Tomorrow</tspan>
</text>
</g>
</g>
</g>
<g mask="url(#b)">
<g transform="translate(110 37)">
<mask id="a" fill="white">
<use xlink:href="#d"/>
</mask>
<use fill="black" filter="url(#ac)" xlink:href="#d"/>
<use fill="#FFFFFF" fill-opacity=".99" fill-rule="evenodd" xlink:href="#d"/>
<rect x=".4212" y="19.796" width="322.64" height="13.478" fill="#FAFAFA" fill-rule="evenodd" mask="url(#a)"/>
<rect x=".4212" y="57.283" width="322.64" height="23.587" fill="#F3F8FA" fill-rule="evenodd" mask="url(#a)"/>
<text fill="none" font-family="ProximaNova-Semibold, Proxima Nova" font-size="5.4756" font-weight="500" mask="url(#a)">
<tspan x="37.0656" y="42.908" fill="#0072A3">Anirban Roy</tspan>
</text>
<g fill="none" fill-rule="evenodd" mask="url(#a)">
<g transform="translate(13 36)">
<mask id="u" fill="white">
<use xlink:href="#o"/>
</mask>
<circle cx="9.7448" cy="9.4896" r="9.5589" stroke="#DFE3E9" stroke-width=".585"/>
<g fill="none" fill-rule="evenodd" mask="url(#u)">
<g transform="translate(4.7009 3.2208)" fill="#DFE3E9" fill-rule="nonzero">
<path d="m0.068938 9.6699c-0.11818 0.30306-0.084414 0.6398 0.1013 0.90918 0.18571 0.26939 0.47272 0.42092 0.81037 0.42092h8.2388c0.32077 0 0.62466-0.15153 0.81037-0.42092 0.18571-0.26939 0.21948-0.60612 0.1013-0.90918-0.86102-2.0541-2.8363-3.3842-5.0479-3.3842-2.2116 0-4.1869 1.3301-5.0142 3.3842z"/>
<path d="m7.8462 2.75c0-1.5125-1.2358-2.75-2.7462-2.75-1.5104 0-2.7462 1.2375-2.7462 2.75s1.2358 2.75 2.7462 2.75c1.5104 0 2.7462-1.2375 2.7462-2.75z"/>
</g>
</g>
</g>
</g>
<g fill="none" fill-rule="evenodd" mask="url(#a)">
<g transform="translate(13 59)">
<mask id="t" fill="white">
<use xlink:href="#n"/>
</mask>
<circle cx="9.7448" cy="10.077" r="9.5589" stroke="#DFE3E9" stroke-width=".585"/>
<g fill="none" fill-rule="evenodd" mask="url(#t)">
<g transform="translate(4.8097 3.7578)" fill="#DFE3E9" fill-rule="nonzero">
<path d="m0.068938 9.6699c-0.11818 0.30306-0.084414 0.6398 0.1013 0.90918 0.18571 0.26939 0.47272 0.42092 0.81037 0.42092h8.2388c0.32077 0 0.62466-0.15153 0.81037-0.42092 0.18571-0.26939 0.21948-0.60612 0.1013-0.90918-0.86102-2.0541-2.8363-3.3842-5.0479-3.3842-2.2116 0-4.1869 1.3301-5.0142 3.3842z"/>
<path d="m7.8462 2.75c0-1.5125-1.2358-2.75-2.7462-2.75-1.5104 0-2.7462 1.2375-2.7462 2.75s1.2358 2.75 2.7462 2.75c1.5104 0 2.7462-1.2375 2.7462-2.75z"/>
</g>
</g>
</g>
</g>
<text fill="none" font-family="ProximaNova-Regular, Proxima Nova" font-size="5.4756" mask="url(#a)">
<tspan x="37.0656" y="51.332" fill="#546A7B">989-456-9098</tspan>
</text>
<text fill="none" font-family="ProximaNova-Regular, Proxima Nova" font-size="5.4756" mask="url(#a)">
<tspan x="120.8844" y="47.12" fill="#546A7B">Standard</tspan>
</text>
<text fill="none" font-family="ProximaNova-Regular, Proxima Nova" font-size="5.4756" mask="url(#a)">
<tspan x="176.0616" y="47.12" fill="#546A7B">3 months</tspan>
</text>
<text fill="none" font-family="ProximaNova-Regular, Proxima Nova" font-size="5.4756" mask="url(#a)">
<tspan x="232.611049" y="47.12" fill="#546A7B">23-06-2017</tspan>
</text>
<text fill="none" font-family="ProximaNova-Regular, Proxima Nova" font-size="5.4756" mask="url(#a)">
<tspan x="277.441305" y="47.12" fill="#546A7B">22-09-2017</tspan>
</text>
<text fill="none" font-family="ProximaNova-Semibold, Proxima Nova" font-size="4.6332" font-weight="500" letter-spacing=".2106" mask="url(#a)">
<tspan x="120.8844" y="27.5872" fill="#7E95A3">Plan</tspan>
</text>
<text fill="none" font-family="ProximaNova-Semibold, Proxima Nova" font-size="4.6332" font-weight="500" letter-spacing=".2106" mask="url(#a)">
<tspan x="13.4784" y="27.5872" fill="#7E95A3">Customer</tspan>
</text>
<text fill="none" font-family="ProximaNova-Semibold, Proxima Nova" font-size="4.6332" font-weight="500" letter-spacing=".2106" mask="url(#a)">
<tspan x="176.0616" y="27.5872" fill="#7E95A3">Duration</tspan>
</text>
<text fill="none" font-family="ProximaNova-Semibold, Proxima Nova" font-size="4.6332" font-weight="500" letter-spacing=".2106" mask="url(#a)">
<tspan x="246.402" y="27.5872" fill="#7E95A3">Start</tspan>
</text>
<text fill="none" font-family="ProximaNova-Semibold, Proxima Nova" font-size="4.6332" font-weight="500" letter-spacing=".2106" mask="url(#a)">
<tspan x="290.2068" y="27.5872" fill="#7E95A3">Expiry</tspan>
</text>
<text fill="none" font-family="ProximaNova-Semibold, Proxima Nova" font-size="5.4756" font-weight="500" mask="url(#a)">
<tspan x="37.0656" y="66.4952" fill="#0072A3">Avantika Sharma</tspan>
</text>
<text fill="none" font-family="ProximaNova-Regular, Proxima Nova" font-size="5.4756" mask="url(#a)">
<tspan x="37.0656" y="74.9192" fill="#546A7B">989-456-9098</tspan>
</text>
<text fill="none" font-family="ProximaNova-Regular, Proxima Nova" font-size="5.4756" mask="url(#a)">
<tspan x="120.8844" y="70.7072" fill="#546A7B">PT Rohit Shah</tspan>
</text>
<text fill="none" font-family="ProximaNova-Regular, Proxima Nova" font-size="5.4756" mask="url(#a)">
<tspan x="176.0616" y="70.7072" fill="#546A7B">1 month</tspan>
</text>
<text fill="none" font-family="ProximaNova-Regular, Proxima Nova" font-size="5.4756" mask="url(#a)">
<tspan x="233.859486" y="70.7072" fill="#546A7B">21-08-2017</tspan>
</text>
<text fill="none" font-family="ProximaNova-Regular, Proxima Nova" font-size="5.4756" mask="url(#a)">
<tspan x="277.441305" y="70.7072" fill="#546A7B">22-09-2017</tspan>
</text>
<text fill="none" font-family="ProximaNova-Semibold, Proxima Nova" font-size="5.4756" font-weight="500" letter-spacing=".12636" mask="url(#a)">
<tspan x="13.4784" y="11.7392" fill="#7F6CA6">Memberships expiring today</tspan>
</text>
</g>
</g>
<g mask="url(#b)">
<g transform="translate(110 130)">
<use fill="black" filter="url(#aa)" xlink:href="#i"/>
<use fill="#FFFFFF" fill-opacity=".99" fill-rule="evenodd" xlink:href="#i"/>
<g transform="translate(.4212 6.9156)" fill-rule="evenodd" font-family="ProximaNova-Semibold, Proxima Nova" font-size="5.4756" font-weight="500" letter-spacing=".12636">
<text fill="#7F6CA6">
<tspan x="13.0572" y="5">Membership summary</tspan>
</text>
</g>
<g transform="translate(258 18)" fill-rule="evenodd">
<use fill="#00B898" fill-opacity=".02" fill-rule="evenodd" xlink:href="#m"/>
<rect x=".25" y=".25" width="42.631" height="66.892" rx="2" stroke="#1CBDA5" stroke-opacity=".30588" stroke-width=".5"/>
<g transform="translate(8.087 16.848)">
<text fill="#546A7B" font-family="OpenSans-Light, Open Sans" font-size="12.131" font-weight="300">
<tspan x="0" y="18.72832">4</tspan>
</text>
<text fill="#7E95A3" font-family="OpenSans, Open Sans" font-size="4.0435" letter-spacing=".16848" line-spacing="6.06528">
<tspan x="0" y="4">New</tspan>
</text>
</g>
<g transform="translate(8.087 41.783)">
<text fill="#546A7B" font-family="OpenSans-Light, Open Sans" font-size="12.131" font-weight="300">
<tspan x="0" y="18.72832">12</tspan>
</text>
<text fill="#7E95A3" font-family="OpenSans, Open Sans" font-size="4.0435" letter-spacing=".16848" line-spacing="6.06528">
<tspan x="0" y="4">Renewals</tspan>
</text>
</g>
<text fill="#00B898" font-family="OpenSans-Semibold, Open Sans" font-size="4.0435" font-weight="500" letter-spacing=".16848" line-spacing="6.06528">
<tspan x="8.08704" y="9.39136">This month</tspan>
</text>
</g>
<g transform="translate(13 24)" fill-rule="evenodd">
<text fill="#7E95A3" font-family="ProximaNova-Regular, Proxima Nova" font-size="4.6332">
<tspan x="0.4784" y="45.6248">10</tspan>
</text>
<text fill="#7E95A3" font-family="ProximaNova-Regular, Proxima Nova" font-size="4.6332">
<tspan x="0.4784" y="28.7768">20</tspan>
</text>
<text fill="#7E95A3" font-family="ProximaNova-Regular, Proxima Nova" font-size="4.6332">
<tspan x="0.4784" y="11.9288">30</tspan>
</text>
<path d="m227.93 56.367h-216.92" opacity=".3" stroke="#979797" stroke-linecap="square" stroke-width=".585"/>
<g transform="translate(7.2176 10.029)" opacity=".3" stroke="#979797" stroke-linecap="square" stroke-width=".585">
<path d="m-4.7953e-13 18.117h3.3696"/>
<path d="m-4.7953e-13 1.2692h3.3696"/>
<path d="m-4.7953e-13 34.965h3.3696"/>
</g>
<text fill="#7E95A3" font-family="ProximaNova-Regular, Proxima Nova" font-size="4.6332">
<tspan x="21.1172" y="62.894">January</tspan>
</text>
<path transform="translate(42.598 57.209) rotate(-90) translate(-42.598 -57.209)" d="m41.967 57.209h1.2636" opacity=".3" stroke="#979797" stroke-linecap="square" stroke-width=".585"/>
<text fill="#7E95A3" font-family="ProximaNova-Regular, Proxima Nova" font-size="4.6332">
<tspan x="47.6528" y="62.894">February</tspan>
</text>
<path transform="translate(69.555 57.209) rotate(-90) translate(-69.555 -57.209)" d="m68.923 57.209h1.2636" opacity=".3" stroke="#979797" stroke-linecap="square" stroke-width=".585"/>
<text fill="#7E95A3" font-family="ProximaNova-Regular, Proxima Nova" font-size="4.6332">
<tspan x="131.8928" y="62.894">May</tspan>
</text>
<path transform="translate(148.74 57.209) rotate(-90) translate(-148.74 -57.209)" d="m148.11 57.209h1.2636" opacity=".3" stroke="#979797" stroke-linecap="square" stroke-width=".585"/>
<text fill="#7E95A3" font-family="ProximaNova-Regular, Proxima Nova" font-size="4.6332">
<tspan x="156.7436" y="62.894">June</tspan>
</text>
<path transform="translate(175.7 57.209) rotate(-90) translate(-175.7 -57.209)" d="m175.07 57.209h1.2636" opacity=".3" stroke="#979797" stroke-linecap="square" stroke-width=".585"/>
<text fill="#7E95A3" font-family="ProximaNova-Regular, Proxima Nova" font-size="4.6332">
<tspan x="184.5428" y="62.894">July</tspan>
</text>
<path transform="translate(202.65 57.209) rotate(-90) translate(-202.65 -57.209)" d="m202.02 57.209h1.2636" opacity=".3" stroke="#979797" stroke-linecap="square" stroke-width=".585"/>
<text fill="#7E95A3" font-family="ProximaNova-Regular, Proxima Nova" font-size="4.6332">
<tspan x="208.5512" y="62.894">August</tspan>
</text>
<text fill="#7E95A3" font-family="ProximaNova-Regular, Proxima Nova" font-size="4.6332">
<tspan x="76.2944" y="62.894">March</tspan>
</text>
<path transform="translate(95.67 57.209) rotate(-90) translate(-95.67 -57.209)" d="m95.038 57.209h1.2636" opacity=".3" stroke="#979797" stroke-linecap="square" stroke-width=".585"/>
<text fill="#7E95A3" font-family="ProximaNova-Regular, Proxima Nova" font-size="4.6332">
<tspan x="103.6724" y="62.894">April</tspan>
</text>
<path transform="translate(121.78 57.209) rotate(-90) translate(-121.78 -57.209)" d="m121.15 57.209h1.2636" opacity=".3" stroke="#979797" stroke-linecap="square" stroke-width=".585"/>
<path d="m11.008 0.78691v55.159" opacity=".3" stroke="#979797" stroke-linecap="square" stroke-width=".585"/>
<g transform="translate(22 9)" fill="#24C7AE">
<path transform="translate(2.95 27) translate(-2.95 -27)" d="m1 7h3.9c0.55228 0 1 0.44772 1 1v39h-5.9v-39h-1.1102e-16c-6.7635e-17 -0.55228 0.44772-1 1-1z"/>
<path transform="translate(28.948 23.5) translate(-28.948 -23.5)" d="m27 1.1369e-13h3.8968c0.55228 3.8907e-16 1 0.44772 1 1v46h-5.8968v-46c0-0.55228 0.44772-1 1-1z"/>
<path transform="translate(108.63 39.785) translate(-108.63 -39.785)" d="m106.68 32.204h3.8968c0.55228 0 1 0.44772 1 1v14.163h-5.8968v-14.163c0-0.55228 0.44772-1 1-1z"/>
<path transform="translate(135.59 23.867) translate(-135.59 -23.867)" d="m133.64 0.3668h3.8968c0.55228 0 1 0.44772 1 1v46h-5.8968v-46c0-0.55228 0.44772-1 1-1z"/>
<path transform="translate(162.54 31.572) translate(-162.54 -31.572)" d="m160.59 15.777h3.8968c0.55228 0 1 0.44772 1 1v30.59h-5.8968v-30.59c0-0.55228 0.44772-1 1-1z"/>
<path transform="translate(188.66 39.785) translate(-188.66 -39.785)" d="m186.71 32.204h3.8968c0.55228 0 1 0.44772 1 1v14.163h-5.8968v-14.163c0-0.55228 0.44772-1 1-1z"/>
<path transform="translate(55.558 31.572) translate(-55.558 -31.572)" d="m53.61 15.777h3.8968c0.55228 0 1 0.44772 1 1v30.59h-5.8968v-30.59c0-0.55228 0.44772-1 1-1z"/>
<path transform="translate(81.672 36.732) translate(-81.672 -36.732)" d="m79.724 26.096h3.8968c0.55228 0 1 0.44772 1 1v20.271h-5.8968v-20.271c0-0.55228 0.44772-1 1-1z"/>
</g>
<g transform="translate(32 16)" fill="#0072A3">
<path transform="translate(2.9484 31) translate(-2.9484 -31)" d="m1 22h3.8968c0.55228 0 1 0.44772 1 1v17h-5.8968v-17c-6.7635e-17 -0.55228 0.44772-1 1-1z"/>
<path transform="translate(29.948 28) translate(-29.948 -28)" d="m28 16h3.8968c0.55228 0 1 0.44772 1 1v23h-5.8968v-23c0-0.55228 0.44772-1 1-1z"/>
<path transform="translate(108.74 22.367) translate(-108.74 -22.367)" d="m106.79 4.3668h3.8968c0.55228 0 1 0.44772 1 1v35h-5.8968v-35c0-0.55228 0.44772-1 1-1z"/>
<path transform="translate(135.69 27.072) translate(-135.69 -27.072)" d="m133.75 13.777h3.8968c0.55228 0 1 0.44772 1 1v25.59h-5.8968v-25.59c0-0.55228 0.44772-1 1-1z"/>
<path transform="translate(162.65 37.867) translate(-162.65 -37.867)" d="m160.7 35.367h3.8968c0.55228 0 1 0.44772 1 1v4h-5.8968v-4c0-0.55228 0.44772-1 1-1z"/>
<path transform="translate(188.77 20.367) translate(-188.77 -20.367)" d="m186.82 0.3668h3.8968c0.55228 0 1 0.44772 1 1v39h-5.8968v-39c0-0.55228 0.44772-1 1-1z"/>
<path transform="translate(55.667 35.207) translate(-55.667 -35.207)" d="m53.718 30.047h3.8968c0.55228 0 1 0.44772 1 1v9.3194h-5.8968v-9.3194c0-0.55228 0.44772-1 1-1z"/>
<path transform="translate(81.781 27.072) translate(-81.781 -27.072)" d="m79.833 13.777h3.8968c0.55228 0 1 0.44772 1 1v25.59h-5.8968v-25.59c0-0.55228 0.44772-1 1-1z"/>
</g>
</g>
</g>
</g>
<g mask="url(#b)">
<g transform="translate(45 10)">
<use fill="black" filter="url(#z)" xlink:href="#h"/>
<use fill="#FFFFFF" fill-opacity=".99" fill-rule="evenodd" xlink:href="#h"/>
<text fill="none" font-family="ProximaNova-Regular, Proxima Nova" font-size="5.5">
<tspan x="35.4" y="11.48" fill="#7E95A3">Search by Name, Phone no. or Email</tspan>
</text>
<g transform="translate(354 4)" fill="#7E95A3" fill-rule="nonzero" opacity=".8">
<ellipse cx="6" cy="5.1444" rx="2.4" ry="2.4476"/>
<path d="m6 0c-3.3137 0-6 2.6863-6 6s2.6863 6 6 6 6-2.6863 6-6-2.6863-6-6-6zm3.6825 9.6676c-0.78587-0.76333-2.1415-1.2676-3.6825-1.2676s-2.8967 0.50427-3.6825 1.2676c-0.9372-0.94107-1.5175-2.2377-1.5175-3.6676 0-2.8673 2.3327-5.2 5.2-5.2s5.2 2.3327 5.2 5.2c0 1.4299-0.58027 2.7265-1.5175 3.6676z"/>
</g>
<rect x="371.96" y="3.24" width="1" height="13.68" fill="#DFE3E9" fill-rule="evenodd"/>
<g transform="translate(381 4)" fill="none" fill-rule="evenodd" opacity=".8">
<text fill="#546A7B" font-family="ProximaNova-Semibold, Proxima Nova" font-size="5.184" font-weight="500">
<tspan x="1.13686838e-13" y="5">Fitness Arena</tspan>
</text>
<g transform="translate(7 7)">
<g transform="translate(21.06)">
<rect width="4.212" height="4.212"/>
<path d="m0.98909 1.8386 0.87841 0.96126c0.12071 0.13209 0.32565 0.14132 0.45774 0.020616 0.0071778-0.0065591 0.014057-0.013438 0.020616-0.020616l0.87841-0.96126c0.12071-0.13209 0.11148-0.33703-0.020616-0.45774-0.059712-0.054565-0.13767-0.084822-0.21856-0.084822h-1.7568c-0.17894 0-0.324 0.14506-0.324 0.324 0 0.080888 0.030256 0.15885 0.084822 0.21856z" fill="#FFBC58"/>
</g>
<text fill="#7E95A3" font-family="ProximaNova-Regular, Proxima Nova" font-size="3.564">
<tspan x="0" y="3">Peddar Road</tspan>
</text>
</g>
</g>
<g transform="translate(333 4)" fill="none" fill-rule="evenodd" opacity=".8">
<circle cx="6.318" cy="6.318" r="5.616" fill="#fff" fill-opacity=".96"/>
<path d="m7.02 9.126c0 0.3877-0.3143 0.702-0.702 0.702s-0.702-0.3143-0.702-0.702h1.404zm-0.702-6.318c0.19385 0 0.351 0.15715 0.351 0.351v0.37908c0.99684 0.16848 1.755 1.0354 1.755 2.0779v2.106l1.053 1.053h-6.318l1.053-1.053v-2.106c0-1.0425 0.75816-1.9094 1.755-2.0779v-0.37908c0-0.19385 0.15715-0.351 0.351-0.351z" fill="#DB3186" fill-rule="nonzero"/>
<g transform="translate(7.02 .351)">
<use fill="#FFFFFF" fill-rule="evenodd" xlink:href="#l"/>
<circle cx="2.808" cy="2.808" r="3.058" stroke="#DB3186" stroke-width=".5"/>
<text fill="#DB3186" font-family="ProximaNova-Semibold, Proxima Nova" font-size="2.916" font-weight="500">
<tspan x="0.8775" y="4.21966667">99</tspan>
</text>
</g>
</g>
<g transform="translate(285 4)" fill="none" fill-rule="evenodd" opacity=".8">
<use fill="#FFFFFF" fill-opacity=".96" fill-rule="evenodd" xlink:href="#k"/>
<rect x=".25" y=".25" width="40.972" height="11.164" rx="5.582" stroke="#7E95A3" stroke-width=".5"/>
<text fill="#546A7B" font-family="ProximaNova-Semibold, Proxima Nova" font-size="4.212" font-weight="500" letter-spacing=".0972">
<tspan x="8.82899999" y="7.24">Add contact</tspan>
</text>
</g>
</g>
</g>
<g mask="url(#b)">
<g transform="translate(45 10)">
<polygon points="0.096009 0.11362 0.096009 333 28.608 333 28.608 185.56 28.608 0.11362" fill="#5D438A" fill-rule="evenodd"/>
<rect transform="translate(14.352 91.722) scale(-1 1) translate(-14.352 -91.722)" x=".096009" y="82.218" width="28.512" height="19.008" fill="#D63680" fill-rule="evenodd"/>
<g transform="translate(9.6 191.78)" fill="none" fill-rule="evenodd">
<path d="m4.7528 6.1344c-0.70825 0-1.2824-0.57415-1.2824-1.2824 0-0.70825 0.57415-1.2824 1.2824-1.2824s1.2824 0.57415 1.2824 1.2824c0 0.70825-0.57415 1.2824-1.2824 1.2824zm2.7223-0.92699c0.014656-0.11725 0.025648-0.23449 0.025648-0.35541 0-0.12091-0.010992-0.24182-0.025648-0.3664l0.7731-0.59723c0.069616-0.05496 0.087936-0.15389 0.043968-0.23449l-0.7328-1.2677c-0.043968-0.080608-0.1429-0.11358-0.2235-0.080608l-0.91233 0.3664c-0.19053-0.1429-0.38838-0.26747-0.61921-0.35907l-0.13557-0.97096c-0.014656-0.087936-0.0916-0.15389-0.1832-0.15389h-1.4656c-0.0916 0-0.16854 0.065952-0.1832 0.15389l-0.13557 0.97096c-0.23083 0.0916-0.42869 0.21617-0.61921 0.35907l-0.91233-0.3664c-0.080608-0.032976-0.17954 0-0.2235 0.080608l-0.7328 1.2677c-0.047632 0.080608-0.025648 0.17954 0.043968 0.23449l0.7731 0.59723c-0.014656 0.12458-0.025648 0.24549-0.025648 0.3664 0 0.12091 0.010992 0.23816 0.025648 0.35541l-0.7731 0.60822c-0.069616 0.05496-0.0916 0.15389-0.043968 0.23449l0.7328 1.2677c0.043968 0.080608 0.1429 0.10992 0.2235 0.080608l0.91233-0.37006c0.19053 0.14656 0.38838 0.27113 0.61921 0.36273l0.13557 0.97096c0.014656 0.087936 0.0916 0.15389 0.1832 0.15389h1.4656c0.0916 0 0.16854-0.065952 0.1832-0.15389l0.13557-0.97096c0.23083-0.095264 0.42869-0.21617 0.61921-0.36273l0.91233 0.37006c0.080608 0.029312 0.17954 0 0.2235-0.080608l0.7328-1.2677c0.043968-0.080608 0.025648-0.17954-0.043968-0.23449l-0.7731-0.60822z" fill="#9589AB" fill-rule="nonzero"/>
</g>
<g transform="translate(9.6 172.77)" fill="none" fill-rule="evenodd">
<path d="m3.8407 1.188c-0.84186 0-1.5243 0.68247-1.5243 1.5243 0 0.84186 0.68247 1.5243 1.5243 1.5243s1.5243-0.68247 1.5243-1.5243c0-0.84186-0.68247-1.5243-1.5243-1.5243zm0 3.8108c-1.0175 0-3.0487 0.50684-3.0487 1.5243v0.76216h4.2224c-0.019054-0.12576-0.030487-0.25151-0.030487-0.38108 0-0.57162 0.19054-1.1432 0.53733-1.6005-0.58306-0.19816-1.2309-0.30487-1.6806-0.30487zm3.4297 0c-0.049541 0-0.09146 0.034297-0.099081 0.080027l-0.072406 0.50303c-0.11432 0.049541-0.22484 0.11051-0.32392 0.17911l-0.47254-0.19054c-0.041919 0-0.09146 0-0.11814 0.049541l-0.38108 0.65927c-0.022865 0.041919-0.015243 0.09146 0.022865 0.12195l0.40395 0.31249c-0.0076216 0.064784-0.011432 0.12576-0.011432 0.19054s0.0038108 0.12576 0.011432 0.19054l-0.40395 0.31249c-0.034297 0.030487-0.04573 0.080027-0.022865 0.12195l0.38108 0.65927c0.022865 0.049541 0.072406 0.049541 0.11814 0.049541l0.47254-0.19054c0.099081 0.068595 0.20578 0.13338 0.32392 0.17911l0.072406 0.50303c0.0076216 0.04573 0.04573 0.080027 0.099081 0.080027h0.76216c0.041919 0 0.083838-0.034297 0.09146-0.080027l0.072406-0.50303c0.11432-0.049541 0.21722-0.11051 0.32011-0.17911l0.46873 0.19054c0.049541 0 0.099081 0 0.12576-0.049541l0.38108-0.65927c0.022865-0.041919 0.011432-0.09146-0.022865-0.12195l-0.40776-0.31249c0.0076216-0.064784 0.015243-0.12576 0.015243-0.19054s-0.0038108-0.12576-0.015243-0.19054l0.40395-0.31249c0.034297-0.030487 0.04573-0.080027 0.022865-0.12195l-0.38108-0.65927c-0.022865-0.049541-0.072406-0.049541-0.12195-0.049541l-0.46873 0.19054c-0.10289-0.068595-0.20578-0.13338-0.32392-0.17911l-0.072406-0.50303c-0.0038108-0.04573-0.04573-0.080027-0.087649-0.080027h-0.76216zm0.38108 1.3338c0.3157 0 0.57162 0.25592 0.57162 0.57162s-0.25592 0.57162-0.57162 0.57162c-0.32011 0-0.57162-0.25533-0.57162-0.57162 0-0.3157 0.25592-0.57162 0.57162-0.57162z" fill="#9589AB" fill-rule="nonzero"/>
</g>
<g transform="translate(9.6 106.24)" fill="none" fill-opacity=".35" fill-rule="evenodd">
<path d="m4.851 1.584c0.90216 0 1.6335 0.73134 1.6335 1.6335s-0.73134 1.6335-1.6335 1.6335-1.6335-0.73134-1.6335-1.6335 0.73134-1.6335 1.6335-1.6335zm0 4.0838c1.805 0 3.267 0.73099 3.267 1.6335v0.81675h-6.534v-0.81675c0-0.90251 1.462-1.6335 3.267-1.6335z" fill="#fff" fill-rule="nonzero"/>
</g>
<g transform="translate(9.6 125.25)" fill="none" fill-opacity=".35" fill-rule="evenodd">
<g transform="translate(1.3068 1.98)" fill="#fff" fill-rule="nonzero">
<path d="m0.46247 1.3965c-0.25494 0-0.46247 0.2073-0.46247 0.46247v1.8499c0 0.25518 0.20753 0.46247 0.46247 0.46247 0.25495 0 0.46247-0.2073 0.46247-0.46247v-1.8499c1.3851e-5 -0.25518-0.20752-0.46247-0.46247-0.46247z"/>
<path d="m6.6288 0.0090303c-0.25518 0-0.46247 0.2073-0.46247 0.46247v4.6247c0 0.25518 0.2073 0.46247 0.46247 0.46247s0.46247-0.2073 0.46247-0.46247v-4.6247c0-0.25519-0.2073-0.46248-0.46247-0.46248z"/>
<path d="m1.3874 1.7796v2.0086l0.46247 0.13874v0.40924c0 0.30847 0.19872 0.57538 0.49453 0.66389l1.3874 0.41642c0.205 0.062741 0.43163 0.027312 0.61331-0.10795 0.17558-0.13043 0.27655-0.33088 0.27875-0.54939l1.0799 0.27772v-4.506l-4.3164 1.2487zm2.7748 2.9725c0 0.15004-0.14267 0.26645-0.29764 0.22175l-1.3874-0.41642c-0.098461-0.029819-0.16484-0.11878-0.16484-0.2213v-0.27051l1.8499 0.55498v0.13149h1.385e-5z"/>
</g>
</g>
<g transform="translate(9.6 144.26)" fill="none" fill-rule="evenodd">
<g transform="translate(1.485 .792)" fill="#9589AB" fill-rule="nonzero">
<path d="m5.7986 0.72507h-1.5152c-0.14845-0.42055-0.54672-0.72507-1.0192-0.72507s-0.87075 0.30453-1.0192 0.72507h-1.5152c-0.40007 0-0.72412 0.32446-0.72412 0.72507v5.0755c0 0.40059 0.32404 0.72507 0.72412 0.72507h5.0688c0.40007 0 0.72412-0.32446 0.72412-0.72507v-5.0755c-1.697e-5 -0.40059-0.32405-0.72506-0.72412-0.72506zm-2.5344 0c0.19913 0 0.36205 0.16132 0.36205 0.36253 0 0.20121-0.16293 0.36253-0.36205 0.36253s-0.36205-0.16132-0.36205-0.36253c0-0.20121 0.16293-0.36253 0.36205-0.36253zm0.72412 5.0755h-2.5344v-0.72507h2.5344v0.72507zm1.0862-1.4501h-3.6206v-0.72507h3.6206v0.72507zm0-1.4501h-3.6206v-0.72507h3.6206v0.72507z"/>
</g>
</g>
<g transform="translate(9.6 87.234)" fill="none" fill-opacity=".99" fill-rule="evenodd">
<polygon points="8.316 7.9992 1.188 7.9992 1.188 1.584 1.9008 1.584 1.9008 7.2864 2.6136 7.2864 2.6136 4.0788 4.0392 4.0788 4.0392 7.2864 4.752 7.2864 4.752 2.6532 6.1776 2.6532 6.1776 7.2864 6.8904 7.2864 6.8904 5.5044 8.316 5.5044" fill="#fff" fill-rule="nonzero"/>
</g>
<g transform="translate(9.6 58.722)" fill="none" fill-opacity=".35" fill-rule="evenodd">
<path d="m2.6136 1.188h2.8512l2.1384 2.1384v4.2768c0 0.39367-0.31913 0.7128-0.7128 0.7128h-4.2768c-0.39367 0-0.7128-0.31913-0.7128-0.7128v-5.7024c0-0.3956 0.3172-0.7128 0.7128-0.7128zm1.0906 4.6154c-0.40451-0.10514-0.5346-0.21384-0.5346-0.38313 0-0.19424 0.17998-0.32967 0.48114-0.32967 0.3172 0 0.43481 0.15147 0.4455 0.37422h0.39382c-0.012474-0.3065-0.19958-0.58806-0.57202-0.67894v-0.39026h-0.5346v0.38491c-0.34571 0.074844-0.6237 0.29938-0.6237 0.6433 0 0.41164 0.34036 0.61657 0.83754 0.73597 0.4455 0.10692 0.5346 0.26374 0.5346 0.42946 0 0.12296-0.087318 0.31898-0.48114 0.31898-0.36709 0-0.51143-0.16394-0.5346-0.37422h-0.38848c0.021384 0.39026 0.31363 0.60944 0.65578 0.68251v0.38669h0.5346v-0.38313c0.34749-0.06237 0.6237-0.2673 0.6237-0.63261 0-0.50609-0.43303-0.67716-0.83754-0.78408zm1.4042-2.1206h1.9602l-1.9602-1.9602v1.9602z" fill="#fff" fill-rule="nonzero"/>
</g>
<use fill="black" filter="url(#x)" xlink:href="#g"/>
<use fill="#493173" fill-rule="evenodd" xlink:href="#g"/>
<g transform="translate(9.6 39.714)" fill="none" fill-opacity=".35" fill-rule="evenodd">
<path d="m7.0488 7.0488c-0.40659 0-0.7326 0.32601-0.7326 0.7326 0 0.4046 0.328 0.7326 0.7326 0.7326s0.7326-0.328 0.7326-0.7326c0-0.40659-0.32967-0.7326-0.7326-0.7326zm-5.8608-5.8608v0.7326h0.7326l1.3187 2.7802-0.49817 0.89744c-0.054945 0.10256-0.087912 0.22344-0.087912 0.35165 0 0.4046 0.328 0.7326 0.7326 0.7326h4.3956v-0.7326h-4.2418c-0.050575 0-0.091575-0.041-0.091575-0.091575 0-0.018315 0.003663-0.032967 0.010989-0.043956l0.32967-0.59707h2.7289c0.27472 0 0.51648-0.15385 0.64102-0.37729l1.3114-2.37c0.025641-0.058608 0.043956-0.12088 0.043956-0.18315 0-0.2023-0.164-0.3663-0.3663-0.3663h-5.4176l-0.34432-0.7326h-1.1978zm2.1978 5.8608c-0.40659 0-0.7326 0.32601-0.7326 0.7326 0 0.4046 0.328 0.7326 0.7326 0.7326s0.7326-0.328 0.7326-0.7326c0-0.40659-0.32967-0.7326-0.7326-0.7326z" fill="#fff" fill-rule="nonzero"/>
</g>
<g transform="translate(8.016 4.8656)" fill="none" fill-rule="evenodd">
<path d="m3.579 7.1918c-0.051359 0.14164 0.033201 0.25868 0.18804 0.26137l0.97653 0.017075c0.23283 0.0040711 0.35585 0.17898 0.27529 0.38927l-1.3566 3.5415c-0.053962 0.14091-0.016252 0.16208 0.083924 0.047652l4.9589-5.663c0.10033-0.11458 0.056262-0.20748-0.098603-0.20748h-1.8279c-0.23219 0-0.30516-0.14337-0.16161-0.322l3.4898-4.3427c0.095153-0.11838 0.062769-0.15728-0.07545-0.0852l-4.8631 2.5357c-0.1368 0.071318-0.28909 0.24324-0.34072 0.38561l-1.2484 3.4422z" fill="#fff"/>
</g>
</g>
</g>
</g>
</g>
</g>
</g>
</g>
</svg>
