<?xml version="1.0" encoding="UTF-8"?>
<svg width="407px" height="148px" viewBox="0 0 407 148" version="1.1" xmlns="http://www.w3.org/2000/svg" xmlns:xlink="http://www.w3.org/1999/xlink">
    <!-- Generator: Sketch 47.1 (45422) - http://www.bohemiancoding.com/sketch -->
    <title>Lead transfer@1x</title>
    <desc>Created with Sketch.</desc>
    <defs>
        <rect id="path-1" x="0" y="0" width="352.8" height="93.6" rx="7.2"></rect>
        <filter x="-13.5%" y="-35.8%" width="126.9%" height="201.5%" filterUnits="objectBoundingBox" id="filter-2">
            <feOffset dx="0" dy="14" in="SourceAlpha" result="shadowOffsetOuter1"></feOffset>
            <feGaussianBlur stdDeviation="13.5" in="shadowOffsetOuter1" result="shadowBlurOuter1"></feGaussianBlur>
            <feColorMatrix values="0 0 0 0 0   0 0 0 0 0   0 0 0 0 0  0 0 0 0.489158741 0" type="matrix" in="shadowBlurOuter1"></feColorMatrix>
        </filter>
        <path d="M0,14.3755461 C0,6.43555412 6.43619155,0 14.3753143,0 C22.3149006,0 28.7510922,6.43561207 28.7510922,14.3755461 C28.7510922,22.3146688 22.3149006,28.7508604 14.3753143,28.7508604 C6.43619155,28.7508604 0,22.3146688 0,14.3755461 Z" id="path-3"></path>
    </defs>
    <g id="Welcome" stroke="none" stroke-width="1" fill="none" fill-rule="evenodd">
        <g id="Landing-page-OG" transform="translate(-922.000000, -2215.000000)">
            <g id="Panel-3" transform="translate(194.000000, 2155.000000)">
                <g id="Lead-transfer" transform="translate(755.000000, 73.000000)">
                    <g id="Base-Copy-2">
                        <use fill="black" fill-opacity="1" filter="url(#filter-2)" xlink:href="#path-1"></use>
                        <use fill="#FFFFFF" fill-rule="evenodd" xlink:href="#path-1"></use>
                    </g>
                    <path d="M82.3824,31 L82.3824,29.9344 L77.9184,29.9344 L77.9184,21.3952 L76.7232,21.3952 L76.7232,31 L82.3824,31 Z M86.8608,31.1728 C84.8016,31.1728 83.3184,29.6896 83.3184,27.5152 C83.3184,25.4992 84.7584,23.872 86.7456,23.872 C88.848,23.872 90.0864,25.5136 90.0864,27.6016 L90.0864,27.8752 L84.456,27.8752 C84.5424,29.1856 85.464,30.28 86.9616,30.28 C87.7536,30.28 88.56,29.9632 89.1072,29.4016 L89.6256,30.1072 C88.9344,30.7984 87.9984,31.1728 86.8608,31.1728 Z M89.0208,27.0832 C89.0064,26.0464 88.3152,24.7648 86.7312,24.7648 C85.248,24.7648 84.5136,26.0176 84.456,27.0832 L89.0208,27.0832 Z M97.2576,31 L96.1776,31 L96.1776,30.208 C95.6016,30.8416 94.8096,31.1728 93.8736,31.1728 C92.6928,31.1728 91.44,30.3808 91.44,28.8688 C91.44,27.3136 92.6928,26.5792 93.8736,26.5792 C94.824,26.5792 95.616,26.8816 96.1776,27.5296 L96.1776,26.2768 C96.1776,25.3408 95.4288,24.808 94.4208,24.808 C93.5856,24.808 92.9088,25.1104 92.2896,25.7728 L91.7856,25.024 C92.5344,24.2464 93.4272,23.872 94.5648,23.872 C96.0336,23.872 97.2576,24.5344 97.2576,26.2192 L97.2576,31 Z M94.2624,30.3952 C95.0256,30.3952 95.76,30.1072 96.1776,29.5312 L96.1776,28.2208 C95.76,27.6448 95.0256,27.3568 94.2624,27.3568 C93.2544,27.3568 92.5488,27.9904 92.5488,28.8832 C92.5488,29.7616 93.2544,30.3952 94.2624,30.3952 Z M105.5376,31 L104.4576,31 L104.4576,29.9632 C103.9392,30.6688 103.0896,31.1728 102.1104,31.1728 C100.296,31.1728 99.0144,29.7904 99.0144,27.5296 C99.0144,25.312 100.2816,23.872 102.1104,23.872 C103.0464,23.872 103.896,24.3328 104.4576,25.096 L104.4576,21.3952 L105.5376,21.3952 L105.5376,31 Z M102.3696,30.208 C103.2336,30.208 104.0688,29.7184 104.4576,29.1136 L104.4576,25.96 C104.0688,25.3552 103.2336,24.8368 102.3696,24.8368 C100.9728,24.8368 100.1376,25.9888 100.1376,27.5296 C100.1376,29.0704 100.9728,30.208 102.3696,30.208 Z M113.1696,31.1728 C113.8032,31.1728 114.192,30.9856 114.4656,30.7264 L114.1488,29.92 C114.0048,30.0784 113.7168,30.208 113.4144,30.208 C112.9392,30.208 112.7088,29.8336 112.7088,29.3152 L112.7088,24.9952 L114.12,24.9952 L114.12,24.0448 L112.7088,24.0448 L112.7088,22.144 L111.6288,22.144 L111.6288,24.0448 L110.4768,24.0448 L110.4768,24.9952 L111.6288,24.9952 L111.6288,29.5456 C111.6288,30.5824 112.1472,31.1728 113.1696,31.1728 Z M116.7264,31 L116.7264,26.0752 C117.0432,25.5136 117.9504,24.9664 118.6128,24.9664 C118.7856,24.9664 118.9152,24.9808 119.0448,25.0096 L119.0448,23.9008 C118.0944,23.9008 117.288,24.4336 116.7264,25.168 L116.7264,24.0448 L115.6464,24.0448 L115.6464,31 L116.7264,31 Z M125.8272,31 L124.7472,31 L124.7472,30.208 C124.1712,30.8416 123.3792,31.1728 122.4432,31.1728 C121.2624,31.1728 120.0096,30.3808 120.0096,28.8688 C120.0096,27.3136 121.2624,26.5792 122.4432,26.5792 C123.3936,26.5792 124.1856,26.8816 124.7472,27.5296 L124.7472,26.2768 C124.7472,25.3408 123.9984,24.808 122.9904,24.808 C122.1552,24.808 121.4784,25.1104 120.8592,25.7728 L120.3552,25.024 C121.104,24.2464 121.9968,23.872 123.1344,23.872 C124.6032,23.872 125.8272,24.5344 125.8272,26.2192 L125.8272,31 Z M122.832,30.3952 C123.5952,30.3952 124.3296,30.1072 124.7472,29.5312 L124.7472,28.2208 C124.3296,27.6448 123.5952,27.3568 122.832,27.3568 C121.824,27.3568 121.1184,27.9904 121.1184,28.8832 C121.1184,29.7616 121.824,30.3952 122.832,30.3952 Z M133.7616,31 L133.7616,26.1184 C133.7616,24.6064 132.9984,23.872 131.544,23.872 C130.5072,23.872 129.5568,24.4768 129.0672,25.0528 L129.0672,24.0448 L127.9872,24.0448 L127.9872,31 L129.0672,31 L129.0672,25.9168 C129.4704,25.3552 130.2768,24.8368 131.1264,24.8368 C132.0624,24.8368 132.6816,25.2256 132.6816,26.4496 L132.6816,31 L133.7616,31 Z M138.1248,31.1728 C139.9248,31.1728 140.8608,30.2368 140.8608,29.0704 C140.8608,26.3632 136.5552,27.3712 136.5552,25.8448 C136.5552,25.2256 137.1456,24.7504 138.096,24.7504 C138.9888,24.7504 139.752,25.1248 140.1696,25.6288 L140.6736,24.88 C140.112,24.3184 139.2768,23.872 138.096,23.872 C136.44,23.872 135.504,24.7936 135.504,25.8736 C135.504,28.4512 139.8096,27.4144 139.8096,29.0992 C139.8096,29.7904 139.2336,30.2944 138.168,30.2944 C137.2176,30.2944 136.3392,29.8336 135.8784,29.3008 L135.3168,30.0784 C136.0224,30.8272 136.9872,31.1728 138.1248,31.1728 Z M144,31 L142.92,31 L142.92,24.9952 L141.768,24.9952 L141.768,24.0448 L142.92,24.0448 L142.92,23.512 C142.92,22.0864 143.6976,21.2512 144.936,21.2512 C145.4832,21.2512 145.9728,21.3808 146.4048,21.784 L145.9584,22.4896 C145.728,22.288 145.4544,22.144 145.0944,22.144 C144.3888,22.144 144,22.6336 144,23.512 L144,24.0448 L145.4112,24.0448 L145.4112,24.9952 L144,24.9952 L144,31 Z M149.832,31.1728 C147.7728,31.1728 146.2896,29.6896 146.2896,27.5152 C146.2896,25.4992 147.7296,23.872 149.7168,23.872 C151.8192,23.872 153.0576,25.5136 153.0576,27.6016 L153.0576,27.8752 L147.4272,27.8752 C147.5136,29.1856 148.4352,30.28 149.9328,30.28 C150.7248,30.28 151.5312,29.9632 152.0784,29.4016 L152.5968,30.1072 C151.9056,30.7984 150.9696,31.1728 149.832,31.1728 Z M151.992,27.0832 C151.9776,26.0464 151.2864,24.7648 149.7024,24.7648 C148.2192,24.7648 147.4848,26.0176 147.4272,27.0832 L151.992,27.0832 Z M155.88,31 L155.88,26.0752 C156.1968,25.5136 157.104,24.9664 157.7664,24.9664 C157.9392,24.9664 158.0688,24.9808 158.1984,25.0096 L158.1984,23.9008 C157.248,23.9008 156.4416,24.4336 155.88,25.168 L155.88,24.0448 L154.8,24.0448 L154.8,31 L155.88,31 Z M160.632,31 L160.632,26.0752 C160.9488,25.5136 161.856,24.9664 162.5184,24.9664 C162.6912,24.9664 162.8208,24.9808 162.9504,25.0096 L162.9504,23.9008 C162,23.9008 161.1936,24.4336 160.632,25.168 L160.632,24.0448 L159.552,24.0448 L159.552,31 L160.632,31 Z M167.4432,31.1728 C165.384,31.1728 163.9008,29.6896 163.9008,27.5152 C163.9008,25.4992 165.3408,23.872 167.328,23.872 C169.4304,23.872 170.6688,25.5136 170.6688,27.6016 L170.6688,27.8752 L165.0384,27.8752 C165.1248,29.1856 166.0464,30.28 167.544,30.28 C168.336,30.28 169.1424,29.9632 169.6896,29.4016 L170.208,30.1072 C169.5168,30.7984 168.5808,31.1728 167.4432,31.1728 Z M169.6032,27.0832 C169.5888,26.0464 168.8976,24.7648 167.3136,24.7648 C165.8304,24.7648 165.096,26.0176 165.0384,27.0832 L169.6032,27.0832 Z M178.5312,31 L177.4512,31 L177.4512,29.9632 C176.9328,30.6688 176.0832,31.1728 175.104,31.1728 C173.2896,31.1728 172.008,29.7904 172.008,27.5296 C172.008,25.312 173.2752,23.872 175.104,23.872 C176.04,23.872 176.8896,24.3328 177.4512,25.096 L177.4512,21.3952 L178.5312,21.3952 L178.5312,31 Z M175.3632,30.208 C176.2272,30.208 177.0624,29.7184 177.4512,29.1136 L177.4512,25.96 C177.0624,25.3552 176.2272,24.8368 175.3632,24.8368 C173.9664,24.8368 173.1312,25.9888 173.1312,27.5296 C173.1312,29.0704 173.9664,30.208 175.3632,30.208 Z M185.7888,31 L185.7888,24.9952 L187.2,24.9952 L187.2,24.0448 L185.7888,24.0448 L185.7888,23.512 C185.7888,22.6336 186.1776,22.144 186.8832,22.144 C187.2432,22.144 187.5168,22.288 187.7472,22.4896 L188.1936,21.784 C187.7616,21.3808 187.272,21.2512 186.7248,21.2512 C185.4864,21.2512 184.7088,22.0864 184.7088,23.512 L184.7088,24.0448 L183.5568,24.0448 L183.5568,24.9952 L184.7088,24.9952 L184.7088,31 L185.7888,31 Z M189.5616,31 L189.5616,26.0752 C189.8784,25.5136 190.7856,24.9664 191.448,24.9664 C191.6208,24.9664 191.7504,24.9808 191.88,25.0096 L191.88,23.9008 C190.9296,23.9008 190.1232,24.4336 189.5616,25.168 L189.5616,24.0448 L188.4816,24.0448 L188.4816,31 L189.5616,31 Z M196.272,31.1728 C194.1552,31.1728 192.8304,29.5312 192.8304,27.5152 C192.8304,25.4992 194.1552,23.872 196.272,23.872 C198.3888,23.872 199.7136,25.4992 199.7136,27.5152 C199.7136,29.5312 198.3888,31.1728 196.272,31.1728 Z M196.272,30.208 C197.7552,30.208 198.576,28.9408 198.576,27.5152 C198.576,26.104 197.7552,24.8368 196.272,24.8368 C194.7888,24.8368 193.9536,26.104 193.9536,27.5152 C193.9536,28.9408 194.7888,30.208 196.272,30.208 Z M210.9456,31 L210.9456,25.9744 C210.9456,24.5776 210.2688,23.872 209.0016,23.872 C207.9936,23.872 207.0576,24.5344 206.6688,25.168 C206.4672,24.448 205.8624,23.872 204.7968,23.872 C203.7744,23.872 202.8384,24.6064 202.5504,25.0528 L202.5504,24.0448 L201.4704,24.0448 L201.4704,31 L202.5504,31 L202.5504,25.9168 C202.9248,25.3552 203.6736,24.8368 204.3792,24.8368 C205.2864,24.8368 205.6608,25.3984 205.6608,26.2768 L205.6608,31 L206.7408,31 L206.7408,25.9024 C207.1008,25.3552 207.864,24.8368 208.584,24.8368 C209.4768,24.8368 209.8656,25.3984 209.8656,26.2768 L209.8656,31 L210.9456,31 Z M223.8336,31 L222.4224,31 L219.9744,27.184 L218.0592,27.184 L218.0592,31 L216.864,31 L216.864,21.3952 L220.7232,21.3952 C222.48,21.3952 223.7328,22.5184 223.7328,24.2896 C223.7328,26.0176 222.552,26.968 221.2416,27.0832 L223.8336,31 Z M220.5792,26.1328 C221.7168,26.1328 222.4944,25.3696 222.4944,24.2896 C222.4944,23.2096 221.7168,22.4608 220.5792,22.4608 L218.0592,22.4608 L218.0592,26.1328 L220.5792,26.1328 Z M228.1824,31.1728 C226.0656,31.1728 224.7408,29.5312 224.7408,27.5152 C224.7408,25.4992 226.0656,23.872 228.1824,23.872 C230.2992,23.872 231.624,25.4992 231.624,27.5152 C231.624,29.5312 230.2992,31.1728 228.1824,31.1728 Z M228.1824,30.208 C229.6656,30.208 230.4864,28.9408 230.4864,27.5152 C230.4864,26.104 229.6656,24.8368 228.1824,24.8368 C226.6992,24.8368 225.864,26.104 225.864,27.5152 C225.864,28.9408 226.6992,30.208 228.1824,30.208 Z M239.1696,31 L239.1696,26.0896 C239.1696,24.5776 238.4064,23.872 236.952,23.872 C235.9008,23.872 234.9504,24.4768 234.4608,25.0528 L234.4608,21.3952 L233.3808,21.3952 L233.3808,31 L234.4608,31 L234.4608,25.9168 C234.8784,25.3552 235.6848,24.8368 236.52,24.8368 C237.456,24.8368 238.0896,25.1968 238.0896,26.4208 L238.0896,31 L239.1696,31 Z M241.8624,23.0512 C242.2656,23.0512 242.5968,22.7344 242.5968,22.3312 C242.5968,21.928 242.2656,21.5968 241.8624,21.5968 C241.4736,21.5968 241.1424,21.928 241.1424,22.3312 C241.1424,22.7344 241.4736,23.0512 241.8624,23.0512 Z M242.4096,31 L242.4096,24.0448 L241.3296,24.0448 L241.3296,31 L242.4096,31 Z M246.3264,31.1728 C246.96,31.1728 247.3488,30.9856 247.6224,30.7264 L247.3056,29.92 C247.1616,30.0784 246.8736,30.208 246.5712,30.208 C246.096,30.208 245.8656,29.8336 245.8656,29.3152 L245.8656,24.9952 L247.2768,24.9952 L247.2768,24.0448 L245.8656,24.0448 L245.8656,22.144 L244.7856,22.144 L244.7856,24.0448 L243.6336,24.0448 L243.6336,24.9952 L244.7856,24.9952 L244.7856,29.5456 C244.7856,30.5824 245.304,31.1728 246.3264,31.1728 Z M255.672,31.1728 C258.264,31.1728 259.2144,29.7472 259.2144,28.3504 C259.2144,24.7648 253.5264,26.0032 253.5264,23.8432 C253.5264,22.936 254.3472,22.3168 255.4992,22.3168 C256.5504,22.3168 257.5584,22.6768 258.2784,23.4688 L258.9984,22.5904 C258.192,21.7408 257.0544,21.2512 255.5856,21.2512 C253.6992,21.2512 252.288,22.3312 252.288,23.9152 C252.288,27.3424 257.976,25.9744 257.976,28.4512 C257.976,29.1856 257.4288,30.1072 255.7152,30.1072 C254.3616,30.1072 253.3248,29.4448 252.6912,28.7392 L251.9856,29.6464 C252.7776,30.5392 254.0016,31.1728 255.672,31.1728 Z M266.3856,31 L265.3056,31 L265.3056,30.208 C264.7296,30.8416 263.9376,31.1728 263.0016,31.1728 C261.8208,31.1728 260.568,30.3808 260.568,28.8688 C260.568,27.3136 261.8208,26.5792 263.0016,26.5792 C263.952,26.5792 264.744,26.8816 265.3056,27.5296 L265.3056,26.2768 C265.3056,25.3408 264.5568,24.808 263.5488,24.808 C262.7136,24.808 262.0368,25.1104 261.4176,25.7728 L260.9136,25.024 C261.6624,24.2464 262.5552,23.872 263.6928,23.872 C265.1616,23.872 266.3856,24.5344 266.3856,26.2192 L266.3856,31 Z M263.3904,30.3952 C264.1536,30.3952 264.888,30.1072 265.3056,29.5312 L265.3056,28.2208 C264.888,27.6448 264.1536,27.3568 263.3904,27.3568 C262.3824,27.3568 261.6768,27.9904 261.6768,28.8832 C261.6768,29.7616 262.3824,30.3952 263.3904,30.3952 Z M269.6256,31 L269.6256,26.0752 C269.9424,25.5136 270.8496,24.9664 271.512,24.9664 C271.6848,24.9664 271.8144,24.9808 271.944,25.0096 L271.944,23.9008 C270.9936,23.9008 270.1872,24.4336 269.6256,25.168 L269.6256,24.0448 L268.5456,24.0448 L268.5456,31 L269.6256,31 Z M279.4176,31 L278.3376,31 L278.3376,29.9632 C277.8192,30.6688 276.9696,31.1728 275.9904,31.1728 C274.176,31.1728 272.8944,29.7904 272.8944,27.5296 C272.8944,25.312 274.1616,23.872 275.9904,23.872 C276.9264,23.872 277.776,24.3328 278.3376,25.096 L278.3376,21.3952 L279.4176,21.3952 L279.4176,31 Z M276.2496,30.208 C277.1136,30.208 277.9488,29.7184 278.3376,29.1136 L278.3376,25.96 C277.9488,25.3552 277.1136,24.8368 276.2496,24.8368 C274.8528,24.8368 274.0176,25.9888 274.0176,27.5296 C274.0176,29.0704 274.8528,30.208 276.2496,30.208 Z M287.0064,31 L285.9264,31 L285.9264,30.208 C285.3504,30.8416 284.5584,31.1728 283.6224,31.1728 C282.4416,31.1728 281.1888,30.3808 281.1888,28.8688 C281.1888,27.3136 282.4416,26.5792 283.6224,26.5792 C284.5728,26.5792 285.3648,26.8816 285.9264,27.5296 L285.9264,26.2768 C285.9264,25.3408 285.1776,24.808 284.1696,24.808 C283.3344,24.808 282.6576,25.1104 282.0384,25.7728 L281.5344,25.024 C282.2832,24.2464 283.176,23.872 284.3136,23.872 C285.7824,23.872 287.0064,24.5344 287.0064,26.2192 L287.0064,31 Z M284.0112,30.3952 C284.7744,30.3952 285.5088,30.1072 285.9264,29.5312 L285.9264,28.2208 C285.5088,27.6448 284.7744,27.3568 284.0112,27.3568 C283.0032,27.3568 282.2976,27.9904 282.2976,28.8832 C282.2976,29.7616 283.0032,30.3952 284.0112,30.3952 Z M294.9408,31 L294.9408,26.1184 C294.9408,24.6064 294.1776,23.872 292.7232,23.872 C291.6864,23.872 290.736,24.4768 290.2464,25.0528 L290.2464,24.0448 L289.1664,24.0448 L289.1664,31 L290.2464,31 L290.2464,25.9168 C290.6496,25.3552 291.456,24.8368 292.3056,24.8368 C293.2416,24.8368 293.8608,25.2256 293.8608,26.4496 L293.8608,31 L294.9408,31 Z M302.5296,31 L301.4496,31 L301.4496,30.208 C300.8736,30.8416 300.0816,31.1728 299.1456,31.1728 C297.9648,31.1728 296.712,30.3808 296.712,28.8688 C296.712,27.3136 297.9648,26.5792 299.1456,26.5792 C300.096,26.5792 300.888,26.8816 301.4496,27.5296 L301.4496,26.2768 C301.4496,25.3408 300.7008,24.808 299.6928,24.808 C298.8576,24.808 298.1808,25.1104 297.5616,25.7728 L297.0576,25.024 C297.8064,24.2464 298.6992,23.872 299.8368,23.872 C301.3056,23.872 302.5296,24.5344 302.5296,26.2192 L302.5296,31 Z M299.5344,30.3952 C300.2976,30.3952 301.032,30.1072 301.4496,29.5312 L301.4496,28.2208 C301.032,27.6448 300.2976,27.3568 299.5344,27.3568 C298.5264,27.3568 297.8208,27.9904 297.8208,28.8832 C297.8208,29.7616 298.5264,30.3952 299.5344,30.3952 Z M310.1616,31.1728 C310.7952,31.1728 311.184,30.9856 311.4576,30.7264 L311.1408,29.92 C310.9968,30.0784 310.7088,30.208 310.4064,30.208 C309.9312,30.208 309.7008,29.8336 309.7008,29.3152 L309.7008,24.9952 L311.112,24.9952 L311.112,24.0448 L309.7008,24.0448 L309.7008,22.144 L308.6208,22.144 L308.6208,24.0448 L307.4688,24.0448 L307.4688,24.9952 L308.6208,24.9952 L308.6208,29.5456 C308.6208,30.5824 309.1392,31.1728 310.1616,31.1728 Z M315.6768,31.1728 C313.56,31.1728 312.2352,29.5312 312.2352,27.5152 C312.2352,25.4992 313.56,23.872 315.6768,23.872 C317.7936,23.872 319.1184,25.4992 319.1184,27.5152 C319.1184,29.5312 317.7936,31.1728 315.6768,31.1728 Z M315.6768,30.208 C317.16,30.208 317.9808,28.9408 317.9808,27.5152 C317.9808,26.104 317.16,24.8368 315.6768,24.8368 C314.1936,24.8368 313.3584,26.104 313.3584,27.5152 C313.3584,28.9408 314.1936,30.208 315.6768,30.208 Z M78.3072,48 L76.6224,48 L76.6224,38.3952 L80.8416,38.3952 C82.8576,38.3952 83.9808,39.7776 83.9808,41.4048 C83.9808,43.032 82.8432,44.4144 80.8416,44.4144 L78.3072,44.4144 L78.3072,48 Z M80.6112,42.9312 C81.5616,42.9312 82.2528,42.3264 82.2528,41.4048 C82.2528,40.4832 81.5616,39.8784 80.6112,39.8784 L78.3072,39.8784 L78.3072,42.9312 L80.6112,42.9312 Z M86.8464,48 L86.8464,43.2624 C87.1488,42.7728 87.9984,42.3408 88.632,42.3408 C88.8192,42.3408 88.9776,42.3552 89.1072,42.384 L89.1072,40.8864 C88.2,40.8864 87.3648,41.4048 86.8464,42.0672 L86.8464,41.0448 L85.3344,41.0448 L85.3344,48 L86.8464,48 Z M91.08,40.1952 C91.5984,40.1952 92.016,39.7776 92.016,39.2592 C92.016,38.7408 91.5984,38.3232 91.08,38.3232 C90.576,38.3232 90.144,38.7408 90.144,39.2592 C90.144,39.7776 90.576,40.1952 91.08,40.1952 Z M91.8432,48 L91.8432,41.0448 L90.3312,41.0448 L90.3312,48 L91.8432,48 Z M93.4992,50.7216 C93.7152,50.7792 94.1328,50.8224 94.3488,50.8224 C95.4288,50.808 96.264,50.4336 96.7392,49.2528 L100.0944,41.0448 L98.4672,41.0448 L96.4368,46.2576 L94.4064,41.0448 L92.7936,41.0448 L95.6448,48.0864 L95.2992,48.8784 C95.0976,49.3392 94.7808,49.4832 94.3056,49.4832 C94.1328,49.4832 93.888,49.44 93.7296,49.368 L93.4992,50.7216 Z M106.8048,48 L105.2928,48 L105.2928,47.2512 C104.7744,47.8416 103.968,48.1728 103.0464,48.1728 C101.9088,48.1728 100.6272,47.4096 100.6272,45.8688 C100.6272,44.2704 101.9088,43.608 103.0464,43.608 C103.9824,43.608 104.7888,43.9104 105.2928,44.5008 L105.2928,43.464 C105.2928,42.6576 104.6304,42.168 103.6656,42.168 C102.888,42.168 102.2112,42.456 101.6064,43.0464 L100.9872,41.9952 C101.7936,41.232 102.8016,40.872 103.9104,40.872 C105.4512,40.872 106.8048,41.52 106.8048,43.392 L106.8048,48 Z M103.6368,47.136 C104.2992,47.136 104.9472,46.8912 105.2928,46.416 L105.2928,45.3648 C104.9472,44.8896 104.2992,44.6448 103.6368,44.6448 C102.7872,44.6448 102.1536,45.1344 102.1536,45.8976 C102.1536,46.6464 102.7872,47.136 103.6368,47.136 Z M120.3264,48 L116.136,42.9312 L120.0384,38.3952 L117.9504,38.3952 L114.192,42.9744 L114.192,38.3952 L112.5072,38.3952 L112.5072,48 L114.192,48 L114.192,44.9328 L115.0272,43.9536 L118.2528,48 L120.3264,48 Z M127.3248,48 L127.3248,41.0448 L125.8128,41.0448 L125.8128,45.9264 C125.4528,46.4016 124.7904,46.8336 124.0272,46.8336 C123.1776,46.8336 122.6304,46.5024 122.6304,45.4224 L122.6304,41.0448 L121.1184,41.0448 L121.1184,45.9696 C121.1184,47.3952 121.8528,48.1728 123.3504,48.1728 C124.4448,48.1728 125.3088,47.64 125.8128,47.0784 L125.8128,48 L127.3248,48 Z M139.32,48 L139.32,42.9744 C139.32,41.5632 138.6,40.872 137.3184,40.872 C136.2816,40.872 135.36,41.52 134.9568,42.1536 C134.7264,41.3904 134.0928,40.872 133.056,40.872 C132.0048,40.872 131.0832,41.5632 130.7952,41.9952 L130.7952,41.0448 L129.2832,41.0448 L129.2832,48 L130.7952,48 L130.7952,43.1472 C131.112,42.6864 131.7312,42.2112 132.3936,42.2112 C133.2144,42.2112 133.5456,42.7152 133.5456,43.464 L133.5456,48 L135.0576,48 L135.0576,43.1328 C135.36,42.6864 135.9936,42.2112 136.6704,42.2112 C137.4768,42.2112 137.808,42.7152 137.808,43.464 L137.808,48 L139.32,48 Z M147.0384,48 L145.5264,48 L145.5264,47.2512 C145.008,47.8416 144.2016,48.1728 143.28,48.1728 C142.1424,48.1728 140.8608,47.4096 140.8608,45.8688 C140.8608,44.2704 142.1424,43.608 143.28,43.608 C144.216,43.608 145.0224,43.9104 145.5264,44.5008 L145.5264,43.464 C145.5264,42.6576 144.864,42.168 143.8992,42.168 C143.1216,42.168 142.4448,42.456 141.84,43.0464 L141.2208,41.9952 C142.0272,41.232 143.0352,40.872 144.144,40.872 C145.6848,40.872 147.0384,41.52 147.0384,43.392 L147.0384,48 Z M143.8704,47.136 C144.5328,47.136 145.1808,46.8912 145.5264,46.416 L145.5264,45.3648 C145.1808,44.8896 144.5328,44.6448 143.8704,44.6448 C143.0208,44.6448 142.3872,45.1344 142.3872,45.8976 C142.3872,46.6464 143.0208,47.136 143.8704,47.136 Z M150.5088,48 L150.5088,43.2624 C150.8112,42.7728 151.6608,42.3408 152.2944,42.3408 C152.4816,42.3408 152.64,42.3552 152.7696,42.384 L152.7696,40.8864 C151.8624,40.8864 151.0272,41.4048 150.5088,42.0672 L150.5088,41.0448 L148.9968,41.0448 L148.9968,48 L150.5088,48 Z" id="Lead-transferred-fro" fill="#0D1F2D"></path>
                    <rect id="Rectangle-11" fill="#DFE3E9" x="38.7" y="11.7" width="1.8" height="68.4"></rect>
                    <path d="M77.49,70.6494 C77.8176,71.1786 78.561,71.607 79.3044,71.607 C80.5392,71.607 81.27,70.6116 81.27,69.2634 C81.27,67.9152 80.5392,66.9072 79.3044,66.9072 C78.561,66.9072 77.8176,67.3608 77.49,67.89 L77.49,70.6494 Z M77.49,72.3 L76.545,72.3 L76.545,63.8958 L77.49,63.8958 L77.49,67.134 C77.9814,66.4662 78.7122,66.063 79.5438,66.063 C81.1314,66.063 82.2528,67.323 82.2528,69.2634 C82.2528,71.2416 81.1314,72.4512 79.5438,72.4512 C78.687,72.4512 77.9436,72.0102 77.49,71.3928 L77.49,72.3 Z M83.4498,74.6814 C83.6262,74.7318 83.9412,74.7696 84.1428,74.7696 C84.9492,74.757 85.5666,74.4168 85.932,73.5348 L88.9812,66.2142 L87.948,66.2142 L85.932,71.2038 L83.9034,66.2142 L82.8828,66.2142 L85.428,72.363 L85.0248,73.2828 C84.8106,73.7868 84.5334,73.9254 84.1176,73.9254 C83.9664,73.9254 83.7396,73.8876 83.601,73.8246 L83.4498,74.6814 Z M99.351,72.3 L98.1162,72.3 L95.9742,68.961 L94.2984,68.961 L94.2984,72.3 L93.2526,72.3 L93.2526,63.8958 L96.6294,63.8958 C98.1666,63.8958 99.2628,64.8786 99.2628,66.4284 C99.2628,67.9404 98.2296,68.772 97.083,68.8728 L99.351,72.3 Z M96.5034,68.0412 C97.4988,68.0412 98.1792,67.3734 98.1792,66.4284 C98.1792,65.4834 97.4988,64.8282 96.5034,64.8282 L94.2984,64.8282 L94.2984,68.0412 L96.5034,68.0412 Z M103.1562,72.4512 C101.304,72.4512 100.1448,71.0148 100.1448,69.2508 C100.1448,67.4868 101.304,66.063 103.1562,66.063 C105.0084,66.063 106.1676,67.4868 106.1676,69.2508 C106.1676,71.0148 105.0084,72.4512 103.1562,72.4512 Z M103.1562,71.607 C104.454,71.607 105.1722,70.4982 105.1722,69.2508 C105.1722,68.016 104.454,66.9072 103.1562,66.9072 C101.8584,66.9072 101.1276,68.016 101.1276,69.2508 C101.1276,70.4982 101.8584,71.607 103.1562,71.607 Z M112.77,72.3 L112.77,68.0034 C112.77,66.6804 112.1022,66.063 110.8296,66.063 C109.9098,66.063 109.0782,66.5922 108.6498,67.0962 L108.6498,63.8958 L107.7048,63.8958 L107.7048,72.3 L108.6498,72.3 L108.6498,67.8522 C109.0152,67.3608 109.7208,66.9072 110.4516,66.9072 C111.2706,66.9072 111.825,67.2222 111.825,68.2932 L111.825,72.3 L112.77,72.3 Z M115.1262,65.3448 C115.479,65.3448 115.7688,65.0676 115.7688,64.7148 C115.7688,64.362 115.479,64.0722 115.1262,64.0722 C114.786,64.0722 114.4962,64.362 114.4962,64.7148 C114.4962,65.0676 114.786,65.3448 115.1262,65.3448 Z M115.605,72.3 L115.605,66.2142 L114.66,66.2142 L114.66,72.3 L115.605,72.3 Z M119.0322,72.4512 C119.5866,72.4512 119.9268,72.2874 120.1662,72.0606 L119.889,71.355 C119.763,71.4936 119.511,71.607 119.2464,71.607 C118.8306,71.607 118.629,71.2794 118.629,70.8258 L118.629,67.0458 L119.8638,67.0458 L119.8638,66.2142 L118.629,66.2142 L118.629,64.551 L117.684,64.551 L117.684,66.2142 L116.676,66.2142 L116.676,67.0458 L117.684,67.0458 L117.684,71.0274 C117.684,71.9346 118.1376,72.4512 119.0322,72.4512 Z M127.2096,72.4512 C129.4776,72.4512 130.3092,71.2038 130.3092,69.9816 C130.3092,66.8442 125.3322,67.9278 125.3322,66.0378 C125.3322,65.244 126.0504,64.7022 127.0584,64.7022 C127.9782,64.7022 128.8602,65.0172 129.4902,65.7102 L130.1202,64.9416 C129.4146,64.1982 128.4192,63.7698 127.134,63.7698 C125.4834,63.7698 124.2486,64.7148 124.2486,66.1008 C124.2486,69.0996 129.2256,67.9026 129.2256,70.0698 C129.2256,70.7124 128.7468,71.5188 127.2474,71.5188 C126.063,71.5188 125.1558,70.9392 124.6014,70.3218 L123.984,71.1156 C124.677,71.8968 125.748,72.4512 127.2096,72.4512 Z M136.584,72.3 L135.639,72.3 L135.639,71.607 C135.135,72.1614 134.442,72.4512 133.623,72.4512 C132.5898,72.4512 131.4936,71.7582 131.4936,70.4352 C131.4936,69.0744 132.5898,68.4318 133.623,68.4318 C134.4546,68.4318 135.1476,68.6964 135.639,69.2634 L135.639,68.1672 C135.639,67.3482 134.9838,66.882 134.1018,66.882 C133.371,66.882 132.7788,67.1466 132.237,67.7262 L131.796,67.071 C132.4512,66.3906 133.2324,66.063 134.2278,66.063 C135.513,66.063 136.584,66.6426 136.584,68.1168 L136.584,72.3 Z M133.9632,71.7708 C134.631,71.7708 135.2736,71.5188 135.639,71.0148 L135.639,69.8682 C135.2736,69.3642 134.631,69.1122 133.9632,69.1122 C133.0812,69.1122 132.4638,69.6666 132.4638,70.4478 C132.4638,71.2164 133.0812,71.7708 133.9632,71.7708 Z M139.419,72.3 L139.419,67.9908 C139.6962,67.4994 140.49,67.0206 141.0696,67.0206 C141.2208,67.0206 141.3342,67.0332 141.4476,67.0584 L141.4476,66.0882 C140.616,66.0882 139.9104,66.5544 139.419,67.197 L139.419,66.2142 L138.474,66.2142 L138.474,72.3 L139.419,72.3 Z M147.3822,72.3 L146.4372,72.3 L146.4372,71.607 C145.9332,72.1614 145.2402,72.4512 144.4212,72.4512 C143.388,72.4512 142.2918,71.7582 142.2918,70.4352 C142.2918,69.0744 143.388,68.4318 144.4212,68.4318 C145.2528,68.4318 145.9458,68.6964 146.4372,69.2634 L146.4372,68.1672 C146.4372,67.3482 145.782,66.882 144.9,66.882 C144.1692,66.882 143.577,67.1466 143.0352,67.7262 L142.5942,67.071 C143.2494,66.3906 144.0306,66.063 145.026,66.063 C146.3112,66.063 147.3822,66.6426 147.3822,68.1168 L147.3822,72.3 Z M144.7614,71.7708 C145.4292,71.7708 146.0718,71.5188 146.4372,71.0148 L146.4372,69.8682 C146.0718,69.3642 145.4292,69.1122 144.7614,69.1122 C143.8794,69.1122 143.262,69.6666 143.262,70.4478 C143.262,71.2164 143.8794,71.7708 144.7614,71.7708 Z M154.6272,72.3 L153.6822,72.3 L153.6822,71.3928 C153.2286,72.0102 152.4852,72.4512 151.6284,72.4512 C150.0408,72.4512 148.9194,71.2416 148.9194,69.2634 C148.9194,67.323 150.0282,66.063 151.6284,66.063 C152.4474,66.063 153.1908,66.4662 153.6822,67.134 L153.6822,63.8958 L154.6272,63.8958 L154.6272,72.3 Z M151.8552,71.607 C152.6112,71.607 153.342,71.1786 153.6822,70.6494 L153.6822,67.89 C153.342,67.3608 152.6112,66.9072 151.8552,66.9072 C150.633,66.9072 149.9022,67.9152 149.9022,69.2634 C149.9022,70.6116 150.633,71.607 151.8552,71.607 Z M161.2674,72.3 L160.3224,72.3 L160.3224,71.607 C159.8184,72.1614 159.1254,72.4512 158.3064,72.4512 C157.2732,72.4512 156.177,71.7582 156.177,70.4352 C156.177,69.0744 157.2732,68.4318 158.3064,68.4318 C159.138,68.4318 159.831,68.6964 160.3224,69.2634 L160.3224,68.1672 C160.3224,67.3482 159.6672,66.882 158.7852,66.882 C158.0544,66.882 157.4622,67.1466 156.9204,67.7262 L156.4794,67.071 C157.1346,66.3906 157.9158,66.063 158.9112,66.063 C160.1964,66.063 161.2674,66.6426 161.2674,68.1168 L161.2674,72.3 Z M158.6466,71.7708 C159.3144,71.7708 159.957,71.5188 160.3224,71.0148 L160.3224,69.8682 C159.957,69.3642 159.3144,69.1122 158.6466,69.1122 C157.7646,69.1122 157.1472,69.6666 157.1472,70.4478 C157.1472,71.2164 157.7646,71.7708 158.6466,71.7708 Z M168.21,72.3 L168.21,68.0286 C168.21,66.7056 167.5422,66.063 166.2696,66.063 C165.3624,66.063 164.5308,66.5922 164.1024,67.0962 L164.1024,66.2142 L163.1574,66.2142 L163.1574,72.3 L164.1024,72.3 L164.1024,67.8522 C164.4552,67.3608 165.1608,66.9072 165.9042,66.9072 C166.7232,66.9072 167.265,67.2474 167.265,68.3184 L167.265,72.3 L168.21,72.3 Z M174.8502,72.3 L173.9052,72.3 L173.9052,71.607 C173.4012,72.1614 172.7082,72.4512 171.8892,72.4512 C170.856,72.4512 169.7598,71.7582 169.7598,70.4352 C169.7598,69.0744 170.856,68.4318 171.8892,68.4318 C172.7208,68.4318 173.4138,68.6964 173.9052,69.2634 L173.9052,68.1672 C173.9052,67.3482 173.25,66.882 172.368,66.882 C171.6372,66.882 171.045,67.1466 170.5032,67.7262 L170.0622,67.071 C170.7174,66.3906 171.4986,66.063 172.494,66.063 C173.7792,66.063 174.8502,66.6426 174.8502,68.1168 L174.8502,72.3 Z M172.2294,71.7708 C172.8972,71.7708 173.5398,71.5188 173.9052,71.0148 L173.9052,69.8682 C173.5398,69.3642 172.8972,69.1122 172.2294,69.1122 C171.3474,69.1122 170.73,69.6666 170.73,70.4478 C170.73,71.2164 171.3474,71.7708 172.2294,71.7708 Z" id="by-Rohit-Saradana" fill="#7E95A3"></path>
                    <g id="008-arrows" transform="translate(25.200000, 32.400000)" fill-rule="nonzero">
                        <g id="Shape">
                            <use fill="#DB3186" fill-rule="evenodd" xlink:href="#path-3"></use>
                            <path stroke="#FFFFFF" stroke-width="5.4" d="M-2.7,14.3755461 C-2.7,4.94462951 4.94477851,-2.7 14.3753143,-2.7 C23.8062102,-2.7 31.4510922,4.94458398 31.4510922,14.3755461 C31.4510922,23.8059228 23.8059843,31.4508604 14.3753143,31.4508604 C4.94502272,31.4508604 -2.7,23.8058376 -2.7,14.3755461 Z"></path>
                        </g>
                        <g id="Group" transform="translate(4.984615, 5.538462)" fill="#FFFFFF">
                            <path d="M18.1380053,4.93587411 C17.6283091,4.93699646 17.1187113,4.9385092 16.6090151,4.93963156 C15.4627403,2.39349563 13.212846,0.554101874 10.370851,0.113016287 C7.20436056,-0.378428889 4.17371686,1.07863213 2.36662986,3.64170098 C1.56396169,4.77996433 3.45039936,5.84566498 4.24622101,4.71691725 C6.72461167,1.20165202 12.0166262,1.51932733 14.1912579,4.94558492 C13.7204243,4.94665848 13.2495907,4.94782963 12.7787078,4.94890319 C12.6469985,4.94929357 12.553413,5.00731446 12.4955377,5.08929518 C12.4009671,5.18972157 12.3650105,5.3367989 12.4640634,5.48875603 C13.3607111,6.86730098 14.2573589,8.24579714 15.1542036,9.6241469 C15.3049748,9.85579125 15.6301598,9.85388813 15.7795519,9.62190219 C16.6692053,8.23906301 17.5589573,6.85627263 18.4486107,5.47343344 C18.5958355,5.24481457 18.4019657,4.93519094 18.1380053,4.93587411 Z" id="Shape"></path>
                            <path d="M14.3014918,12.5032319 C11.8423108,15.9918046 6.61230905,15.7058481 4.40674479,12.3544467 C4.85797473,12.3533731 5.30920467,12.352202 5.76048386,12.3511284 C5.89179911,12.350738 5.98523686,12.2930587 6.04325988,12.211322 C6.13802753,12.1108468 6.17418109,11.9638183 6.07507895,11.8113244 C5.17862825,10.4329746 4.28193127,9.05428326 3.38528354,7.67612869 C3.23475863,7.44428915 2.90937658,7.44619227 2.75998455,7.6783734 C1.87028185,9.06101739 0.980382133,10.4438078 0.09053167,11.826647 C-0.0565946076,12.055461 0.137225915,12.3649871 0.401235573,12.3642551 C0.926742857,12.3629375 1.45220089,12.36162 1.97770817,12.3603512 C3.13511469,14.8646184 5.36535598,16.6707807 8.17725586,17.1071817 C11.3437463,17.5986757 14.37439,16.1417611 16.181083,13.578497 C16.9836034,12.4399897 15.097215,11.3743378 14.3014918,12.5032319 Z" id="Shape"></path>
                        </g>
                    </g>
                </g>
            </g>
        </g>
    </g>
</svg>