<?xml version="1.0" encoding="UTF-8"?>
<svg width="407px" height="148px" viewBox="0 0 407 148" version="1.1" xmlns="http://www.w3.org/2000/svg" xmlns:xlink="http://www.w3.org/1999/xlink">
    <!-- Generator: sketchtool 47.1 (45422) - http://www.bohemiancoding.com/sketch -->
    <title>AB808398-C0FF-4FA1-BDED-2A80CD567614</title>
    <desc>Created with sketchtool.</desc>
    <defs>
        <rect id="path-1" x="0" y="0" width="352.8" height="93.6" rx="7.2"></rect>
        <filter x="-13.5%" y="-35.8%" width="126.9%" height="201.5%" filterUnits="objectBoundingBox" id="filter-2">
            <feOffset dx="0" dy="14" in="SourceAlpha" result="shadowOffsetOuter1"></feOffset>
            <feGaussianBlur stdDeviation="13.5" in="shadowOffsetOuter1" result="shadowBlurOuter1"></feGaussianBlur>
            <feColorMatrix values="0 0 0 0 0   0 0 0 0 0   0 0 0 0 0  0 0 0 0.489158741 0" type="matrix" in="shadowBlurOuter1"></feColorMatrix>
        </filter>
        <circle id="path-3" cx="14.4" cy="14.4" r="14.4"></circle>
    </defs>
    <g id="Welcome" stroke="none" stroke-width="1" fill="none" fill-rule="evenodd">
        <g id="Landing-page" transform="translate(-950.000000, -2341.000000)">
            <g id="Panel-3" transform="translate(265.000000, 2155.000000)">
                <g id="Lead-comment" transform="translate(712.000000, 199.000000)">
                    <g id="Base-Copy-2">
                        <use fill="black" fill-opacity="1" filter="url(#filter-2)" xlink:href="#path-1"></use>
                        <use fill="#FFFFFF" fill-rule="evenodd" xlink:href="#path-1"></use>
                    </g>
                    <text id="Give-her-additional" font-family="ProximaNova-Regular, Proxima Nova" font-size="14.4" font-weight="normal" fill="#0D1F2D">
                        <tspan x="75.6" y="31">Give her additional 10% discount on</tspan>
                        <tspan x="75.6" y="48">purchasing yoga class pack</tspan>
                    </text>
                    <rect id="Rectangle-11" fill="#DFE3E9" x="38.7" y="11.7" width="1.8" height="68.4"></rect>
                    <g id="Comment" transform="translate(25.200000, 32.400000)" fill-rule="nonzero">
                        <g id="Oval">
                            <use fill="#1CBDA5" fill-rule="evenodd" xlink:href="#path-3"></use>
                            <circle stroke="#FFFFFF" stroke-width="5.4" cx="14.4" cy="14.4" r="17.1"></circle>
                        </g>
                        <g id="INTERFACE" transform="translate(6.646154, 8.086140)">
                            <path d="M14.1708223,0 L1.33687003,0 C0.609077984,0 0,0.645249535 0,1.41688523 L0,10.2015737 C0,10.9732094 0.609077984,11.6184589 1.33687003,11.6184589 L5.34748011,11.6184589 L7.04654571,13.7778196 L7.04654571,13.7778196 C7.35390896,14.1684509 7.9197453,14.2359529 8.31037655,13.9285897 C8.36642993,13.8844848 8.41704171,13.833873 8.4611466,13.7778196 L10.1602122,11.6184589 L14.1708223,11.6184589 C14.8986143,11.6184589 15.5076923,10.9732094 15.5076923,10.2015737 L15.5076923,1.41688523 C15.5076923,0.645249535 14.8986143,0 14.1708223,0 Z" id="Shape" fill="#FFFFFF"></path>
                            <g id="Group-2" transform="translate(2.769231, 4.430769)" fill="#88C057">
                                <ellipse id="Oval" cx="1.45380934" cy="1.75504072" rx="1.10736909" ry="1.10769231"></ellipse>
                                <ellipse id="Oval" cx="5.12332652" cy="1.75504072" rx="1.10736909" ry="1.10769231"></ellipse>
                                <ellipse id="Oval" cx="8.79284369" cy="1.75504072" rx="1.10736909" ry="1.10769231"></ellipse>
                            </g>
                        </g>
                    </g>
                    <text id="by-Priya-kumar" font-family="ProximaNova-Regular, Proxima Nova" font-size="12.6" font-weight="normal" fill="#7E95A3">
                        <tspan x="75.6" y="72.3">by Priya kumar</tspan>
                    </text>
                </g>
            </g>
        </g>
    </g>
</svg>