<?xml version="1.0" encoding="UTF-8"?>
<svg width="407px" height="148px" viewBox="0 0 407 148" version="1.1" xmlns="http://www.w3.org/2000/svg" xmlns:xlink="http://www.w3.org/1999/xlink">
    <!-- Generator: Sketch 47.1 (45422) - http://www.bohemiancoding.com/sketch -->
    <title>Lead comment@1x</title>
    <desc>Created with Sketch.</desc>
    <defs>
        <rect id="path-1" x="0" y="0" width="352.8" height="93.6" rx="7.2"></rect>
        <filter x="-13.5%" y="-35.8%" width="126.9%" height="201.5%" filterUnits="objectBoundingBox" id="filter-2">
            <feOffset dx="0" dy="14" in="SourceAlpha" result="shadowOffsetOuter1"></feOffset>
            <feGaussianBlur stdDeviation="13.5" in="shadowOffsetOuter1" result="shadowBlurOuter1"></feGaussianBlur>
            <feColorMatrix values="0 0 0 0 0   0 0 0 0 0   0 0 0 0 0  0 0 0 0.489158741 0" type="matrix" in="shadowBlurOuter1"></feColorMatrix>
        </filter>
        <circle id="path-3" cx="14.4" cy="14.4" r="14.4"></circle>
    </defs>
    <g id="Welcome" stroke="none" stroke-width="1" fill="none" fill-rule="evenodd">
        <g id="Landing-page-OG" transform="translate(-901.000000, -2341.000000)">
            <g id="Panel-3" transform="translate(194.000000, 2155.000000)">
                <g id="Lead-comment" transform="translate(734.000000, 199.000000)">
                    <g id="Base-Copy-2">
                        <use fill="black" fill-opacity="1" filter="url(#filter-2)" xlink:href="#path-1"></use>
                        <use fill="#FFFFFF" fill-rule="evenodd" xlink:href="#path-1"></use>
                    </g>
                    <path d="M81.2736,31.1872 C82.8432,31.1872 84.1536,30.5248 85.0464,29.5312 L85.0464,26.0608 L80.5536,26.0608 L80.5536,27.1264 L83.8512,27.1264 L83.8512,29.0848 C83.376,29.56 82.4256,30.1216 81.2736,30.1216 C79.1712,30.1216 77.5728,28.48 77.5728,26.2048 C77.5728,23.9152 79.1712,22.3024 81.2736,22.3024 C82.4256,22.3024 83.448,22.8496 84.0528,23.6272 L85.0032,23.0368 C84.1536,21.9856 82.9728,21.2368 81.2736,21.2368 C78.5376,21.2368 76.3344,23.224 76.3344,26.2048 C76.3344,29.1856 78.5376,31.1872 81.2736,31.1872 Z M87.48,23.0512 C87.8832,23.0512 88.2144,22.7344 88.2144,22.3312 C88.2144,21.928 87.8832,21.5968 87.48,21.5968 C87.0912,21.5968 86.76,21.928 86.76,22.3312 C86.76,22.7344 87.0912,23.0512 87.48,23.0512 Z M88.0272,31 L88.0272,24.0448 L86.9472,24.0448 L86.9472,31 L88.0272,31 Z M93.2256,31 L96.12,24.0448 L94.9392,24.0448 L92.6352,29.7472 L90.3168,24.0448 L89.1504,24.0448 L92.0448,31 L93.2256,31 Z M100.3824,31.1728 C98.3232,31.1728 96.84,29.6896 96.84,27.5152 C96.84,25.4992 98.28,23.872 100.2672,23.872 C102.3696,23.872 103.608,25.5136 103.608,27.6016 L103.608,27.8752 L97.9776,27.8752 C98.064,29.1856 98.9856,30.28 100.4832,30.28 C101.2752,30.28 102.0816,29.9632 102.6288,29.4016 L103.1472,30.1072 C102.456,30.7984 101.52,31.1728 100.3824,31.1728 Z M102.5424,27.0832 C102.528,26.0464 101.8368,24.7648 100.2528,24.7648 C98.7696,24.7648 98.0352,26.0176 97.9776,27.0832 L102.5424,27.0832 Z M114.8544,31 L114.8544,26.0896 C114.8544,24.5776 114.0912,23.872 112.6368,23.872 C111.5856,23.872 110.6352,24.4768 110.1456,25.0528 L110.1456,21.3952 L109.0656,21.3952 L109.0656,31 L110.1456,31 L110.1456,25.9168 C110.5632,25.3552 111.3696,24.8368 112.2048,24.8368 C113.1408,24.8368 113.7744,25.1968 113.7744,26.4208 L113.7744,31 L114.8544,31 Z M120.1536,31.1728 C118.0944,31.1728 116.6112,29.6896 116.6112,27.5152 C116.6112,25.4992 118.0512,23.872 120.0384,23.872 C122.1408,23.872 123.3792,25.5136 123.3792,27.6016 L123.3792,27.8752 L117.7488,27.8752 C117.8352,29.1856 118.7568,30.28 120.2544,30.28 C121.0464,30.28 121.8528,29.9632 122.4,29.4016 L122.9184,30.1072 C122.2272,30.7984 121.2912,31.1728 120.1536,31.1728 Z M122.3136,27.0832 C122.2992,26.0464 121.608,24.7648 120.024,24.7648 C118.5408,24.7648 117.8064,26.0176 117.7488,27.0832 L122.3136,27.0832 Z M126.2016,31 L126.2016,26.0752 C126.5184,25.5136 127.4256,24.9664 128.088,24.9664 C128.2608,24.9664 128.3904,24.9808 128.52,25.0096 L128.52,23.9008 C127.5696,23.9008 126.7632,24.4336 126.2016,25.168 L126.2016,24.0448 L125.1216,24.0448 L125.1216,31 L126.2016,31 Z M139.0176,31 L137.9376,31 L137.9376,30.208 C137.3616,30.8416 136.5696,31.1728 135.6336,31.1728 C134.4528,31.1728 133.2,30.3808 133.2,28.8688 C133.2,27.3136 134.4528,26.5792 135.6336,26.5792 C136.584,26.5792 137.376,26.8816 137.9376,27.5296 L137.9376,26.2768 C137.9376,25.3408 137.1888,24.808 136.1808,24.808 C135.3456,24.808 134.6688,25.1104 134.0496,25.7728 L133.5456,25.024 C134.2944,24.2464 135.1872,23.872 136.3248,23.872 C137.7936,23.872 139.0176,24.5344 139.0176,26.2192 L139.0176,31 Z M136.0224,30.3952 C136.7856,30.3952 137.52,30.1072 137.9376,29.5312 L137.9376,28.2208 C137.52,27.6448 136.7856,27.3568 136.0224,27.3568 C135.0144,27.3568 134.3088,27.9904 134.3088,28.8832 C134.3088,29.7616 135.0144,30.3952 136.0224,30.3952 Z M147.2976,31 L146.2176,31 L146.2176,29.9632 C145.6992,30.6688 144.8496,31.1728 143.8704,31.1728 C142.056,31.1728 140.7744,29.7904 140.7744,27.5296 C140.7744,25.312 142.0416,23.872 143.8704,23.872 C144.8064,23.872 145.656,24.3328 146.2176,25.096 L146.2176,21.3952 L147.2976,21.3952 L147.2976,31 Z M144.1296,30.208 C144.9936,30.208 145.8288,29.7184 146.2176,29.1136 L146.2176,25.96 C145.8288,25.3552 144.9936,24.8368 144.1296,24.8368 C142.7328,24.8368 141.8976,25.9888 141.8976,27.5296 C141.8976,29.0704 142.7328,30.208 144.1296,30.208 Z M155.5776,31 L154.4976,31 L154.4976,29.9632 C153.9792,30.6688 153.1296,31.1728 152.1504,31.1728 C150.336,31.1728 149.0544,29.7904 149.0544,27.5296 C149.0544,25.312 150.3216,23.872 152.1504,23.872 C153.0864,23.872 153.936,24.3328 154.4976,25.096 L154.4976,21.3952 L155.5776,21.3952 L155.5776,31 Z M152.4096,30.208 C153.2736,30.208 154.1088,29.7184 154.4976,29.1136 L154.4976,25.96 C154.1088,25.3552 153.2736,24.8368 152.4096,24.8368 C151.0128,24.8368 150.1776,25.9888 150.1776,27.5296 C150.1776,29.0704 151.0128,30.208 152.4096,30.208 Z M158.2704,23.0512 C158.6736,23.0512 159.0048,22.7344 159.0048,22.3312 C159.0048,21.928 158.6736,21.5968 158.2704,21.5968 C157.8816,21.5968 157.5504,21.928 157.5504,22.3312 C157.5504,22.7344 157.8816,23.0512 158.2704,23.0512 Z M158.8176,31 L158.8176,24.0448 L157.7376,24.0448 L157.7376,31 L158.8176,31 Z M162.7344,31.1728 C163.368,31.1728 163.7568,30.9856 164.0304,30.7264 L163.7136,29.92 C163.5696,30.0784 163.2816,30.208 162.9792,30.208 C162.504,30.208 162.2736,29.8336 162.2736,29.3152 L162.2736,24.9952 L163.6848,24.9952 L163.6848,24.0448 L162.2736,24.0448 L162.2736,22.144 L161.1936,22.144 L161.1936,24.0448 L160.0416,24.0448 L160.0416,24.9952 L161.1936,24.9952 L161.1936,29.5456 C161.1936,30.5824 161.712,31.1728 162.7344,31.1728 Z M165.744,23.0512 C166.1472,23.0512 166.4784,22.7344 166.4784,22.3312 C166.4784,21.928 166.1472,21.5968 165.744,21.5968 C165.3552,21.5968 165.024,21.928 165.024,22.3312 C165.024,22.7344 165.3552,23.0512 165.744,23.0512 Z M166.2912,31 L166.2912,24.0448 L165.2112,24.0448 L165.2112,31 L166.2912,31 Z M171.4896,31.1728 C169.3728,31.1728 168.048,29.5312 168.048,27.5152 C168.048,25.4992 169.3728,23.872 171.4896,23.872 C173.6064,23.872 174.9312,25.4992 174.9312,27.5152 C174.9312,29.5312 173.6064,31.1728 171.4896,31.1728 Z M171.4896,30.208 C172.9728,30.208 173.7936,28.9408 173.7936,27.5152 C173.7936,26.104 172.9728,24.8368 171.4896,24.8368 C170.0064,24.8368 169.1712,26.104 169.1712,27.5152 C169.1712,28.9408 170.0064,30.208 171.4896,30.208 Z M182.4624,31 L182.4624,26.1184 C182.4624,24.6064 181.6992,23.872 180.2448,23.872 C179.208,23.872 178.2576,24.4768 177.768,25.0528 L177.768,24.0448 L176.688,24.0448 L176.688,31 L177.768,31 L177.768,25.9168 C178.1712,25.3552 178.9776,24.8368 179.8272,24.8368 C180.7632,24.8368 181.3824,25.2256 181.3824,26.4496 L181.3824,31 L182.4624,31 Z M190.0512,31 L188.9712,31 L188.9712,30.208 C188.3952,30.8416 187.6032,31.1728 186.6672,31.1728 C185.4864,31.1728 184.2336,30.3808 184.2336,28.8688 C184.2336,27.3136 185.4864,26.5792 186.6672,26.5792 C187.6176,26.5792 188.4096,26.8816 188.9712,27.5296 L188.9712,26.2768 C188.9712,25.3408 188.2224,24.808 187.2144,24.808 C186.3792,24.808 185.7024,25.1104 185.0832,25.7728 L184.5792,25.024 C185.328,24.2464 186.2208,23.872 187.3584,23.872 C188.8272,23.872 190.0512,24.5344 190.0512,26.2192 L190.0512,31 Z M187.056,30.3952 C187.8192,30.3952 188.5536,30.1072 188.9712,29.5312 L188.9712,28.2208 C188.5536,27.6448 187.8192,27.3568 187.056,27.3568 C186.048,27.3568 185.3424,27.9904 185.3424,28.8832 C185.3424,29.7616 186.048,30.3952 187.056,30.3952 Z M193.2912,31 L193.2912,21.3952 L192.2112,21.3952 L192.2112,31 L193.2912,31 Z M201.8448,31 L201.8448,21.3952 L200.7936,21.3952 L198.3888,23.872 L199.1088,24.6064 L200.6496,22.9792 L200.6496,31 L201.8448,31 Z M207.3744,31.1728 C204.7392,31.1728 203.7024,28.5376 203.7024,26.2048 C203.7024,23.8576 204.7392,21.2512 207.3744,21.2512 C209.9952,21.2512 211.0464,23.8576 211.0464,26.2048 C211.0464,28.5376 209.9952,31.1728 207.3744,31.1728 Z M207.3744,30.1072 C209.2032,30.1072 209.8224,28.12 209.8224,26.2048 C209.8224,24.2896 209.2032,22.3168 207.3744,22.3168 C205.5456,22.3168 204.9264,24.2896 204.9264,26.2048 C204.9264,28.12 205.5456,30.1072 207.3744,30.1072 Z M214.5312,25.9888 C213.1632,25.9888 212.2272,24.9808 212.2272,23.6416 C212.2272,22.288 213.1632,21.2512 214.5312,21.2512 C215.9136,21.2512 216.864,22.288 216.864,23.6416 C216.864,24.9808 215.9136,25.9888 214.5312,25.9888 Z M214.4016,31 L213.624,31 L219.7584,21.3952 L220.5504,21.3952 L214.4016,31 Z M219.5424,31.1728 C218.1744,31.1728 217.2384,30.1648 217.2384,28.8256 C217.2384,27.472 218.1744,26.4352 219.5424,26.4352 C220.9104,26.4352 221.8608,27.472 221.8608,28.8256 C221.8608,30.1648 220.9104,31.1728 219.5424,31.1728 Z M214.5312,25.2688 C215.3952,25.2688 216,24.5488 216,23.6416 C216,22.6912 215.3952,21.9856 214.5312,21.9856 C213.6816,21.9856 213.0912,22.6912 213.0912,23.6416 C213.0912,24.5488 213.6816,25.2688 214.5312,25.2688 Z M219.5424,30.4528 C220.4064,30.4528 221.0112,29.7328 221.0112,28.8256 C221.0112,27.8752 220.4064,27.1696 219.5424,27.1696 C218.6784,27.1696 218.088,27.8752 218.088,28.8256 C218.088,29.7328 218.6784,30.4528 219.5424,30.4528 Z M233.2224,31 L232.1424,31 L232.1424,29.9632 C231.624,30.6688 230.7744,31.1728 229.7952,31.1728 C227.9808,31.1728 226.6992,29.7904 226.6992,27.5296 C226.6992,25.312 227.9664,23.872 229.7952,23.872 C230.7312,23.872 231.5808,24.3328 232.1424,25.096 L232.1424,21.3952 L233.2224,21.3952 L233.2224,31 Z M230.0544,30.208 C230.9184,30.208 231.7536,29.7184 232.1424,29.1136 L232.1424,25.96 C231.7536,25.3552 230.9184,24.8368 230.0544,24.8368 C228.6576,24.8368 227.8224,25.9888 227.8224,27.5296 C227.8224,29.0704 228.6576,30.208 230.0544,30.208 Z M235.9152,23.0512 C236.3184,23.0512 236.6496,22.7344 236.6496,22.3312 C236.6496,21.928 236.3184,21.5968 235.9152,21.5968 C235.5264,21.5968 235.1952,21.928 235.1952,22.3312 C235.1952,22.7344 235.5264,23.0512 235.9152,23.0512 Z M236.4624,31 L236.4624,24.0448 L235.3824,24.0448 L235.3824,31 L236.4624,31 Z M240.8256,31.1728 C242.6256,31.1728 243.5616,30.2368 243.5616,29.0704 C243.5616,26.3632 239.256,27.3712 239.256,25.8448 C239.256,25.2256 239.8464,24.7504 240.7968,24.7504 C241.6896,24.7504 242.4528,25.1248 242.8704,25.6288 L243.3744,24.88 C242.8128,24.3184 241.9776,23.872 240.7968,23.872 C239.1408,23.872 238.2048,24.7936 238.2048,25.8736 C238.2048,28.4512 242.5104,27.4144 242.5104,29.0992 C242.5104,29.7904 241.9344,30.2944 240.8688,30.2944 C239.9184,30.2944 239.04,29.8336 238.5792,29.3008 L238.0176,30.0784 C238.7232,30.8272 239.688,31.1728 240.8256,31.1728 Z M248.3856,31.1728 C249.6528,31.1728 250.4016,30.6544 250.9344,29.9632 L250.2144,29.3008 C249.7536,29.92 249.1632,30.208 248.4432,30.208 C246.96,30.208 246.0384,29.056 246.0384,27.5152 C246.0384,25.9744 246.96,24.8368 248.4432,24.8368 C249.1632,24.8368 249.7536,25.1104 250.2144,25.744 L250.9344,25.0816 C250.4016,24.3904 249.6528,23.872 248.3856,23.872 C246.312,23.872 244.9152,25.456 244.9152,27.5152 C244.9152,29.5888 246.312,31.1728 248.3856,31.1728 Z M255.4848,31.1728 C253.368,31.1728 252.0432,29.5312 252.0432,27.5152 C252.0432,25.4992 253.368,23.872 255.4848,23.872 C257.6016,23.872 258.9264,25.4992 258.9264,27.5152 C258.9264,29.5312 257.6016,31.1728 255.4848,31.1728 Z M255.4848,30.208 C256.968,30.208 257.7888,28.9408 257.7888,27.5152 C257.7888,26.104 256.968,24.8368 255.4848,24.8368 C254.0016,24.8368 253.1664,26.104 253.1664,27.5152 C253.1664,28.9408 254.0016,30.208 255.4848,30.208 Z M266.4576,31 L266.4576,24.0448 L265.3776,24.0448 L265.3776,29.1568 C264.9744,29.7184 264.168,30.208 263.3184,30.208 C262.3824,30.208 261.7632,29.848 261.7632,28.624 L261.7632,24.0448 L260.6832,24.0448 L260.6832,28.9552 C260.6832,30.4672 261.4464,31.1728 262.9008,31.1728 C263.9376,31.1728 264.8448,30.6256 265.3776,30.0208 L265.3776,31 L266.4576,31 Z M274.392,31 L274.392,26.1184 C274.392,24.6064 273.6288,23.872 272.1744,23.872 C271.1376,23.872 270.1872,24.4768 269.6976,25.0528 L269.6976,24.0448 L268.6176,24.0448 L268.6176,31 L269.6976,31 L269.6976,25.9168 C270.1008,25.3552 270.9072,24.8368 271.7568,24.8368 C272.6928,24.8368 273.312,25.2256 273.312,26.4496 L273.312,31 L274.392,31 Z M278.3088,31.1728 C278.9424,31.1728 279.3312,30.9856 279.6048,30.7264 L279.288,29.92 C279.144,30.0784 278.856,30.208 278.5536,30.208 C278.0784,30.208 277.848,29.8336 277.848,29.3152 L277.848,24.9952 L279.2592,24.9952 L279.2592,24.0448 L277.848,24.0448 L277.848,22.144 L276.768,22.144 L276.768,24.0448 L275.616,24.0448 L275.616,24.9952 L276.768,24.9952 L276.768,29.5456 C276.768,30.5824 277.2864,31.1728 278.3088,31.1728 Z M287.5392,31.1728 C285.4224,31.1728 284.0976,29.5312 284.0976,27.5152 C284.0976,25.4992 285.4224,23.872 287.5392,23.872 C289.656,23.872 290.9808,25.4992 290.9808,27.5152 C290.9808,29.5312 289.656,31.1728 287.5392,31.1728 Z M287.5392,30.208 C289.0224,30.208 289.8432,28.9408 289.8432,27.5152 C289.8432,26.104 289.0224,24.8368 287.5392,24.8368 C286.056,24.8368 285.2208,26.104 285.2208,27.5152 C285.2208,28.9408 286.056,30.208 287.5392,30.208 Z M298.512,31 L298.512,26.1184 C298.512,24.6064 297.7488,23.872 296.2944,23.872 C295.2576,23.872 294.3072,24.4768 293.8176,25.0528 L293.8176,24.0448 L292.7376,24.0448 L292.7376,31 L293.8176,31 L293.8176,25.9168 C294.2208,25.3552 295.0272,24.8368 295.8768,24.8368 C296.8128,24.8368 297.432,25.2256 297.432,26.4496 L297.432,31 L298.512,31 Z M80.1072,48.1728 C79.1568,48.1728 78.3216,47.7264 77.76,46.9488 L77.76,50.6496 L76.68,50.6496 L76.68,41.0448 L77.76,41.0448 L77.76,42.0816 C78.264,41.376 79.128,40.872 80.1072,40.872 C81.936,40.872 83.2032,42.2544 83.2032,44.5152 C83.2032,46.7616 81.936,48.1728 80.1072,48.1728 Z M79.8336,47.208 C81.2304,47.208 82.0656,46.056 82.0656,44.5152 C82.0656,42.9744 81.2304,41.8368 79.8336,41.8368 C78.984,41.8368 78.1344,42.3408 77.76,42.9456 L77.76,46.0848 C78.1344,46.6896 78.984,47.208 79.8336,47.208 Z M90.6912,48 L90.6912,41.0448 L89.6112,41.0448 L89.6112,46.1568 C89.208,46.7184 88.4016,47.208 87.552,47.208 C86.616,47.208 85.9968,46.848 85.9968,45.624 L85.9968,41.0448 L84.9168,41.0448 L84.9168,45.9552 C84.9168,47.4672 85.68,48.1728 87.1344,48.1728 C88.1712,48.1728 89.0784,47.6256 89.6112,47.0208 L89.6112,48 L90.6912,48 Z M93.9312,48 L93.9312,43.0752 C94.248,42.5136 95.1552,41.9664 95.8176,41.9664 C95.9904,41.9664 96.12,41.9808 96.2496,42.0096 L96.2496,40.9008 C95.2992,40.9008 94.4928,41.4336 93.9312,42.168 L93.9312,41.0448 L92.8512,41.0448 L92.8512,48 L93.9312,48 Z M100.6704,48.1728 C101.9376,48.1728 102.6864,47.6544 103.2192,46.9632 L102.4992,46.3008 C102.0384,46.92 101.448,47.208 100.728,47.208 C99.2448,47.208 98.3232,46.056 98.3232,44.5152 C98.3232,42.9744 99.2448,41.8368 100.728,41.8368 C101.448,41.8368 102.0384,42.1104 102.4992,42.744 L103.2192,42.0816 C102.6864,41.3904 101.9376,40.872 100.6704,40.872 C98.5968,40.872 97.2,42.456 97.2,44.5152 C97.2,46.5888 98.5968,48.1728 100.6704,48.1728 Z M110.52,48 L110.52,43.0896 C110.52,41.5776 109.7568,40.872 108.3024,40.872 C107.2512,40.872 106.3008,41.4768 105.8112,42.0528 L105.8112,38.3952 L104.7312,38.3952 L104.7312,48 L105.8112,48 L105.8112,42.9168 C106.2288,42.3552 107.0352,41.8368 107.8704,41.8368 C108.8064,41.8368 109.44,42.1968 109.44,43.4208 L109.44,48 L110.52,48 Z M118.1088,48 L117.0288,48 L117.0288,47.208 C116.4528,47.8416 115.6608,48.1728 114.7248,48.1728 C113.544,48.1728 112.2912,47.3808 112.2912,45.8688 C112.2912,44.3136 113.544,43.5792 114.7248,43.5792 C115.6752,43.5792 116.4672,43.8816 117.0288,44.5296 L117.0288,43.2768 C117.0288,42.3408 116.28,41.808 115.272,41.808 C114.4368,41.808 113.76,42.1104 113.1408,42.7728 L112.6368,42.024 C113.3856,41.2464 114.2784,40.872 115.416,40.872 C116.8848,40.872 118.1088,41.5344 118.1088,43.2192 L118.1088,48 Z M115.1136,47.3952 C115.8768,47.3952 116.6112,47.1072 117.0288,46.5312 L117.0288,45.2208 C116.6112,44.6448 115.8768,44.3568 115.1136,44.3568 C114.1056,44.3568 113.4,44.9904 113.4,45.8832 C113.4,46.7616 114.1056,47.3952 115.1136,47.3952 Z M122.472,48.1728 C124.272,48.1728 125.208,47.2368 125.208,46.0704 C125.208,43.3632 120.9024,44.3712 120.9024,42.8448 C120.9024,42.2256 121.4928,41.7504 122.4432,41.7504 C123.336,41.7504 124.0992,42.1248 124.5168,42.6288 L125.0208,41.88 C124.4592,41.3184 123.624,40.872 122.4432,40.872 C120.7872,40.872 119.8512,41.7936 119.8512,42.8736 C119.8512,45.4512 124.1568,44.4144 124.1568,46.0992 C124.1568,46.7904 123.5808,47.2944 122.5152,47.2944 C121.5648,47.2944 120.6864,46.8336 120.2256,46.3008 L119.664,47.0784 C120.3696,47.8272 121.3344,48.1728 122.472,48.1728 Z M127.4976,40.0512 C127.9008,40.0512 128.232,39.7344 128.232,39.3312 C128.232,38.928 127.9008,38.5968 127.4976,38.5968 C127.1088,38.5968 126.7776,38.928 126.7776,39.3312 C126.7776,39.7344 127.1088,40.0512 127.4976,40.0512 Z M128.0448,48 L128.0448,41.0448 L126.9648,41.0448 L126.9648,48 L128.0448,48 Z M135.9792,48 L135.9792,43.1184 C135.9792,41.6064 135.216,40.872 133.7616,40.872 C132.7248,40.872 131.7744,41.4768 131.2848,42.0528 L131.2848,41.0448 L130.2048,41.0448 L130.2048,48 L131.2848,48 L131.2848,42.9168 C131.688,42.3552 132.4944,41.8368 133.344,41.8368 C134.28,41.8368 134.8992,42.2256 134.8992,43.4496 L134.8992,48 L135.9792,48 Z M140.9328,50.8224 C139.752,50.8224 138.9456,50.592 138.1248,49.7856 L138.672,48.9792 C139.248,49.6704 139.9392,49.9296 140.9328,49.9296 C142.0848,49.9296 143.1648,49.368 143.1648,47.8416 L143.1648,46.848 C142.6608,47.5536 141.8112,48.0864 140.832,48.0864 C139.0176,48.0864 137.736,46.7328 137.736,44.4864 C137.736,42.2544 139.0032,40.872 140.832,40.872 C141.768,40.872 142.6032,41.3328 143.1648,42.096 L143.1648,41.0448 L144.2448,41.0448 L144.2448,47.7984 C144.2448,50.1024 142.632,50.8224 140.9328,50.8224 Z M141.0912,47.136 C141.9552,47.136 142.7904,46.6032 143.1648,45.9984 L143.1648,42.96 C142.7904,42.3552 141.9552,41.8368 141.0912,41.8368 C139.6944,41.8368 138.8592,42.9456 138.8592,44.4864 C138.8592,46.0128 139.6944,47.136 141.0912,47.136 Z M149.7312,50.7216 C149.9328,50.7792 150.2928,50.8224 150.5232,50.8224 C151.4448,50.808 152.1504,50.4192 152.568,49.4112 L156.0528,41.0448 L154.872,41.0448 L152.568,46.7472 L150.2496,41.0448 L149.0832,41.0448 L151.992,48.072 L151.5312,49.1232 C151.2864,49.6992 150.9696,49.8576 150.4944,49.8576 C150.3216,49.8576 150.0624,49.8144 149.904,49.7424 L149.7312,50.7216 Z M160.2144,48.1728 C158.0976,48.1728 156.7728,46.5312 156.7728,44.5152 C156.7728,42.4992 158.0976,40.872 160.2144,40.872 C162.3312,40.872 163.656,42.4992 163.656,44.5152 C163.656,46.5312 162.3312,48.1728 160.2144,48.1728 Z M160.2144,47.208 C161.6976,47.208 162.5184,45.9408 162.5184,44.5152 C162.5184,43.104 161.6976,41.8368 160.2144,41.8368 C158.7312,41.8368 157.896,43.104 157.896,44.5152 C157.896,45.9408 158.7312,47.208 160.2144,47.208 Z M168.2064,50.8224 C167.0256,50.8224 166.2192,50.592 165.3984,49.7856 L165.9456,48.9792 C166.5216,49.6704 167.2128,49.9296 168.2064,49.9296 C169.3584,49.9296 170.4384,49.368 170.4384,47.8416 L170.4384,46.848 C169.9344,47.5536 169.0848,48.0864 168.1056,48.0864 C166.2912,48.0864 165.0096,46.7328 165.0096,44.4864 C165.0096,42.2544 166.2768,40.872 168.1056,40.872 C169.0416,40.872 169.8768,41.3328 170.4384,42.096 L170.4384,41.0448 L171.5184,41.0448 L171.5184,47.7984 C171.5184,50.1024 169.9056,50.8224 168.2064,50.8224 Z M168.3648,47.136 C169.2288,47.136 170.064,46.6032 170.4384,45.9984 L170.4384,42.96 C170.064,42.3552 169.2288,41.8368 168.3648,41.8368 C166.968,41.8368 166.1328,42.9456 166.1328,44.4864 C166.1328,46.0128 166.968,47.136 168.3648,47.136 Z M179.1072,48 L178.0272,48 L178.0272,47.208 C177.4512,47.8416 176.6592,48.1728 175.7232,48.1728 C174.5424,48.1728 173.2896,47.3808 173.2896,45.8688 C173.2896,44.3136 174.5424,43.5792 175.7232,43.5792 C176.6736,43.5792 177.4656,43.8816 178.0272,44.5296 L178.0272,43.2768 C178.0272,42.3408 177.2784,41.808 176.2704,41.808 C175.4352,41.808 174.7584,42.1104 174.1392,42.7728 L173.6352,42.024 C174.384,41.2464 175.2768,40.872 176.4144,40.872 C177.8832,40.872 179.1072,41.5344 179.1072,43.2192 L179.1072,48 Z M176.112,47.3952 C176.8752,47.3952 177.6096,47.1072 178.0272,46.5312 L178.0272,45.2208 C177.6096,44.6448 176.8752,44.3568 176.112,44.3568 C175.104,44.3568 174.3984,44.9904 174.3984,45.8832 C174.3984,46.7616 175.104,47.3952 176.112,47.3952 Z M188.0496,48.1728 C189.3168,48.1728 190.0656,47.6544 190.5984,46.9632 L189.8784,46.3008 C189.4176,46.92 188.8272,47.208 188.1072,47.208 C186.624,47.208 185.7024,46.056 185.7024,44.5152 C185.7024,42.9744 186.624,41.8368 188.1072,41.8368 C188.8272,41.8368 189.4176,42.1104 189.8784,42.744 L190.5984,42.0816 C190.0656,41.3904 189.3168,40.872 188.0496,40.872 C185.976,40.872 184.5792,42.456 184.5792,44.5152 C184.5792,46.5888 185.976,48.1728 188.0496,48.1728 Z M193.1904,48 L193.1904,38.3952 L192.1104,38.3952 L192.1104,48 L193.1904,48 Z M200.7792,48 L199.6992,48 L199.6992,47.208 C199.1232,47.8416 198.3312,48.1728 197.3952,48.1728 C196.2144,48.1728 194.9616,47.3808 194.9616,45.8688 C194.9616,44.3136 196.2144,43.5792 197.3952,43.5792 C198.3456,43.5792 199.1376,43.8816 199.6992,44.5296 L199.6992,43.2768 C199.6992,42.3408 198.9504,41.808 197.9424,41.808 C197.1072,41.808 196.4304,42.1104 195.8112,42.7728 L195.3072,42.024 C196.056,41.2464 196.9488,40.872 198.0864,40.872 C199.5552,40.872 200.7792,41.5344 200.7792,43.2192 L200.7792,48 Z M197.784,47.3952 C198.5472,47.3952 199.2816,47.1072 199.6992,46.5312 L199.6992,45.2208 C199.2816,44.6448 198.5472,44.3568 197.784,44.3568 C196.776,44.3568 196.0704,44.9904 196.0704,45.8832 C196.0704,46.7616 196.776,47.3952 197.784,47.3952 Z M205.1424,48.1728 C206.9424,48.1728 207.8784,47.2368 207.8784,46.0704 C207.8784,43.3632 203.5728,44.3712 203.5728,42.8448 C203.5728,42.2256 204.1632,41.7504 205.1136,41.7504 C206.0064,41.7504 206.7696,42.1248 207.1872,42.6288 L207.6912,41.88 C207.1296,41.3184 206.2944,40.872 205.1136,40.872 C203.4576,40.872 202.5216,41.7936 202.5216,42.8736 C202.5216,45.4512 206.8272,44.4144 206.8272,46.0992 C206.8272,46.7904 206.2512,47.2944 205.1856,47.2944 C204.2352,47.2944 203.3568,46.8336 202.896,46.3008 L202.3344,47.0784 C203.04,47.8272 204.0048,48.1728 205.1424,48.1728 Z M211.8384,48.1728 C213.6384,48.1728 214.5744,47.2368 214.5744,46.0704 C214.5744,43.3632 210.2688,44.3712 210.2688,42.8448 C210.2688,42.2256 210.8592,41.7504 211.8096,41.7504 C212.7024,41.7504 213.4656,42.1248 213.8832,42.6288 L214.3872,41.88 C213.8256,41.3184 212.9904,40.872 211.8096,40.872 C210.1536,40.872 209.2176,41.7936 209.2176,42.8736 C209.2176,45.4512 213.5232,44.4144 213.5232,46.0992 C213.5232,46.7904 212.9472,47.2944 211.8816,47.2944 C210.9312,47.2944 210.0528,46.8336 209.592,46.3008 L209.0304,47.0784 C209.736,47.8272 210.7008,48.1728 211.8384,48.1728 Z M223.4736,48.1728 C222.5232,48.1728 221.688,47.7264 221.1264,46.9488 L221.1264,50.6496 L220.0464,50.6496 L220.0464,41.0448 L221.1264,41.0448 L221.1264,42.0816 C221.6304,41.376 222.4944,40.872 223.4736,40.872 C225.3024,40.872 226.5696,42.2544 226.5696,44.5152 C226.5696,46.7616 225.3024,48.1728 223.4736,48.1728 Z M223.2,47.208 C224.5968,47.208 225.432,46.056 225.432,44.5152 C225.432,42.9744 224.5968,41.8368 223.2,41.8368 C222.3504,41.8368 221.5008,42.3408 221.1264,42.9456 L221.1264,46.0848 C221.5008,46.6896 222.3504,47.208 223.2,47.208 Z M233.712,48 L232.632,48 L232.632,47.208 C232.056,47.8416 231.264,48.1728 230.328,48.1728 C229.1472,48.1728 227.8944,47.3808 227.8944,45.8688 C227.8944,44.3136 229.1472,43.5792 230.328,43.5792 C231.2784,43.5792 232.0704,43.8816 232.632,44.5296 L232.632,43.2768 C232.632,42.3408 231.8832,41.808 230.8752,41.808 C230.04,41.808 229.3632,42.1104 228.744,42.7728 L228.24,42.024 C228.9888,41.2464 229.8816,40.872 231.0192,40.872 C232.488,40.872 233.712,41.5344 233.712,43.2192 L233.712,48 Z M230.7168,47.3952 C231.48,47.3952 232.2144,47.1072 232.632,46.5312 L232.632,45.2208 C232.2144,44.6448 231.48,44.3568 230.7168,44.3568 C229.7088,44.3568 229.0032,44.9904 229.0032,45.8832 C229.0032,46.7616 229.7088,47.3952 230.7168,47.3952 Z M238.9392,48.1728 C240.2064,48.1728 240.9552,47.6544 241.488,46.9632 L240.768,46.3008 C240.3072,46.92 239.7168,47.208 238.9968,47.208 C237.5136,47.208 236.592,46.056 236.592,44.5152 C236.592,42.9744 237.5136,41.8368 238.9968,41.8368 C239.7168,41.8368 240.3072,42.1104 240.768,42.744 L241.488,42.0816 C240.9552,41.3904 240.2064,40.872 238.9392,40.872 C236.8656,40.872 235.4688,42.456 235.4688,44.5152 C235.4688,46.5888 236.8656,48.1728 238.9392,48.1728 Z M249.12,48 L246.024,44.1984 L249.1056,41.0448 L247.7376,41.0448 L244.08,44.7456 L244.08,38.3952 L243,38.3952 L243,48 L244.08,48 L244.08,46.0128 L245.232,44.8752 L247.7376,48 L249.12,48 Z" id="Give-her-additional" fill="#0D1F2D"></path>
                    <rect id="Rectangle-11" fill="#DFE3E9" x="38.7" y="11.7" width="1.8" height="68.4"></rect>
                    <g id="Comment" transform="translate(25.200000, 32.400000)" fill-rule="nonzero">
                        <g id="Oval">
                            <use fill="#1CBDA5" fill-rule="evenodd" xlink:href="#path-3"></use>
                            <circle stroke="#FFFFFF" stroke-width="5.4" cx="14.4" cy="14.4" r="17.1"></circle>
                        </g>
                        <g id="INTERFACE" transform="translate(6.646154, 8.086140)">
                            <path d="M14.1708223,0 L1.33687003,0 C0.609077984,0 0,0.645249535 0,1.41688523 L0,10.2015737 C0,10.9732094 0.609077984,11.6184589 1.33687003,11.6184589 L5.34748011,11.6184589 L7.04654571,13.7778196 L7.04654571,13.7778196 C7.35390896,14.1684509 7.9197453,14.2359529 8.31037655,13.9285897 C8.36642993,13.8844848 8.41704171,13.833873 8.4611466,13.7778196 L10.1602122,11.6184589 L14.1708223,11.6184589 C14.8986143,11.6184589 15.5076923,10.9732094 15.5076923,10.2015737 L15.5076923,1.41688523 C15.5076923,0.645249535 14.8986143,0 14.1708223,0 Z" id="Shape" fill="#FFFFFF"></path>
                            <g id="Group-2" transform="translate(2.769231, 4.430769)" fill="#88C057">
                                <ellipse id="Oval" cx="1.45380934" cy="1.75504072" rx="1.10736909" ry="1.10769231"></ellipse>
                                <ellipse id="Oval" cx="5.12332652" cy="1.75504072" rx="1.10736909" ry="1.10769231"></ellipse>
                                <ellipse id="Oval" cx="8.79284369" cy="1.75504072" rx="1.10736909" ry="1.10769231"></ellipse>
                            </g>
                        </g>
                    </g>
                    <path d="M77.49,70.6494 C77.8176,71.1786 78.561,71.607 79.3044,71.607 C80.5392,71.607 81.27,70.6116 81.27,69.2634 C81.27,67.9152 80.5392,66.9072 79.3044,66.9072 C78.561,66.9072 77.8176,67.3608 77.49,67.89 L77.49,70.6494 Z M77.49,72.3 L76.545,72.3 L76.545,63.8958 L77.49,63.8958 L77.49,67.134 C77.9814,66.4662 78.7122,66.063 79.5438,66.063 C81.1314,66.063 82.2528,67.323 82.2528,69.2634 C82.2528,71.2416 81.1314,72.4512 79.5438,72.4512 C78.687,72.4512 77.9436,72.0102 77.49,71.3928 L77.49,72.3 Z M83.4498,74.6814 C83.6262,74.7318 83.9412,74.7696 84.1428,74.7696 C84.9492,74.757 85.5666,74.4168 85.932,73.5348 L88.9812,66.2142 L87.948,66.2142 L85.932,71.2038 L83.9034,66.2142 L82.8828,66.2142 L85.428,72.363 L85.0248,73.2828 C84.8106,73.7868 84.5334,73.9254 84.1176,73.9254 C83.9664,73.9254 83.7396,73.8876 83.601,73.8246 L83.4498,74.6814 Z M94.2984,72.3 L93.2526,72.3 L93.2526,63.8958 L96.6294,63.8958 C98.3178,63.8958 99.2628,65.055 99.2628,66.4284 C99.2628,67.8018 98.2926,68.961 96.6294,68.961 L94.2984,68.961 L94.2984,72.3 Z M96.5034,68.0286 C97.4988,68.0286 98.1792,67.3734 98.1792,66.4284 C98.1792,65.4834 97.4988,64.8282 96.5034,64.8282 L94.2984,64.8282 L94.2984,68.0286 L96.5034,68.0286 Z M101.556,72.3 L101.556,67.9908 C101.8332,67.4994 102.627,67.0206 103.2066,67.0206 C103.3578,67.0206 103.4712,67.0332 103.5846,67.0584 L103.5846,66.0882 C102.753,66.0882 102.0474,66.5544 101.556,67.197 L101.556,66.2142 L100.611,66.2142 L100.611,72.3 L101.556,72.3 Z M105.2352,65.3448 C105.588,65.3448 105.8778,65.0676 105.8778,64.7148 C105.8778,64.362 105.588,64.0722 105.2352,64.0722 C104.895,64.0722 104.6052,64.362 104.6052,64.7148 C104.6052,65.0676 104.895,65.3448 105.2352,65.3448 Z M105.714,72.3 L105.714,66.2142 L104.769,66.2142 L104.769,72.3 L105.714,72.3 Z M107.2638,74.6814 C107.4402,74.7318 107.7552,74.7696 107.9568,74.7696 C108.7632,74.757 109.3806,74.4168 109.746,73.5348 L112.7952,66.2142 L111.762,66.2142 L109.746,71.2038 L107.7174,66.2142 L106.6968,66.2142 L109.242,72.363 L108.8388,73.2828 C108.6246,73.7868 108.3474,73.9254 107.9316,73.9254 C107.7804,73.9254 107.5536,73.8876 107.415,73.8246 L107.2638,74.6814 Z M118.5282,72.3 L117.5832,72.3 L117.5832,71.607 C117.0792,72.1614 116.3862,72.4512 115.5672,72.4512 C114.534,72.4512 113.4378,71.7582 113.4378,70.4352 C113.4378,69.0744 114.534,68.4318 115.5672,68.4318 C116.3988,68.4318 117.0918,68.6964 117.5832,69.2634 L117.5832,68.1672 C117.5832,67.3482 116.928,66.882 116.046,66.882 C115.3152,66.882 114.723,67.1466 114.1812,67.7262 L113.7402,67.071 C114.3954,66.3906 115.1766,66.063 116.172,66.063 C117.4572,66.063 118.5282,66.6426 118.5282,68.1168 L118.5282,72.3 Z M115.9074,71.7708 C116.5752,71.7708 117.2178,71.5188 117.5832,71.0148 L117.5832,69.8682 C117.2178,69.3642 116.5752,69.1122 115.9074,69.1122 C115.0254,69.1122 114.408,69.6666 114.408,70.4478 C114.408,71.2164 115.0254,71.7708 115.9074,71.7708 Z M129.024,72.3 L126.315,68.9736 L129.0114,66.2142 L127.8144,66.2142 L124.614,69.4524 L124.614,63.8958 L123.669,63.8958 L123.669,72.3 L124.614,72.3 L124.614,70.5612 L125.622,69.5658 L127.8144,72.3 L129.024,72.3 Z M135.198,72.3 L135.198,66.2142 L134.253,66.2142 L134.253,70.6872 C133.9002,71.1786 133.1946,71.607 132.4512,71.607 C131.6322,71.607 131.0904,71.292 131.0904,70.221 L131.0904,66.2142 L130.1454,66.2142 L130.1454,70.5108 C130.1454,71.8338 130.8132,72.4512 132.0858,72.4512 C132.993,72.4512 133.7868,71.9724 134.253,71.4432 L134.253,72.3 L135.198,72.3 Z M145.3788,72.3 L145.3788,67.9026 C145.3788,66.6804 144.7866,66.063 143.6778,66.063 C142.7958,66.063 141.9768,66.6426 141.6366,67.197 C141.4602,66.567 140.931,66.063 139.9986,66.063 C139.104,66.063 138.285,66.7056 138.033,67.0962 L138.033,66.2142 L137.088,66.2142 L137.088,72.3 L138.033,72.3 L138.033,67.8522 C138.3606,67.3608 139.0158,66.9072 139.6332,66.9072 C140.427,66.9072 140.7546,67.3986 140.7546,68.1672 L140.7546,72.3 L141.6996,72.3 L141.6996,67.8396 C142.0146,67.3608 142.6824,66.9072 143.3124,66.9072 C144.0936,66.9072 144.4338,67.3986 144.4338,68.1672 L144.4338,72.3 L145.3788,72.3 Z M152.019,72.3 L151.074,72.3 L151.074,71.607 C150.57,72.1614 149.877,72.4512 149.058,72.4512 C148.0248,72.4512 146.9286,71.7582 146.9286,70.4352 C146.9286,69.0744 148.0248,68.4318 149.058,68.4318 C149.8896,68.4318 150.5826,68.6964 151.074,69.2634 L151.074,68.1672 C151.074,67.3482 150.4188,66.882 149.5368,66.882 C148.806,66.882 148.2138,67.1466 147.672,67.7262 L147.231,67.071 C147.8862,66.3906 148.6674,66.063 149.6628,66.063 C150.948,66.063 152.019,66.6426 152.019,68.1168 L152.019,72.3 Z M149.3982,71.7708 C150.066,71.7708 150.7086,71.5188 151.074,71.0148 L151.074,69.8682 C150.7086,69.3642 150.066,69.1122 149.3982,69.1122 C148.5162,69.1122 147.8988,69.6666 147.8988,70.4478 C147.8988,71.2164 148.5162,71.7708 149.3982,71.7708 Z M154.854,72.3 L154.854,67.9908 C155.1312,67.4994 155.925,67.0206 156.5046,67.0206 C156.6558,67.0206 156.7692,67.0332 156.8826,67.0584 L156.8826,66.0882 C156.051,66.0882 155.3454,66.5544 154.854,67.197 L154.854,66.2142 L153.909,66.2142 L153.909,72.3 L154.854,72.3 Z" id="by-Priya-kumar" fill="#7E95A3"></path>
                </g>
            </g>
        </g>
    </g>
</svg>