<svg width="24" height="24" viewBox="0 0 24 24" xmlns="http://www.w3.org/2000/svg"><title>4C958425-02E6-416B-AEDF-5AF42912AC70</title><path d="M21.75 0H2.25A2.257 2.257 0 0 0 0 2.25v19.5A2.257 2.257 0 0 0 2.25 24h19.5A2.257 2.257 0 0 0 24 21.75V2.25A2.257 2.257 0 0 0 21.75 0zM9 19.5H6V9h3v10.5zm-1.5-12C6.67 7.5 6 6.83 6 6s.67-1.5 1.5-1.5S9 5.17 9 6s-.67 1.5-1.5 1.5zm12 12h-3v-6c0-.83-.67-1.5-1.5-1.5s-1.5.67-1.5 1.5v6h-3V9h3v1.86c.619-.848 1.565-1.86 2.625-1.86 1.866 0 3.375 1.678 3.375 3.75v6.75z" fill="#FFF" fill-rule="evenodd" opacity=".75"/></svg>