<?xml version="1.0" encoding="UTF-8"?>
<svg width="33px" height="31px" viewBox="0 0 33 31" version="1.1" xmlns="http://www.w3.org/2000/svg" xmlns:xlink="http://www.w3.org/1999/xlink">
    <!-- Generator: sketchtool 47.1 (45422) - http://www.bohemiancoding.com/sketch -->
    <title>D88A9AF4-C9B5-410A-B493-257FF92E5CF9</title>
    <desc>Created with sketchtool.</desc>
    <defs></defs>
    <g id="Welcome" stroke="none" stroke-width="1" fill="none" fill-rule="evenodd">
        <g id="Landing-page" transform="translate(-1286.000000, -4477.000000)">
            <g id="Footer" transform="translate(138.000000, 4330.000000)">
                <g id="Socials" transform="translate(983.000000, 147.000000)">
                    <g id="Linkedin" transform="translate(165.000000, 0.000000)">
                        <path d="M0,15.5 C0,6.93958595 7.38730118,0 16.5,0 C25.6126988,0 33,6.93958595 33,15.5 C33,24.060414 25.6126988,31 16.5,31 C7.38730118,31 0,24.060414 0,15.5 Z" id="Combined-Shape" fill="#677897"></path>
                        <path d="M24.5976488,16.6964881 L24.5976488,22.5 L21.2331396,22.5 L21.2331396,17.0851723 C21.2331396,15.7249235 20.7464996,14.7966068 19.5286588,14.7966068 C18.5989918,14.7966068 18.0457463,15.4222242 17.8023534,16.0274038 C17.7135947,16.2437531 17.6907481,16.544883 17.6907481,16.8477282 L17.6907481,22.5 L14.3251075,22.5 C14.3251075,22.5 14.3704358,13.3290592 14.3251075,12.3788814 L17.6904196,12.3788814 L17.6904196,13.8135094 C17.6835948,13.8242393 17.6747262,13.8358086 17.6683029,13.84621 L17.6904196,13.84621 L17.6904196,13.8135094 C18.1375342,13.1248631 18.936034,12.1411088 20.7233245,12.1411088 C22.9376568,12.1410723 24.5976488,13.5876711 24.5976488,16.6964881 Z M10.8045042,7.5 C9.65312294,7.5 8.90002441,8.2552153 8.90002441,9.24834916 C8.90002441,10.2198408 9.63133472,10.9979757 10.7598329,10.9979757 L10.7823145,10.9979757 C11.9559949,10.9979757 12.6859184,10.2199868 12.6859184,9.24834916 C12.6638017,8.2552153 11.9559949,7.5 10.8045042,7.5 Z M9.09991395,22.5 L12.4642771,22.5 L12.4642771,12.3788814 L9.09991395,12.3788814 L9.09991395,22.5 Z" id="LinkedIn" fill="#FFFFFF" fill-rule="nonzero"></path>
                    </g>
                </g>
            </g>
        </g>
    </g>
</svg>