<svg width="14" height="20" viewBox="0 0 14 20" xmlns="http://www.w3.org/2000/svg"><title>9921686B-F8CA-4B3E-8988-36F63C4D0E5F</title><g fill-rule="nonzero" fill="#FFF" opacity=".7"><path d="M7.112 4.364a2.549 2.549 0 0 0-2.546 2.545 2.549 2.549 0 0 0 2.546 2.546 2.549 2.549 0 0 0 2.545-2.546 2.549 2.549 0 0 0-2.545-2.545zm0 4.363A1.82 1.82 0 0 1 5.293 6.91a1.82 1.82 0 0 1 1.819-1.818A1.82 1.82 0 0 1 8.93 6.909a1.82 1.82 0 0 1-1.818 1.818z"/><path d="M11.978 2.043A6.928 6.928 0 0 0 7.048 0a6.927 6.927 0 0 0-4.932 2.043c-2.437 2.437-2.74 7.022-.656 9.8l5.587 8.069 5.579-8.057c2.093-2.79 1.79-7.375-.648-9.812zm.058 9.386l-4.989 7.205-4.996-7.216C.16 8.898.43 4.756 2.63 2.557A6.205 6.205 0 0 1 7.047.727c1.669 0 3.237.65 4.417 1.83 2.2 2.2 2.47 6.34.572 8.872z"/></g></svg>