<svg width="99" height="15" viewBox="0 0 99 15" xmlns="http://www.w3.org/2000/svg"><title>99B5CFD2-3C7E-4BE9-8818-6979114B6622</title><path d="M0 7.52C0 11.689 3.4 15 7.622 15c3.061 0 5.214-1.375 5.214-1.375a.512.512 0 0 0 .17-.333V8.52c0-.209-.17-.396-.38-.396H8.972a.386.386 0 0 0-.401.396v.77c0 .209.169.376.4.376h2.429v2.916s-1.478.875-3.8.875c-3.336 0-5.87-2.812-5.87-6.02 0-3.23 2.534-5.98 5.87-5.98 1.414 0 2.934.688 4.01 1.625.233.209.36.23.55.021.169-.187.401-.396.591-.583.169-.167.148-.417-.021-.583C11.295.728 9.754 0 7.62 0 3.4 0 0 3.354 0 7.52zm22.147 6.876c0 .208.169.396.401.396h.824a.413.413 0 0 0 .4-.396V7.75L28.925.812c.17-.27 0-.604-.338-.604h-.992c-.148 0-.274.105-.338.188l-4.264 5.812L18.727.396c-.063-.084-.19-.188-.338-.188h-.992c-.338 0-.507.334-.338.605l5.088 6.958v6.625zm10.176-.104c-.063.291.064.5.38.5h.845c.169 0 .359-.146.38-.292l1.837-10.73h.084l3.927 11c.042.126.232.23.36.23h.38c.126 0 .316-.104.358-.23l3.885-11h.084l1.88 10.73a.433.433 0 0 0 .38.292h.844c.316 0 .443-.209.38-.5l-2.724-14a.405.405 0 0 0-.38-.292h-.338c-.147 0-.316.104-.358.23L40.41 11.707h-.106L36.124.23C36.08.104 35.913 0 35.764 0h-.337a.405.405 0 0 0-.38.292l-2.724 14zm21.894.104V.604c0-.208.17-.396.38-.396h4.73c4.074 0 7.41 3.271 7.41 7.271 0 4.042-3.336 7.313-7.41 7.313h-4.73c-.21 0-.38-.188-.38-.396zm1.605-1.042h3.167c3.462 0 5.975-2.437 5.975-5.875 0-3.417-2.513-5.854-5.975-5.854h-3.167v11.73zm15.053 1.438c-.317 0-.486-.271-.359-.542L76.934.23c.064-.126.17-.23.36-.23h.21c.19 0 .296.104.36.23l6.375 14.02c.127.27-.042.542-.359.542h-.844a.388.388 0 0 1-.359-.23l-1.562-3.437H73.62l-1.542 3.438a.388.388 0 0 1-.358.229h-.845zm3.336-4.959h6.334C79.51 7.563 78.497 5.271 77.462 3h-.169l-3.082 6.833zm17.946 4.563c0 .208.168.396.4.396h.824a.413.413 0 0 0 .401-.396V7.75L98.934.812c.169-.27 0-.604-.338-.604h-.992c-.148 0-.275.105-.338.188L93 6.208 88.736.396c-.063-.084-.19-.188-.337-.188h-.993c-.338 0-.506.334-.338.605l5.089 6.958v6.625z" fill="#5A5183" fill-rule="evenodd"/></svg>