<svg xmlns="http://www.w3.org/2000/svg" xmlns:xlink="http://www.w3.org/1999/xlink" width="158" height="40" viewBox="0 0 158 40">
    <defs>
        <rect id="a" width="40" height="40" rx="4.297"/>
        <path id="d" d="M.104 16.613c-.133.367.087.671.488.678l2.535.045c.604.01.924.464.714 1.01L.321 27.54c-.14.366-.043.42.217.124l12.87-14.7c.261-.298.147-.539-.255-.539H8.408c-.602 0-.792-.372-.419-.836L17.046.316c.247-.308.163-.409-.195-.221L4.229 6.677c-.355.185-.75.631-.884 1l-3.24 8.936z"/>
        <filter id="c" width="123.4%" height="114.4%" x="-11.7%" y="-3.6%" filterUnits="objectBoundingBox">
            <feOffset dy="1" in="SourceAlpha" result="shadowOffsetOuter1"/>
            <feGaussianBlur in="shadowOffsetOuter1" result="shadowBlurOuter1" stdDeviation=".5"/>
            <feColorMatrix in="shadowBlurOuter1" values="0 0 0 0 0 0 0 0 0 0 0 0 0 0 0 0 0 0 0.2 0"/>
        </filter>
    </defs>
    <g fill="none" fill-rule="evenodd">
        <g>
            <mask id="b" fill="#fff">
                <use xlink:href="#a"/>
            </mask>
            <use fill="#7048B5" xlink:href="#a"/>
            <path fill="#000" fill-opacity=".22" d="M40 13.604L29.93 6.276 20 15.603l-1.33 6.694-5.626 11.82L21.138 40H40V13.604z" mask="url(#b)"/>
            <g mask="url(#b)">
                <g transform="translate(12.763 6.264)">
                    <use fill="#000" filter="url(#c)" xlink:href="#d"/>
                    <use fill="#FFF" xlink:href="#d"/>
                </g>
            </g>
        </g>
        <path fill="#633EA5" d="M55.104 19.624c0 4.8 3.864 8.616 8.64 8.616 3.48 0 5.952-1.584 5.952-1.584a.593.593 0 0 0 .192-.384c0-1.92-.024-3.888-.024-5.808 0-.24-.192-.456-.432-.456h-4.368a.441.441 0 0 0-.456.456v1.392c0 .24.192.432.456.432h2.352v2.688c-.24.096-1.608.816-3.6.816-3.408 0-6.024-2.88-6.024-6.216 0-3.36 2.616-6.24 6.024-6.24 1.464 0 2.952.648 4.08 1.632.24.216.432.24.624.024.36-.384.72-.744 1.08-1.128.192-.192.168-.48-.024-.672-1.632-1.392-3.528-2.232-5.832-2.232-4.776 0-8.64 3.864-8.64 8.664zm23.04 7.92c0 .24.192.456.456.456h1.584c.24 0 .456-.216.456-.456v-7.656l5.688-7.992c.192-.312 0-.696-.384-.696h-1.8c-.168 0-.312.12-.384.216l-4.344 6.12-4.344-6.12c-.072-.096-.192-.216-.384-.216h-1.776c-.384 0-.576.384-.384.696l5.616 8.016v7.632zm10.128-.096c-.048.336.12.552.456.552h1.56c.192 0 .408-.168.432-.336l1.728-10.728h.096l4.344 11.04c.048.144.216.264.408.264h.432c.216 0 .36-.12.408-.264l4.32-11.04h.072l1.776 10.728c.048.168.24.336.456.336h1.56c.336 0 .504-.216.432-.552L103.8 11.32c-.048-.192-.24-.36-.432-.36h-.384c-.168 0-.36.12-.408.264l-4.992 12.264h-.096l-5.016-12.264c-.048-.144-.264-.264-.408-.264h-.384c-.192 0-.384.168-.432.36l-2.976 16.128zm23.208.096V11.656c0-.24.192-.456.432-.456h5.52c4.632 0 8.424 3.768 8.424 8.376 0 4.656-3.792 8.424-8.424 8.424h-5.52c-.24 0-.432-.216-.432-.456zm2.448-1.824h3.168c3.528 0 6.096-2.592 6.096-6.144 0-3.528-2.568-6.096-6.096-6.096h-3.168v12.24zM128.544 28c-.36 0-.552-.312-.408-.624l7.368-16.152a.562.562 0 0 1 .408-.264h.24c.12 0 .336.12.408.264l7.32 16.152c.144.312-.048.624-.408.624h-1.512a.56.56 0 0 1-.552-.36l-1.488-3.288h-7.848c-.48 1.104-.984 2.184-1.464 3.288a.603.603 0 0 1-.552.36h-1.512zm4.464-5.712h6l-2.952-6.576h-.12l-2.928 6.576zm16.56 5.256v-7.632l-5.616-8.016c-.192-.312 0-.696.384-.696h1.776c.192 0 .312.12.384.216l4.344 6.12 4.344-6.12c.072-.096.216-.216.384-.216h1.8c.384 0 .576.384.384.696l-5.688 7.992v7.656c0 .24-.216.456-.456.456h-1.584a.456.456 0 0 1-.456-.456z"/>
    </g>
</svg>
