<svg width="40" height="29" viewBox="0 0 40 29" xmlns="http://www.w3.org/2000/svg"><title>E9A19210-14AE-480D-9C25-1B5336A74499</title><defs><linearGradient x1="-56.391%" y1="284.362%" x2="105.54%" y2="-32.361%" id="a"><stop stop-color="#353442" offset="0%"/><stop stop-color="#394A68" offset="42.214%"/><stop stop-color="#3E689C" offset="100%"/></linearGradient><linearGradient x1="50%" y1="0%" x2="50%" y2="100%" id="b"><stop stop-color="#FBDA61" offset="0%"/><stop stop-color="#F76B1C" offset="100%"/></linearGradient></defs><g fill="none" fill-rule="evenodd"><path d="M37.235 1.383c.16.113.231.36.17.524l-3.088 8.345c-.066.177-.248.23-.405.12l-1.07-.75a.51.51 0 0 1-.177-.536s.628-1.937 1.122-3.45C24.521.512 14.817.488 5.38 5.635c.347 1.566.796 3.567.796 3.567a.495.495 0 0 1-.22.512l-1.111.621c-.165.092-.336.019-.385-.167L2.187 1.466a.466.466 0 0 1 .214-.5l1.44-.799c.166-.092.334-.018.375.167 0 0 .463 2.075.807 3.7 9.722-5.292 19.735-5.254 29.267.053.51-1.555 1.168-3.55 1.168-3.55.061-.184.239-.243.399-.13l1.378.976zm-.151 6.477c.073-.174.255-.206.4-.079l.616.547c.148.131.331.095.41-.079l.36-.791a.494.494 0 0 0-.121-.552l-.661-.59a.52.52 0 0 1-.131-.55l.636-1.512a.48.48 0 0 0-.133-.533l-.721-.588c-.147-.12-.322-.072-.394.115l-2.016 5.187a.517.517 0 0 0 .142.553l.576.473c.149.123.329.082.403-.093l.634-1.508zM.799 3.127a.506.506 0 0 0-.194.523s.307 1.042.581 1.955c-.476.342-.898.66-.898.66a.517.517 0 0 0-.183.54l.287.877c.058.179.229.234.385.12l.595-.435c.154-.113.324-.054.38.133l.482 1.612c.056.187.226.254.395.14l.577-.388a.527.527 0 0 0 .204-.532l-1.5-5.548c-.05-.184-.221-.247-.382-.14L.8 3.126z" transform="translate(.25 13.8)" fill="url(#a)"/><path d="M14.04 16.883c-.13.369.08.674.457.68l2.44.045c.583.01.895.455.688 1.013l-3.38 9.117c-.135.363-.035.412.213.118l12.36-14.585c.252-.298.153-.539-.242-.539H22.01c-.575 0-.749-.376-.4-.825L30.314.714c.24-.307.154-.406-.176-.228L17.992 7.03c-.336.182-.712.623-.844.997l-3.108 8.856z" stroke="url(#b)" stroke-width=".7" fill="url(#b)" transform="translate(.25 .1)"/></g></svg>