<svg width="18" height="18" viewBox="0 0 18 18" xmlns="http://www.w3.org/2000/svg"><title>3CA28DD5-EF24-4D33-A681-55F57C738947</title><path d="M14.306 17.8c-.74 0-1.635-.186-2.619-.557-2.156-.813-4.502-2.42-6.606-4.524C2.976 10.615 1.369 8.27.556 6.112c-.74-1.961-.741-3.57-.004-4.307.106-.106.213-.22.325-.337C1.549.761 2.309-.035 3.316.001 4.01.03 4.682.461 5.37 1.318c2.034 2.53 1.117 3.431.055 4.477l-.187.185c-.174.174-.502.978 2.55 4.03.997.997 1.846 1.726 2.525 2.167.427.278 1.192.698 1.506.384l.188-.19c1.044-1.06 1.946-1.973 4.474.06.857.688 1.288 1.36 1.316 2.055.042 1.006-.76 1.768-1.468 2.44-.116.11-.23.218-.336.324-.366.366-.95.55-1.688.55zM3.244.599c-.716 0-1.362.68-1.933 1.282-.115.12-.227.238-.336.347-.55.549-.493 1.99.141 3.673.784 2.078 2.343 4.35 4.389 6.396C7.55 14.34 9.82 15.9 11.899 16.683c1.683.636 3.124.69 3.672.142.11-.11.227-.22.348-.335.615-.584 1.312-1.246 1.282-1.981-.021-.505-.389-1.048-1.093-1.614-2.107-1.694-2.696-1.096-3.673-.105l-.191.193c-.467.468-1.226.364-2.256-.305-.714-.464-1.596-1.22-2.621-2.246C4.833 7.9 4.023 6.35 4.817 5.555l.19-.188C6 4.39 6.6 3.8 4.905 1.692 4.338.988 3.795.62 3.29.599h-.047z" fill-rule="nonzero" fill="#FFF" opacity=".7"/></svg>