<?xml version="1.0" encoding="UTF-8"?>
<svg width="1221px" height="587px" viewBox="0 0 1221 587" version="1.1" xmlns="http://www.w3.org/2000/svg" xmlns:xlink="http://www.w3.org/1999/xlink">
    <!-- Generator: sketchtool 47.1 (45422) - http://www.bohemiancoding.com/sketch -->
    <title>A5305660-794D-4116-858F-7735119FA685</title>
    <desc>Created with sketchtool.</desc>
    <defs></defs>
    <g id="Welcome" stroke="none" stroke-width="1" fill="none" fill-rule="evenodd" opacity="0.2">
        <g id="Landing-page" fill="#AA91DB">
            <g id="BG" transform="translate(-2138.000000, -2487.000000)">
                <path d="M2294.21524,124.472566 L3703.19772,71.0667205 L3703.19772,71.0667205 C3758.38657,68.9748514 3804.82176,112.018454 3806.91363,167.207299 C3807.03489,170.4064 3807.00245,173.609479 3806.81643,176.805468 L3650.88452,2855.8919 L3650.88452,2855.8919 C3649.45103,2880.52089 3638.96391,2903.75072 3621.43935,2921.11539 L2933.20345,3603.07176 L2933.20345,3603.07176 C2893.97246,3641.94481 2830.65662,3641.65463 2791.78358,3602.42364 C2777.31931,3587.82618 2767.70347,3569.12694 2764.24441,3548.8702 L2199.42973,241.233239 L2199.42973,241.233239 C2190.13344,186.792782 2226.73001,135.123936 2281.17047,125.827641 C2285.48439,125.090993 2289.84202,124.638328 2294.21524,124.472566 Z" id="Rectangle-6" transform="translate(3002.486103, 1851.515681) rotate(-317.000000) translate(-3002.486103, -1851.515681) "></path>
            </g>
        </g>
    </g>
</svg>