<svg width="16" height="19" viewBox="0 0 16 19" xmlns="http://www.w3.org/2000/svg"><title>C271AC73-EC33-45C4-9512-50521DAC59E1</title><path d="M15.94 1.996A2 2 0 0 0 13.99.003V0H1.98A1.983 1.983 0 0 0 0 1.981V18.5l6.181-4.12 6.181 4.12V8.133h3.578V1.996zm-4.229 15.289l-5.53-3.687-5.53 3.687V1.98c0-.733.597-1.33 1.33-1.33h10.415c-.32.313-.547.72-.639 1.174v.001a2.231 2.231 0 0 0-.046.451v15.008zm3.579-9.803h-2.928V2.277c0-.11.011-.218.032-.323A1.638 1.638 0 0 1 13.607.7c.012-.003.022-.008.034-.01.08-.018.162-.024.245-.029.027-.002.053-.008.08-.008.73.012 1.324.612 1.324 1.343v5.486z" fill-rule="nonzero" fill="#FFF" opacity=".7"/></svg>