<?xml version="1.0" encoding="UTF-8"?>
<svg width="34px" height="31px" viewBox="0 0 34 31" version="1.1" xmlns="http://www.w3.org/2000/svg" xmlns:xlink="http://www.w3.org/1999/xlink">
    <!-- Generator: sketchtool 47.1 (45422) - http://www.bohemiancoding.com/sketch -->
    <title>92657D01-B016-4ABC-8943-84013E6A589E</title>
    <desc>Created with sketchtool.</desc>
    <defs></defs>
    <g id="Welcome" stroke="none" stroke-width="1" fill="none" fill-rule="evenodd">
        <g id="Landing-page" transform="translate(-1175.000000, -4477.000000)">
            <g id="Footer" transform="translate(138.000000, 4330.000000)">
                <g id="Socials" transform="translate(983.000000, 147.000000)">
                    <g id="Twitter" transform="translate(54.000000, 0.000000)">
                        <path d="M0,15.5 C0,6.93958595 7.49720417,0 16.7454752,0 C25.9937463,0 33.4909504,6.93958595 33.4909504,15.5 C33.4909504,24.060414 25.9937463,31 16.7454752,31 C7.49720417,31 0,24.060414 0,15.5 Z" id="Combined-Shape" fill="#677897"></path>
                        <path d="M26.7664221,10.274736 C26.0867558,10.5759013 25.3574838,10.7801482 24.5912487,10.8713336 C25.3736268,10.4028241 25.9725176,9.6597022 26.2563631,8.7769357 C25.5224744,9.21080566 24.7123968,9.52585095 23.8492433,9.69663501 C23.1580506,8.95927635 22.1748957,8.5 21.0844123,8.5 C18.9923378,8.5 17.2960538,10.196284 17.2960538,12.2872119 C17.2960538,12.5837606 17.3295166,12.8733995 17.394149,13.1503654 C14.2462307,12.9922544 11.4548769,11.4840742 9.58666229,9.19233926 C9.26009059,9.75085744 9.07431012,10.4016473 9.07431012,11.0963401 C9.07431012,12.4106834 9.74359655,13.5703856 10.7590677,14.248875 C10.1382405,14.2281154 9.55434609,14.0573313 9.0431707,13.7734557 L9.0431707,13.8207683 C9.0431707,15.6555201 10.3494273,17.1867832 12.0814674,17.5352913 C11.7641289,17.6206834 11.4295007,17.667996 11.083316,17.667996 C10.8386965,17.667996 10.6021334,17.6437664 10.370187,17.5976004 C10.8525161,19.1034873 12.2511048,20.1985571 13.9081628,20.2285801 C12.6122859,21.2440512 10.978311,21.8475586 9.20357495,21.8475586 C8.89779303,21.8475586 8.59659754,21.8290922 8.30004883,21.7956294 C9.97671981,22.872263 11.9672593,23.5 14.1066464,23.5 C21.0752395,23.5 24.8843878,17.7280118 24.8843878,12.7222587 L24.8716846,12.2318429 C25.6159531,11.7009941 26.2598331,11.0340311 26.7664221,10.274736 Z" id="Shape" fill="#FFFFFF" fill-rule="nonzero"></path>
                    </g>
                </g>
            </g>
        </g>
    </g>
</svg>