<?xml version="1.0" encoding="UTF-8"?>
<svg version="1.1" viewBox="0 0 700 581" xmlns="http://www.w3.org/2000/svg" xmlns:xlink="http://www.w3.org/1999/xlink">
<title>ipad-illustration@2x</title>
<desc>Created with Sketch.</desc>
<defs>
<linearGradient id="k" x2="102%" y2="101%">
<stop stop-color="#3023AE" offset="0"/>
<stop stop-color="#C86DD7" offset="1"/>
</linearGradient>
<filter id="y" x="-24.9%" y="-34.4%" width="149.7%" height="168.9%">
<feGaussianBlur in="SourceGraphic" stdDeviation="37.3006664"/>
</filter>
<filter id="t" x="-33.3%" y="-47%" width="166.7%" height="194.1%">
<feGaussianBlur in="SourceGraphic" stdDeviation="50"/>
</filter>
<rect id="c" x="83" y="-82" width="349.38" height="514.04" rx="44.826"/>
<filter id="s" x="-3.4%" y="-1.6%" width="104.6%" height="103.1%">
<feOffset dx="-4" dy="0" in="SourceAlpha" result="shadowOffsetOuter1"/>
<feGaussianBlur in="shadowOffsetOuter1" result="shadowBlurOuter1" stdDeviation="2"/>
<feComposite in="shadowBlurOuter1" in2="SourceAlpha" operator="out" result="shadowBlurOuter1"/>
<feColorMatrix in="shadowBlurOuter1" values="0 0 0 0 0   0 0 0 0 0   0 0 0 0 0  0 0 0 0.22 0"/>
</filter>
<filter id="r" x="-4.6%" y="-2.3%" width="106.9%" height="104.7%">
<feGaussianBlur in="SourceAlpha" result="shadowBlurInner1" stdDeviation="5"/>
<feOffset dx="6" dy="0" in="shadowBlurInner1" result="shadowOffsetInner1"/>
<feComposite in="shadowOffsetInner1" in2="SourceAlpha" k2="-1" k3="1" operator="arithmetic" result="shadowInnerInner1"/>
<feColorMatrix in="shadowInnerInner1" values="0 0 0 0 0.899739583   0 0 0 0 0.899739583   0 0 0 0 0.899739583  0 0 0 1 0"/>
</filter>
<rect id="f" x="46" y="10" width="419" height="329" rx="5.2297"/>
<rect id="e" y="1.1369e-13" width="323.48" height="129" rx="3"/>
<filter id="aa" x="-3.7%" y="-7%" width="107.4%" height="118.6%">
<feOffset dx="0" dy="1" in="SourceAlpha" result="shadowOffsetOuter1"/>
<feGaussianBlur in="shadowOffsetOuter1" result="shadowBlurOuter1" stdDeviation="2.5"/>
<feComposite in="shadowBlurOuter1" in2="SourceAlpha" operator="out" result="shadowBlurOuter1"/>
<feColorMatrix in="shadowBlurOuter1" result="shadowMatrixOuter1" values="0 0 0 0 0   0 0 0 0 0   0 0 0 0 0  0 0 0 0.1 0"/>
<feOffset dx="0" dy="2" in="SourceAlpha" result="shadowOffsetOuter2"/>
<feGaussianBlur in="shadowOffsetOuter2" result="shadowBlurOuter2" stdDeviation="2"/>
<feComposite in="shadowBlurOuter2" in2="SourceAlpha" operator="out" result="shadowBlurOuter2"/>
<feColorMatrix in="shadowBlurOuter2" result="shadowMatrixOuter2" values="0 0 0 0 0   0 0 0 0 0   0 0 0 0 0  0 0 0 0.08 0"/>
<feMerge>
<feMergeNode in="shadowMatrixOuter1"/>
<feMergeNode in="shadowMatrixOuter2"/>
</feMerge>
</filter>
<rect id="o" x="1.1369e-13" y="1.1369e-13" width="296.52" height="53" rx="4.212"/>
<rect id="n" x="1.1369e-13" y="1.1369e-13" width="296.52" height="53" rx="4.212"/>
<rect id="d" width="322" height="82" rx="3"/>
<filter id="z" x="-3.7%" y="-11%" width="107.5%" height="129.3%">
<feOffset dx="0" dy="1" in="SourceAlpha" result="shadowOffsetOuter1"/>
<feGaussianBlur in="shadowOffsetOuter1" result="shadowBlurOuter1" stdDeviation="2.5"/>
<feComposite in="shadowBlurOuter1" in2="SourceAlpha" operator="out" result="shadowBlurOuter1"/>
<feColorMatrix in="shadowBlurOuter1" result="shadowMatrixOuter1" values="0 0 0 0 0   0 0 0 0 0   0 0 0 0 0  0 0 0 0.1 0"/>
<feOffset dx="0" dy="2" in="SourceAlpha" result="shadowOffsetOuter2"/>
<feGaussianBlur in="shadowOffsetOuter2" result="shadowBlurOuter2" stdDeviation="2"/>
<feComposite in="shadowBlurOuter2" in2="SourceAlpha" operator="out" result="shadowBlurOuter2"/>
<feColorMatrix in="shadowBlurOuter2" result="shadowMatrixOuter2" values="0 0 0 0 0   0 0 0 0 0   0 0 0 0 0  0 0 0 0.08 0"/>
<feMerge>
<feMergeNode in="shadowMatrixOuter1"/>
<feMergeNode in="shadowMatrixOuter2"/>
</feMerge>
</filter>
<circle id="m" cx="9.7448" cy="9.4896" r="9.2664"/>
<circle id="l" cx="9.7448" cy="10.077" r="9.2664"/>
<rect id="j" y="1.1369e-13" width="323.48" height="98" rx="3"/>
<filter id="x" x="-3.7%" y="-9.2%" width="107.4%" height="124.5%">
<feOffset dx="0" dy="1" in="SourceAlpha" result="shadowOffsetOuter1"/>
<feGaussianBlur in="shadowOffsetOuter1" result="shadowBlurOuter1" stdDeviation="2.5"/>
<feComposite in="shadowBlurOuter1" in2="SourceAlpha" operator="out" result="shadowBlurOuter1"/>
<feColorMatrix in="shadowBlurOuter1" result="shadowMatrixOuter1" values="0 0 0 0 0   0 0 0 0 0   0 0 0 0 0  0 0 0 0.1 0"/>
<feOffset dx="0" dy="2" in="SourceAlpha" result="shadowOffsetOuter2"/>
<feGaussianBlur in="shadowOffsetOuter2" result="shadowBlurOuter2" stdDeviation="2"/>
<feComposite in="shadowBlurOuter2" in2="SourceAlpha" operator="out" result="shadowBlurOuter2"/>
<feColorMatrix in="shadowBlurOuter2" result="shadowMatrixOuter2" values="0 0 0 0 0   0 0 0 0 0   0 0 0 0 0  0 0 0 0.08 0"/>
<feMerge>
<feMergeNode in="shadowMatrixOuter1"/>
<feMergeNode in="shadowMatrixOuter2"/>
</feMerge>
</filter>
<rect id="i" x="1.1369e-13" width="422.36" height="20.16"/>
<filter id="w" x="-2.1%" y="-29.8%" width="104.3%" height="189.3%">
<feOffset dx="0" dy="3" in="SourceAlpha" result="shadowOffsetOuter1"/>
<feGaussianBlur in="shadowOffsetOuter1" result="shadowBlurOuter1" stdDeviation="2.5"/>
<feComposite in="shadowBlurOuter1" in2="SourceAlpha" operator="out" result="shadowBlurOuter1"/>
<feColorMatrix in="shadowBlurOuter1" values="0 0 0 0 0   0 0 0 0 0   0 0 0 0 0  0 0 0 0.06 0"/>
</filter>
<rect id="h" x="281" y="4" width="46" height="12" rx="6"/>
<filter id="v" x="-15.2%" y="-41.7%" width="130.4%" height="216.7%">
<feOffset dx="0" dy="2" in="SourceAlpha" result="shadowOffsetOuter1"/>
<feGaussianBlur in="shadowOffsetOuter1" result="shadowBlurOuter1" stdDeviation="2"/>
<feColorMatrix in="shadowBlurOuter1" values="0 0 0 0 0   0 0 0 0 0   0 0 0 0 0  0 0 0 0.07 0"/>
</filter>
<rect id="g" x=".096009" y=".11362" width="28.512" height="22"/>
<filter id="u" x="-5.3%" y="-6.8%" width="110.5%" height="113.6%">
<feOffset dx="0" dy="0" in="SourceAlpha" result="shadowOffsetOuter1"/>
<feGaussianBlur in="shadowOffsetOuter1" result="shadowBlurOuter1" stdDeviation="0.5"/>
<feColorMatrix in="shadowBlurOuter1" values="0 0 0 0 0   0 0 0 0 0   0 0 0 0 0  0 0 0 0.18 0"/>
</filter>
</defs>
<g fill="none" fill-rule="evenodd">
<g transform="translate(-657 -65)">
<g transform="translate(140 127)">
<g transform="translate(579 2)">
<polygon transform="translate(288.18 228.8) rotate(-5) translate(-288.18 -228.8)" points="63.186 118.23 97.905 391.26 513.17 338.39 481.16 66.332" fill="url(#k)" filter="url(#y)" opacity=".14844"/>
<polygon transform="translate(288.29 226.56) rotate(-5) translate(-288.29 -226.56)" points="63.347 119.69 96.267 385.98 513.24 334.6 480.09 67.139" fill="url(#k)" filter="url(#t)" opacity=".74563"/>
<g transform="translate(288.5 225) rotate(-12) translate(-257.5 -175)">
<g transform="translate(0)">
<g transform="translate(257.69 175.02) rotate(-90) translate(-257.69 -175.02)">
<use fill="black" filter="url(#s)" xlink:href="#c"/>
<use fill="#FFFFFF" fill-rule="evenodd" xlink:href="#c"/>
<use fill="black" filter="url(#r)" xlink:href="#c"/>
<rect x="83.672" y="-81.328" width="348.04" height="512.69" rx="44.826" stroke="#F0F0F0" stroke-width="1.3448"/>
</g>
<mask id="b" fill="white">
<use xlink:href="#f"/>
</mask>
<g stroke-linecap="square">
<use fill="#FAFBFD" fill-rule="evenodd" xlink:href="#f"/>
<rect x="45" y="9" width="421" height="331" rx="5.2297" stroke="#EFF1F5" stroke-width="2"/>
</g>
<g mask="url(#b)">
<g transform="translate(110 234)">
<use fill="black" filter="url(#aa)" xlink:href="#e"/>
<use fill="#FFFFFF" fill-opacity=".99" fill-rule="evenodd" xlink:href="#e"/>
<rect x="14" y="7" width="66" height="5.5" rx="2.75" fill="#E3E7ED" fill-rule="evenodd"/>
<rect x="186" y="8" width="36" height="4.5" rx="2.25" fill="#00B898" fill-opacity=".20695" fill-rule="evenodd"/>
<rect x="230" y="8" width="36" height="4.5" rx="2.25" fill="#F5F6F8" fill-rule="evenodd"/>
<rect x="274" y="8" width="36" height="4.5" rx="2.25" fill="#F5F6F8" fill-rule="evenodd"/>
<g transform="translate(13 21)" fill="none" fill-rule="evenodd">
<use fill="#D44449" fill-opacity=".08" fill-rule="evenodd" xlink:href="#o"/>
<rect x=".2925" y=".2925" width="295.94" height="52.415" rx="4.212" stroke="#DE474C" stroke-opacity=".48749" stroke-width=".585"/>
<rect x="17" y="21" width="86" height="3" rx="1" fill="#F0DDDD"/>
<rect x="17" y="30" width="159" height="3" rx="1" fill="#F0DDDD"/>
<rect x="8" y="21" width="3" height="3" rx="1" fill="#E8D5D5"/>
<rect x="8" y="30" width="3" height="3" rx="1" fill="#E8D5D5"/>
<rect x="7" y="43" width="34" height="3" rx="1" fill="#E0E0E0"/>
<rect x="263" y="43" width="24" height="3" rx="1" fill="#DE474C" opacity=".57037"/>
<rect x="7" y="7" width="66" height="5.5" rx="2.75" fill="#E8D5D5"/>
<g transform="translate(276 24)">
<circle cx="5.5" cy="5.5" r="5.5" fill="#B8AC95"/>
<g transform="translate(3.6667 2.9333)">
<path d="m1.0019 4.7667c-0.55335 0-1.0019-0.43989-1.0019-0.99925l2.364e-16 -2.7682c4.714e-17 -0.55187 0.44551-0.99925 0.99309-0.99925h1.9402l0.73333 1.1v2.6647c0 0.55335-0.44961 1.0019-1.0019 1.0019h-1.6628z" fill="#fff"/>
<path d="m1.1 2.2h1.4667v0.73333h-1.4667v-0.73333zm0 1.1h1.4667v0.73333h-1.4667v-0.73333z" fill="#E4E8EE"/>
</g>
</g>
<g transform="translate(276 7)">
<circle cx="5.5" cy="5.5" r="5.5" fill="#36BF7E"/>
<polyline points="3.6667 5.8667 5.1 6.9667 7.3333 4.4" stroke="#fff" stroke-linecap="square" stroke-width="1.2"/>
</g>
</g>
<g transform="translate(13 79)" fill="none" fill-rule="evenodd">
<use fill="#FFBC00" fill-opacity=".08" fill-rule="evenodd" xlink:href="#n"/>
<rect x=".2925" y=".2925" width="295.94" height="52.415" rx="4.212" stroke="#FFBC00" stroke-opacity=".6" stroke-width=".585"/>
<rect x="17" y="21" width="86" height="3" rx="1" fill="#EEF0DD"/>
<rect x="17" y="30" width="159" height="3" rx="1" fill="#F0DDDD"/>
<rect x="8" y="21" width="3" height="3" rx="1" fill="#EEF0DD"/>
<rect x="8" y="30" width="3" height="3" rx="1" fill="#E8D5D5"/>
<rect x="7" y="43" width="34" height="3" rx="1" fill="#E0E0E0"/>
<rect x="263" y="43" width="24" height="3" rx="1" fill="#DE474C"/>
<rect x="7" y="7" width="66" height="5.5" rx="2.75" fill="#EEF0DD"/>
<g transform="translate(276 24)">
<circle cx="5.5" cy="5.5" r="5.5" fill="#B8AC95"/>
<g transform="translate(3.6667 2.9333)">
<path d="m1.0019 4.7667c-0.55335 0-1.0019-0.43989-1.0019-0.99925l2.364e-16 -2.7682c4.714e-17 -0.55187 0.44551-0.99925 0.99309-0.99925h1.9402l0.73333 1.1v2.6647c0 0.55335-0.44961 1.0019-1.0019 1.0019h-1.6628z" fill="#fff"/>
<path d="m1.1 2.2h1.4667v0.73333h-1.4667v-0.73333zm0 1.1h1.4667v0.73333h-1.4667v-0.73333z" fill="#E4E8EE"/>
</g>
</g>
<g transform="translate(276 7)">
<circle cx="5.5" cy="5.5" r="5.5" fill="#36BF7E"/>
<polyline points="3.6667 5.8667 5.1 6.9667 7.3333 4.4" stroke="#fff" stroke-linecap="square" stroke-width="1.2"/>
</g>
</g>
</g>
</g>
<g mask="url(#b)">
<g transform="translate(110 37)">
<mask id="a" fill="white">
<use xlink:href="#d"/>
</mask>
<g>
<use fill="black" filter="url(#z)" xlink:href="#d"/>
<use fill="#FFFFFF" fill-opacity=".99" fill-rule="evenodd" xlink:href="#d"/>
</g>
<rect x=".5" y=".5" width="321" height="21" fill="none" mask="url(#a)" stroke="#F1F3F4"/>
<g fill="none" fill-rule="evenodd" mask="url(#a)">
<g transform="translate(11.553 29.86)">
<mask id="q" fill="white">
<use xlink:href="#m"/>
</mask>
<circle cx="9.7448" cy="9.4896" r="9.5589" stroke="#DFE3E9" stroke-width=".585"/>
<g fill="none" fill-rule="evenodd" mask="url(#q)">
<g transform="translate(4.7009 3.2208)" fill="#DFE3E9" fill-rule="nonzero">
<path d="m0.068938 9.6699c-0.11818 0.30306-0.084414 0.6398 0.1013 0.90918 0.18571 0.26939 0.47272 0.42092 0.81037 0.42092h8.2388c0.32077 0 0.62466-0.15153 0.81037-0.42092 0.18571-0.26939 0.21948-0.60612 0.1013-0.90918-0.86102-2.0541-2.8363-3.3842-5.0479-3.3842-2.2116 0-4.1869 1.3301-5.0142 3.3842z"/>
<path d="m7.8462 2.75c0-1.5125-1.2358-2.75-2.7462-2.75-1.5104 0-2.7462 1.2375-2.7462 2.75s1.2358 2.75 2.7462 2.75c1.5104 0 2.7462-1.2375 2.7462-2.75z"/>
</g>
</g>
</g>
</g>
<g fill="none" fill-rule="evenodd" mask="url(#a)">
<g transform="translate(10.788 52.922)">
<mask id="p" fill="white">
<use xlink:href="#l"/>
</mask>
<circle cx="9.7448" cy="10.077" r="9.5589" stroke="#DFE3E9" stroke-width=".585"/>
<g fill="none" fill-rule="evenodd" mask="url(#p)">
<g transform="translate(4.8097 3.7578)" fill="#DFE3E9" fill-rule="nonzero">
<path d="m0.068938 9.6699c-0.11818 0.30306-0.084414 0.6398 0.1013 0.90918 0.18571 0.26939 0.47272 0.42092 0.81037 0.42092h8.2388c0.32077 0 0.62466-0.15153 0.81037-0.42092 0.18571-0.26939 0.21948-0.60612 0.1013-0.90918-0.86102-2.0541-2.8363-3.3842-5.0479-3.3842-2.2116 0-4.1869 1.3301-5.0142 3.3842z"/>
<path d="m7.8462 2.75c0-1.5125-1.2358-2.75-2.7462-2.75-1.5104 0-2.7462 1.2375-2.7462 2.75s1.2358 2.75 2.7462 2.75c1.5104 0 2.7462-1.2375 2.7462-2.75z"/>
</g>
</g>
</g>
</g>
<rect x="37" y="31" width="66" height="5.5" rx="2.75" fill="#E3E7ED" fill-rule="evenodd" mask="url(#a)"/>
<rect x="37" y="41" width="36" height="4.5" rx="2.25" fill="#F5F6F8" fill-rule="evenodd" mask="url(#a)"/>
<rect x="131" y="37" width="36" height="4.5" rx="2.25" fill="#F5F6F8" fill-rule="evenodd" mask="url(#a)"/>
<rect x="224" y="37" width="36" height="4.5" rx="2.25" fill="#F5F6F8" fill-rule="evenodd" mask="url(#a)"/>
<rect x="272" y="37" width="36" height="4.5" rx="2.25" fill="#F5F6F8" fill-rule="evenodd" mask="url(#a)"/>
<rect x="37" y="56" width="66" height="5.5" rx="2.75" fill="#E3E7ED" fill-rule="evenodd" mask="url(#a)"/>
<rect x="37" y="66" width="36" height="4.5" rx="2.25" fill="#F5F6F8" fill-rule="evenodd" mask="url(#a)"/>
<rect x="131" y="62" width="36" height="4.5" rx="2.25" fill="#F5F6F8" fill-rule="evenodd" mask="url(#a)"/>
<rect x="224" y="62" width="36" height="4.5" rx="2.25" fill="#F5F6F8" fill-rule="evenodd" mask="url(#a)"/>
<rect x="272" y="62" width="36" height="4.5" rx="2.25" fill="#F5F6F8" fill-rule="evenodd" mask="url(#a)"/>
<rect x="13" y="8" width="100" height="6" rx="3" fill="#CBD7E7" fill-rule="evenodd" mask="url(#a)"/>
</g>
</g>
<g mask="url(#b)">
<g transform="translate(110 130)">
<use fill="black" filter="url(#x)" xlink:href="#j"/>
<use fill="#FFFFFF" fill-opacity=".99" fill-rule="evenodd" xlink:href="#j"/>
<g transform="translate(.4212 7.9156)" fill-rule="evenodd">
<rect x="12.579" y=".0844" width="100" height="6" rx="3" fill="#E3E7ED"/>
</g>
<g transform="translate(262 31)" fill-rule="evenodd">
<rect width="33" height="5.5" rx="2.75" fill="#E3E7ED"/>
<g transform="translate(4 25)">
<rect x="-1.3642e-12" y="-6.8212e-13" width="25" height="25" rx="5" fill="#FFC059"/>
<path d="m9.9805 13h0.79386l1.603-4.0075c-0.49441-0.060486-0.87731-0.4818-0.87731-0.99255 0-0.55228 0.44772-1 1-1s1 0.44772 1 1c0 0.51075-0.3829 0.93206-0.87731 0.99255l1.603 4.0075h0.44015l3.0401-2.3922c-0.12913-0.16845-0.20587-0.37918-0.20587-0.60784 0-0.55228 0.44772-1 1-1s1 0.44772 1 1c0 0.55228-0.44772 1-1 1-0.025638 0-0.051051-9.648e-4 -0.076204-0.0028602l-0.4238 2.9415v3.7472h-11v-2.6937l-0.57522-3.9925c-0.008227 1.999e-4 -0.016479 3.004e-4 -0.024754 3.004e-4 -0.55228 0-1-0.44772-1-1 0-0.55228 0.44772-1 1-1s1 0.44772 1 1c0 0.28524-0.11943 0.54259-0.311 0.72477l2.8915 2.2752z" fill="#fff"/>
</g>
<rect x="7" y="12" width="20" height="4.5" rx="2.25" fill="#F5F6F8"/>
</g>
<g transform="translate(13 28)" fill-rule="evenodd">
<path d="m218.93 56.367h-216.92" opacity=".3" stroke="#7E95A3" stroke-linecap="square" stroke-opacity=".55559" stroke-width=".585"/>
<path d="m2.0084 0.78691v55.159" opacity=".3" stroke="#7E95A3" stroke-linecap="square" stroke-opacity=".55559" stroke-width=".585"/>
<g transform="translate(13 9)" fill="#24C7AE">
<path transform="translate(2.95 27) translate(-2.95 -27)" d="m0.8424 7h4.2152c0.46524 0 0.8424 0.37716 0.8424 0.8424v39.158h-5.9v-39.158c-5.6976e-17 -0.46524 0.37716-0.8424 0.8424-0.8424z"/>
<path transform="translate(28.948 23.5) translate(-28.948 -23.5)" d="m26.842 1.1369e-13h4.212v-1.1102e-16c0.46524-8.5464e-17 0.8424 0.37716 0.8424 0.8424v46.158h-5.8968v-46.158c0-0.46524 0.37716-0.8424 0.8424-0.8424z"/>
<path transform="translate(108.63 39.785) translate(-108.63 -39.785)" d="m106.52 32.204h4.212c0.46524 0 0.8424 0.37716 0.8424 0.8424v14.321h-5.8968v-14.321c0-0.46524 0.37716-0.8424 0.8424-0.8424z"/>
<path transform="translate(135.59 23.867) translate(-135.59 -23.867)" d="m133.48 0.3668h4.212c0.46524 0 0.8424 0.37716 0.8424 0.8424v46.158h-5.8968v-46.158c0-0.46524 0.37716-0.8424 0.8424-0.8424z"/>
<path transform="translate(162.54 31.572) translate(-162.54 -31.572)" d="m160.44 15.777h4.212c0.46524 0 0.8424 0.37716 0.8424 0.8424v30.748h-5.8968v-30.748c0-0.46524 0.37716-0.8424 0.8424-0.8424z"/>
<path transform="translate(188.66 39.785) translate(-188.66 -39.785)" d="m186.55 32.204h4.212c0.46524 0 0.8424 0.37716 0.8424 0.8424v14.321h-5.8968v-14.321c0-0.46524 0.37716-0.8424 0.8424-0.8424z"/>
<path transform="translate(55.558 31.572) translate(-55.558 -31.572)" d="m53.452 15.777h4.212c0.46524 0 0.8424 0.37716 0.8424 0.8424v30.748h-5.8968v-30.748c0-0.46524 0.37716-0.8424 0.8424-0.8424z"/>
<path transform="translate(81.672 36.732) translate(-81.672 -36.732)" d="m79.566 26.096h4.212c0.46524 0 0.8424 0.37716 0.8424 0.8424v20.428h-5.8968v-20.428c0-0.46524 0.37716-0.8424 0.8424-0.8424z"/>
</g>
<g transform="translate(23 16)" fill="#0072A3">
<path transform="translate(2.9484 31) translate(-2.9484 -31)" d="m0.8424 22h4.212c0.46524 0 0.8424 0.37716 0.8424 0.8424v17.158h-5.8968v-17.158c-5.6976e-17 -0.46524 0.37716-0.8424 0.8424-0.8424z"/>
<path transform="translate(29.948 28) translate(-29.948 -28)" d="m27.842 16h4.212c0.46524 0 0.8424 0.37716 0.8424 0.8424v23.158h-5.8968v-23.158c0-0.46524 0.37716-0.8424 0.8424-0.8424z"/>
<path transform="translate(108.74 22.367) translate(-108.74 -22.367)" d="m106.63 4.3668h4.212c0.46524 0 0.8424 0.37716 0.8424 0.8424v35.158h-5.8968v-35.158c0-0.46524 0.37716-0.8424 0.8424-0.8424z"/>
<path transform="translate(135.69 27.072) translate(-135.69 -27.072)" d="m133.59 13.777h4.212c0.46524 0 0.8424 0.37716 0.8424 0.8424v25.748h-5.8968v-25.748c0-0.46524 0.37716-0.8424 0.8424-0.8424z"/>
<path transform="translate(162.65 37.867) translate(-162.65 -37.867)" d="m160.55 35.367h4.212c0.46524 0 0.8424 0.37716 0.8424 0.8424v4.1576h-5.8968v-4.1576c0-0.46524 0.37716-0.8424 0.8424-0.8424z"/>
<path transform="translate(188.77 20.367) translate(-188.77 -20.367)" d="m186.66 0.3668h4.212c0.46524 0 0.8424 0.37716 0.8424 0.8424v39.158h-5.8968v-39.158c0-0.46524 0.37716-0.8424 0.8424-0.8424z"/>
<path transform="translate(55.667 35.207) translate(-55.667 -35.207)" d="m53.561 30.047h4.212c0.46524 0 0.8424 0.37716 0.8424 0.8424v9.477h-5.8968v-9.477c0-0.46524 0.37716-0.8424 0.8424-0.8424z"/>
<path transform="translate(81.781 27.072) translate(-81.781 -27.072)" d="m79.675 13.777h4.212c0.46524 0 0.8424 0.37716 0.8424 0.8424v25.748h-5.8968v-25.748c0-0.46524 0.37716-0.8424 0.8424-0.8424z"/>
</g>
</g>
</g>
</g>
<g mask="url(#b)">
<g transform="translate(45 10)">
<use fill="black" filter="url(#w)" xlink:href="#i"/>
<use fill="#FFFFFF" fill-opacity=".99" fill-rule="evenodd" xlink:href="#i"/>
<rect x="65" y="7" width="100" height="7" rx="1" fill="#F5F6F8" fill-rule="evenodd"/>
<rect x="372" y="7" width="40" height="7" rx="3.5" fill="#F5F6F8" fill-rule="evenodd"/>
<use fill="black" filter="url(#v)" xlink:href="#h"/>
<use fill="#7A51CC" fill-rule="evenodd" xlink:href="#h"/>
<g transform="translate(354 4)" fill="#7E95A3" fill-rule="nonzero" opacity=".8">
<ellipse cx="6" cy="5.1444" rx="2.4" ry="2.4476"/>
<path d="m6 0c-3.3137 0-6 2.6863-6 6s2.6863 6 6 6 6-2.6863 6-6-2.6863-6-6-6zm3.6825 9.6676c-0.78587-0.76333-2.1415-1.2676-3.6825-1.2676s-2.8967 0.50427-3.6825 1.2676c-0.9372-0.94107-1.5175-2.2377-1.5175-3.6676 0-2.8673 2.3327-5.2 5.2-5.2s5.2 2.3327 5.2 5.2c0 1.4299-0.58027 2.7265-1.5175 3.6676z" fill-opacity=".8701"/>
</g>
<rect x="371.96" y="3.24" width="1" height="13.68" fill="#DFE3E9" fill-rule="evenodd"/>
<g transform="translate(333 4)" fill="none" fill-rule="evenodd" opacity=".8">
<circle cx="6.318" cy="6.318" r="5.616" fill="#fff" fill-opacity=".96"/>
<path d="m7.02 9.126c0 0.3877-0.3143 0.702-0.702 0.702s-0.702-0.3143-0.702-0.702h1.404zm-0.702-6.318c0.19385 0 0.351 0.15715 0.351 0.351v0.37908c0.99684 0.16848 1.755 1.0354 1.755 2.0779v2.106l1.053 1.053h-6.318l1.053-1.053v-2.106c0-1.0425 0.75816-1.9094 1.755-2.0779v-0.37908c0-0.19385 0.15715-0.351 0.351-0.351z" fill="#7E95A3" fill-rule="nonzero"/>
</g>
</g>
</g>
<g mask="url(#b)">
<g transform="translate(45 10)">
<polygon points="1 1.1369e-13 1 333 30 333 30 185.51 30 1.1369e-13" fill="#5D438A" fill-rule="evenodd"/>
<rect transform="translate(14.352 88.722) scale(-1 1) translate(-14.352 -88.722)" x=".096009" y="79.218" width="28.512" height="19.008" fill="#7A51CC" fill-rule="evenodd"/>
<circle cx="15.5" cy="40.5" r="5.5" fill="#fff" fill-opacity=".35" fill-rule="evenodd"/>
<circle cx="15.5" cy="59.5" r="5.5" fill="#fff" fill-opacity=".35" fill-rule="evenodd"/>
<circle cx="15.5" cy="88.5" r="5.5" fill="#fff" fill-opacity=".99" fill-rule="evenodd"/>
<circle cx="15.5" cy="107.5" r="5.5" fill="#fff" fill-opacity=".35" fill-rule="evenodd"/>
<circle cx="15.5" cy="128.5" r="5.5" fill="#fff" fill-opacity=".35" fill-rule="evenodd"/>
<circle cx="15.5" cy="147.5" r="5.5" fill="#fff" fill-opacity=".35" fill-rule="evenodd"/>
<circle cx="15.5" cy="294.5" r="5.5" fill="#fff" fill-opacity=".35" fill-rule="evenodd"/>
<circle cx="15.5" cy="313.5" r="5.5" fill="#fff" fill-opacity=".35" fill-rule="evenodd"/>
<use fill="black" filter="url(#u)" xlink:href="#g"/>
<use fill="#493173" fill-rule="evenodd" xlink:href="#g"/>
<g transform="translate(9.016 4.8656)" fill="none" fill-rule="evenodd">
<path d="m3.579 7.1918c-0.051359 0.14164 0.033201 0.25868 0.18804 0.26137l0.97653 0.017075c0.23283 0.0040711 0.35585 0.17898 0.27529 0.38927l-1.3566 3.5415c-0.053962 0.14091-0.016252 0.16208 0.083924 0.047652l4.9589-5.663c0.10033-0.11458 0.056262-0.20748-0.098603-0.20748h-1.8279c-0.23219 0-0.30516-0.14337-0.16161-0.322l3.4898-4.3427c0.095153-0.11838 0.062769-0.15728-0.07545-0.0852l-4.8631 2.5357c-0.1368 0.071318-0.28909 0.24324-0.34072 0.38561l-1.2484 3.4422z" fill="#fff"/>
</g>
</g>
</g>
</g>
</g>
</g>
</g>
</g>
</g>
</svg>
